<?xml version="1.0" encoding="UTF-8" standalone="no"?>
<!-- Created with Inkscape (http://www.inkscape.org/) -->

<svg
   xmlns:dc="http://purl.org/dc/elements/1.1/"
   xmlns:cc="http://creativecommons.org/ns#"
   xmlns:rdf="http://www.w3.org/1999/02/22-rdf-syntax-ns#"
   xmlns:svg="http://www.w3.org/2000/svg"
   xmlns="http://www.w3.org/2000/svg"
   xmlns:sodipodi="http://sodipodi.sourceforge.net/DTD/sodipodi-0.dtd"
   xmlns:inkscape="http://www.inkscape.org/namespaces/inkscape"
   width="8.5in"
   height="11in"
   viewBox="0 0 765 990"
   id="svg12275"
   version="1.1"
   inkscape:version="0.91 r13725"
   sodipodi:docname="850 Manual cover.svg">
  <defs
     id="defs12277" />
  <sodipodi:namedview
     id="base"
     pagecolor="#ffffff"
     bordercolor="#666666"
     borderopacity="1.0"
     inkscape:pageopacity="0.0"
     inkscape:pageshadow="2"
     inkscape:zoom="0.98994949"
     inkscape:cx="625.29343"
     inkscape:cy="716.26856"
     inkscape:document-units="mm"
     inkscape:current-layer="layer1"
     showgrid="false"
     units="in"
     showguides="true"
     inkscape:guide-bbox="true"
     inkscape:window-width="1920"
     inkscape:window-height="1017"
     inkscape:window-x="-8"
     inkscape:window-y="-8"
     inkscape:window-maximized="1"
     inkscape:snap-bbox="true"
     inkscape:bbox-paths="true"
     inkscape:bbox-nodes="true"
     inkscape:snap-bbox-edge-midpoints="true"
     inkscape:snap-bbox-midpoints="true"
     inkscape:object-paths="true"
     inkscape:snap-intersection-paths="true"
     inkscape:object-nodes="true"
     inkscape:snap-smooth-nodes="true"
     inkscape:snap-midpoints="true"
     inkscape:snap-object-midpoints="true">
    <sodipodi:guide
       position="374.28571,991.42857"
       orientation="1,0"
       id="guide12823" />
    <sodipodi:guide
       position="508.57143,502.85714"
       orientation="0,1"
       id="guide12825" />
  </sodipodi:namedview>
  <metadata
     id="metadata12280">
    <rdf:RDF>
      <cc:Work
         rdf:about="">
        <dc:format>image/svg+xml</dc:format>
        <dc:type
           rdf:resource="http://purl.org/dc/dcmitype/StillImage" />
        <dc:title></dc:title>
      </cc:Work>
    </rdf:RDF>
  </metadata>
  <g
     inkscape:label="Layer 1"
     inkscape:groupmode="layer"
     id="layer1"
     transform="translate(0,-62.362205)">
    <text
       xml:space="preserve"
       style="font-style:normal;font-variant:normal;font-weight:500;font-stretch:normal;font-size:22.49999428px;line-height:100%;font-family:'Ostrich Sans Rounded';-inkscape-font-specification:'Ostrich Sans Rounded, Medium';text-align:start;letter-spacing:0px;word-spacing:0px;writing-mode:lr-tb;text-anchor:start;fill:#000000;fill-opacity:1;stroke:#000000;stroke-width:0.53149593;stroke-linecap:butt;stroke-linejoin:miter;stroke-miterlimit:4;stroke-dasharray:none;stroke-opacity:1"
       x="555.66498"
       y="512.57581"
       id="text4768"
       sodipodi:linespacing="100%"><tspan
         style="stroke-width:0.53149593"
         sodipodi:role="line"
         id="tspan4770"
         x="555.66498"
         y="512.57581">SYSTEM<tspan
   style="fill:#b3b3b3;fill-opacity:1;stroke:#b3b3b3;stroke-opacity:1"
   id="tspan5374">80</tspan></tspan></text>
    <g
       id="g4556"
       transform="matrix(1.25,0,0,-1.25,596.81028,465.48346)"
       style="display:inline;fill:#000000;fill-opacity:1">
      <path
         d="M 0,0 C 0.547,0.149 1.053,0.442 1.502,0.871 1.946,1.293 2.31,1.874 2.584,2.599 2.853,3.316 2.99,4.259 2.99,5.401 l 0,9.51 c 0,1.789 -0.382,3.174 -1.134,4.114 -0.766,0.979 -1.922,1.475 -3.437,1.475 -1.493,0 -2.648,-0.495 -3.439,-1.478 -0.73,-0.959 -1.101,-2.343 -1.101,-4.111 l 0,-9.51 c 0,-1.146 0.137,-2.089 0.406,-2.803 0.272,-0.722 0.637,-1.304 1.082,-1.727 0.449,-0.429 0.955,-0.722 1.501,-0.871 0.527,-0.145 1.049,-0.219 1.551,-0.219 0.521,0 1.053,0.074 1.581,0.219 m 0.94,18.27 c 0.559,-0.7 0.839,-1.82 0.839,-3.359 l 0,-9.51 c 0,-1.559 -0.28,-2.69 -0.839,-3.389 -0.581,-0.701 -1.421,-1.05 -2.521,-1.05 -1.12,0 -1.949,0.349 -2.49,1.05 -0.579,0.74 -0.869,1.87 -0.869,3.389 l 0,9.51 c 0,1.499 0.29,2.619 0.869,3.359 0.52,0.7 1.35,1.049 2.49,1.049 1.121,0 1.96,-0.349 2.521,-1.049 M -8.46,1.23 c 0.671,0.88 1.012,2.253 1.012,4.081 0,1.829 -0.341,3.203 -1.01,4.079 -0.218,0.296 -0.468,0.549 -0.746,0.757 0.278,0.214 0.527,0.462 0.744,0.741 0.671,0.881 1.012,2.255 1.012,4.083 0,1.828 -0.341,3.201 -1.009,4.077 -0.706,0.964 -1.813,1.452 -3.292,1.452 -1.498,0 -2.616,-0.488 -3.323,-1.453 -0.668,-0.92 -1.007,-2.291 -1.007,-4.076 0,-1.786 0.339,-3.158 1.008,-4.079 0.214,-0.291 0.464,-0.54 0.745,-0.745 -0.283,-0.2 -0.533,-0.454 -0.746,-0.758 -0.668,-0.92 -1.007,-2.292 -1.007,-4.078 0,-1.785 0.339,-3.157 1.008,-4.077 0.707,-0.964 1.825,-1.453 3.322,-1.453 1.478,0 2.585,0.489 3.289,1.449 m -3.289,-0.268 c -1.08,0 -1.87,0.33 -2.369,0.99 -0.501,0.68 -0.751,1.799 -0.751,3.359 0,1.56 0.25,2.69 0.751,3.39 0.499,0.66 1.289,0.989 2.369,0.989 1.08,0 1.86,-0.329 2.34,-0.989 0.499,-0.7 0.749,-1.83 0.749,-3.39 0,-1.56 -0.25,-2.679 -0.749,-3.359 -0.48,-0.66 -1.26,-0.99 -2.34,-0.99 m -3.12,14.009 c 0,1.559 0.25,2.679 0.751,3.359 0.499,0.66 1.289,0.989 2.369,0.989 1.08,0 1.86,-0.329 2.34,-0.989 0.499,-0.68 0.749,-1.8 0.749,-3.359 0,-1.56 -0.25,-2.681 -0.749,-3.361 -0.48,-0.659 -1.26,-0.989 -2.34,-0.989 -1.08,0 -1.87,0.33 -2.369,0.989 -0.501,0.68 -0.751,1.801 -0.751,3.361 m 27.85,-4.83 c 0,-10.784 -8.742,-19.526 -19.526,-19.526 -10.784,0 -19.526,8.742 -19.526,19.526 0,10.784 8.742,19.526 19.526,19.526 10.784,0 19.526,-8.742 19.526,-19.526"
         style="fill:#000000;fill-opacity:1;fill-rule:nonzero;stroke:none"
         id="path4558"
         inkscape:connector-curvature="0" />
    </g>
    <text
       sodipodi:linespacing="100%"
       id="text5748"
       y="190.00577"
       x="506.29507"
       style="font-style:normal;font-variant:normal;font-weight:600;font-stretch:normal;font-size:22.5px;line-height:100%;font-family:FreeSans;-inkscape-font-specification:'FreeSans Semi-Bold';letter-spacing:-1.49999976px;word-spacing:0px;display:inline;fill:#000000;fill-opacity:1;stroke:none;stroke-width:0.26458332px;stroke-linecap:butt;stroke-linejoin:miter;stroke-opacity:1"
       xml:space="preserve"><tspan
         id="tspan5752"
         style="font-style:normal;font-variant:normal;font-weight:600;font-stretch:normal;font-size:22.5px;line-height:100%;font-family:FreeSans;-inkscape-font-specification:'FreeSans Semi-Bold';letter-spacing:-1.49999976px;fill:#000000;fill-opacity:1;stroke:none;stroke-width:0.26458332px"
         y="190.00577"
         x="506.29507"
         sodipodi:role="line">Eurorack Module</tspan></text>
    <path
       inkscape:connector-curvature="0"
       id="path5964"
       d="m 507.94643,203.61994 161.33929,0"
       style="color:#000000;clip-rule:nonzero;display:inline;overflow:visible;visibility:visible;opacity:1;isolation:auto;mix-blend-mode:normal;color-interpolation:sRGB;color-interpolation-filters:linearRGB;solid-color:#000000;solid-opacity:1;fill:none;fill-opacity:1;fill-rule:evenodd;stroke:#000000;stroke-width:0.63857645;stroke-linecap:butt;stroke-linejoin:miter;stroke-miterlimit:4;stroke-dasharray:none;stroke-dashoffset:0;stroke-opacity:1;color-rendering:auto;image-rendering:auto;shape-rendering:auto;text-rendering:auto;enable-background:accumulate"
       sodipodi:nodetypes="cc" />
    <text
       xml:space="preserve"
       style="font-style:normal;font-variant:normal;font-weight:normal;font-stretch:normal;font-size:16.24999809px;line-height:9.17222214px;font-family:FreeSans;-inkscape-font-specification:FreeSans;letter-spacing:-0.46874994px;word-spacing:0px;display:inline;fill:#000000;fill-opacity:1;stroke:#ffffff;stroke-width:0.28346452;stroke-linecap:butt;stroke-linejoin:miter;stroke-miterlimit:4;stroke-dasharray:none;stroke-opacity:1"
       x="527.82263"
       y="227.37097"
       id="text5349"><tspan
         sodipodi:role="line"
         id="tspan5351"
         x="527.82263"
         y="227.37097"
         style="font-style:normal;font-variant:normal;font-weight:normal;font-stretch:normal;font-size:16.24999809px;line-height:9.17222214px;font-family:FreeSans;-inkscape-font-specification:FreeSans;letter-spacing:-0.46874994px;fill:#000000;fill-opacity:1;stroke:#ffffff;stroke-width:0.28346452;stroke-miterlimit:4;stroke-dasharray:none;stroke-opacity:1">Operation Manual</tspan></text>
    <text
       sodipodi:linespacing="100%"
       id="text7419"
       y="126.82862"
       x="62.138977"
       style="font-style:normal;font-variant:normal;font-weight:600;font-stretch:normal;font-size:21.25000191px;line-height:100%;font-family:FreeSans;-inkscape-font-specification:'FreeSans Semi-Bold';letter-spacing:-0.93749976px;word-spacing:0px;display:inline;fill:#000000;fill-opacity:1;stroke:none;stroke-width:0.26458332px;stroke-linecap:butt;stroke-linejoin:miter;stroke-opacity:1"
       xml:space="preserve"><tspan
         id="tspan7423"
         style="font-style:normal;font-variant:normal;font-weight:600;font-stretch:normal;font-size:21.25000191px;line-height:100%;font-family:FreeSans;-inkscape-font-specification:'FreeSans Semi-Bold';letter-spacing:-0.93749976px;fill:#000000;fill-opacity:1;stroke:none;stroke-width:0.26458332px"
         y="126.82862"
         x="62.138977"
         sodipodi:role="line">Power Connector</tspan></text>
    <text
       sodipodi:linespacing="110%"
       id="text9243"
       y="363.70892"
       x="119.55045"
       style="font-style:normal;font-variant:normal;font-weight:normal;font-stretch:normal;font-size:9.37499809px;line-height:110.00000238%;font-family:FreeSans;-inkscape-font-specification:FreeSans;letter-spacing:-0.49999991px;word-spacing:0px;fill:#000000;fill-opacity:1;stroke:#ffffff;stroke-width:0.23031491;stroke-linecap:butt;stroke-linejoin:miter;stroke-miterlimit:4;stroke-dasharray:none;stroke-opacity:1"
       xml:space="preserve"><tspan
         style="font-style:normal;font-variant:normal;font-weight:600;font-stretch:normal;font-size:9.37499809px;font-family:FreeSans;-inkscape-font-specification:'FreeSans Semi-Bold';stroke-width:0.23031491"
         y="363.70892"
         x="119.55045"
         sodipodi:role="line"
         id="tspan9245">RED STRIPE</tspan></text>
    <rect
       style="opacity:1;fill:none;fill-opacity:1;fill-rule:nonzero;stroke:none;stroke-width:0;stroke-miterlimit:4;stroke-dasharray:none;stroke-opacity:1"
       id="rect12053"
       width="316.33307"
       height="133.69351"
       x="63.275848"
       y="135.91638" />
    <text
       xml:space="preserve"
       style="font-style:normal;font-variant:normal;font-weight:normal;font-stretch:normal;font-size:10.62499619px;line-height:110.00000238%;font-family:FreeSans;-inkscape-font-specification:FreeSans;letter-spacing:-0.49999979px;word-spacing:0px;fill:#000000;fill-opacity:1;stroke:#ffffff;stroke-width:0.23031487;stroke-linecap:butt;stroke-linejoin:miter;stroke-miterlimit:4;stroke-dasharray:none;stroke-opacity:1"
       x="63.242256"
       y="143.77716"
       id="text7447"
       sodipodi:linespacing="110%"><tspan
         style="stroke-width:0.23031487"
         id="tspan7451"
         sodipodi:role="line"
         x="63.242256"
         y="143.77716">The 850 uses a standard Eurorack non-shrouded/non-keyed</tspan><tspan
         style="stroke-width:0.23031487"
         sodipodi:role="line"
         x="63.242256"
         y="155.46466"
         id="tspan7455">power connector and comes with a standard 10 pin Eurorack</tspan><tspan
         style="stroke-width:0.23031487"
         sodipodi:role="line"
         x="63.242256"
         y="167.15215"
         id="tspan7465">power cable. The red stripe on the power cable indicates the</tspan><tspan
         style="stroke-width:0.23031487"
         sodipodi:role="line"
         x="63.242256"
         y="178.83965"
         id="tspan7467">position of the −12V conductor. When connecting the power</tspan><tspan
         style="stroke-width:0.23031487"
         sodipodi:role="line"
         x="63.242256"
         y="190.52715"
         id="tspan12221">cable ensure that the red stripe side of the cable is aligned with</tspan><tspan
         style="stroke-width:0.23031487"
         sodipodi:role="line"
         x="63.242256"
         y="202.21465"
         id="tspan7436">the thick line next to the power header on the PCB. Connect the</tspan><tspan
         style="stroke-width:0.23031487"
         sodipodi:role="line"
         x="63.242256"
         y="213.90213"
         id="tspan7471">10 pin connector to the 850's power header and connect the 16</tspan><tspan
         style="stroke-width:0.23031487"
         sodipodi:role="line"
         x="63.242256"
         y="225.58963"
         id="tspan7479">pin connector to your system's power bus board. The 850 is de-</tspan><tspan
         style="stroke-width:0.23031487"
         sodipodi:role="line"
         x="63.242256"
         y="237.27713"
         id="tspan7483">signed to withstand brief conditions of reverse power, but pro-</tspan><tspan
         style="stroke-width:0.23031487"
         sodipodi:role="line"
         x="63.242256"
         y="248.96463"
         id="tspan12966">longed connection to reverse polarity may damage the protection</tspan><tspan
         style="stroke-width:0.23031487"
         sodipodi:role="line"
         x="63.242256"
         y="260.65213"
         id="tspan7454">diodes and require module servicing.</tspan><tspan
         style="stroke-width:0.23031487"
         sodipodi:role="line"
         x="63.242256"
         y="272.33963"
         id="tspan12269" /><tspan
         style="font-style:normal;font-variant:normal;font-weight:600;font-stretch:normal;font-family:FreeSans;-inkscape-font-specification:'FreeSans Semi-Bold';stroke-width:0.23031487"
         sodipodi:role="line"
         x="63.242256"
         y="284.90195"
         id="tspan12267">Please use care to avoid reverse polarity conditions.</tspan><tspan
         style="stroke-width:0.23031487"
         sodipodi:role="line"
         x="63.242256"
         y="296.58945"
         id="tspan7489" /><tspan
         style="stroke-width:0.23031487"
         sodipodi:role="line"
         x="63.242256"
         y="308.27695"
         id="tspan7491" /></text>
    <g
       id="g7497"
       transform="translate(-26.786462,-542.73037)">
      <path
         inkscape:connector-curvature="0"
         id="path7417"
         d="m 99.906378,903.0737 c 38.812832,0 38.812832,0 38.812832,0"
         style="color:#000000;clip-rule:nonzero;display:inline;overflow:visible;visibility:visible;opacity:1;isolation:auto;mix-blend-mode:normal;color-interpolation:sRGB;color-interpolation-filters:linearRGB;solid-color:#000000;solid-opacity:1;fill:none;fill-opacity:1;fill-rule:evenodd;stroke:#000000;stroke-width:12.32944584;stroke-linecap:round;stroke-linejoin:miter;stroke-miterlimit:4;stroke-dasharray:none;stroke-dashoffset:0;stroke-opacity:1;color-rendering:auto;image-rendering:auto;shape-rendering:auto;text-rendering:auto;enable-background:accumulate" />
      <text
         sodipodi:linespacing="110%"
         id="text7435"
         y="917.61682"
         x="126.61559"
         style="font-style:normal;font-variant:normal;font-weight:normal;font-stretch:normal;font-size:9.37499809px;line-height:110.00000238%;font-family:FreeSans;-inkscape-font-specification:FreeSans;letter-spacing:-0.49999991px;word-spacing:0px;fill:#000000;fill-opacity:1;stroke:#ffffff;stroke-width:0.23031491;stroke-linecap:butt;stroke-linejoin:miter;stroke-miterlimit:4;stroke-dasharray:none;stroke-opacity:1"
         xml:space="preserve"><tspan
           style="font-style:normal;font-variant:normal;font-weight:600;font-stretch:normal;font-size:9.37499809px;font-family:FreeSans;-inkscape-font-specification:'FreeSans Semi-Bold';stroke-width:0.23031491"
           y="917.61682"
           x="126.61559"
           sodipodi:role="line"
           id="tspan7441">−12V</tspan></text>
      <path
         sodipodi:nodetypes="ccccccccc"
         inkscape:connector-curvature="0"
         id="path7468"
         d="m 102.95605,896.9782 19.00699,0 4.49255,2.56717 0,7.50412 -4.49255,2.56716 -19.00699,0 -4.492542,-2.56716 0,-7.50412 z"
         style="color:#000000;clip-rule:nonzero;display:inline;overflow:visible;visibility:visible;opacity:1;isolation:auto;mix-blend-mode:normal;color-interpolation:sRGB;color-interpolation-filters:linearRGB;solid-color:#000000;solid-opacity:1;fill:#ffffff;fill-opacity:1;fill-rule:evenodd;stroke:#000000;stroke-width:0.35433072;stroke-linecap:butt;stroke-linejoin:miter;stroke-miterlimit:4;stroke-dasharray:none;stroke-dashoffset:0;stroke-opacity:1;color-rendering:auto;image-rendering:auto;shape-rendering:auto;text-rendering:auto;enable-background:accumulate" />
      <g
         id="g7462"
         transform="matrix(0.00899999,0,0,0.00899999,-105.82979,5.1191036)">
        <path
           sodipodi:nodetypes="cccccccccccccccccccccccccccccccccccccccccccccccccccccccccccccccccccccccccccccccccccccccccccccccccccccccccccccccccccccccccccccccccccccccccccccccccccccccccccccccccccccccccccccccccccccccccccccccccccccccccccccccccccccccccccccccccccccccccccccccccccccccccccccccccccccccccccccccccccccccccccccccccccccccccccccccccccccccccccccccccccccccccccccccccccccc"
           d="m 25151.265,93374.264 93.253,-93.253 m -307.184,93.253 213.931,0 m -307.184,-93.253 93.253,93.253 m -93.253,-93.253 400.437,0 m -400.437,394.951 0,-394.951 m 93.253,301.699 0,-208.446 m -93.253,301.698 93.253,-93.252 m 213.931,-208.446 0,208.446 m 0,0 -213.931,0 m 307.184,-301.699 0,394.951 m -93.253,-93.252 93.253,93.252 m 0,0 -400.437,0 m 307.184,1278.105 0,208.446 m 0,-208.446 93.253,-93.252 m 0,0 0,394.951 m -93.253,-93.253 93.253,93.253 m -307.184,-301.699 213.931,0 m 0,208.446 -213.931,0 m 0,0 0,-208.446 m -93.253,301.699 0,-394.951 m 0,0 93.253,93.252 m -93.253,301.699 93.253,-93.253 m -93.253,-301.698 400.437,0 m 0,394.951 -400.437,0 m 0,1579.802 0,-394.951 m 0,0 93.253,93.252 m 0,208.447 0,-208.447 m -93.253,301.699 93.253,-93.252 m 213.931,-208.447 93.253,-93.252 m -307.184,93.252 213.931,0 m -307.184,-93.252 400.437,0 m -93.253,93.252 0,208.447 m 0,0 -213.931,0 m 307.184,-301.699 0,394.951 m -93.253,-93.252 93.253,93.252 m 0,0 -400.437,0 m 93.253,1278.108 213.931,0 m 0,0 0,208.447 m 0,0 -213.931,0 m 0,0 0,-208.447 m 213.931,0 93.253,-93.253 m 0,0 0,394.952 m -93.253,-93.252 93.253,93.252 m -400.437,-394.952 93.253,93.253 m -93.253,-93.253 400.437,0 m -400.437,394.952 0,-394.952 m 0,394.952 93.253,-93.252 m 307.184,93.252 -400.437,0 m 307.184,1278.103 0,208.447 m 0,-208.447 93.253,-93.252 m 0,0 0,394.951 m -93.253,-93.252 93.253,93.252 m -400.437,0 0,-394.951 m 0,0 93.253,93.252 m 0,208.447 0,-208.447 m -93.253,301.699 93.253,-93.252 m 0,-208.447 213.931,0 m -307.184,-93.252 400.437,0 m -93.253,301.699 -213.931,0 m 307.184,93.252 -400.437,0 m -1579.803,-6319.215 0,-394.951 m 0,0 93.252,93.253 m 0,208.446 0,-208.446 m -93.252,301.698 93.252,-93.252 m 213.932,-208.446 93.253,-93.253 m -307.185,93.253 213.932,0 m -307.184,-93.253 400.437,0 m -93.253,93.253 0,208.446 m 0,0 -213.932,0 m 307.185,-301.699 0,394.951 m -93.253,-93.252 93.253,93.252 m 0,0 -400.437,0 m 0,1579.804 0,-394.951 m 0,0 93.252,93.252 m 0,208.446 0,-208.446 m -93.252,301.699 93.252,-93.253 m 213.932,-208.446 93.253,-93.252 m -307.185,93.252 213.932,0 m -307.184,-93.252 400.437,0 m -93.253,93.252 0,208.446 m 0,0 -213.932,0 m 307.185,-301.698 0,394.951 m -93.253,-93.253 93.253,93.253 m 0,0 -400.437,0 m 307.184,1278.103 93.253,-93.252 m -307.185,93.252 213.932,0 m -307.184,-93.252 93.252,93.252 m -93.252,-93.252 400.437,0 m -93.253,93.252 0,208.447 m 0,0 -213.932,0 m 0,0 0,-208.447 m 307.185,-93.252 0,394.951 m -93.253,-93.252 93.253,93.252 m -400.437,0 0,-394.951 m 0,394.951 93.252,-93.252 m 307.185,93.252 -400.437,0 m 307.184,1278.108 0,208.447 m 0,-208.447 93.253,-93.253 m 0,0 0,394.952 m -93.253,-93.252 93.253,93.252 m -400.437,0 0,-394.952 m 0,0 93.252,93.253 m 0,208.447 0,-208.447 m -93.252,301.699 93.252,-93.252 m 0,-208.447 213.932,0 m -307.184,-93.253 400.437,0 m -93.253,301.7 -213.932,0 m 307.185,93.252 -400.437,0 m 93.252,1278.103 213.932,0 m 0,0 0,208.447 m 0,0 -213.932,0 m 0,0 0,-208.447 m 213.932,0 93.253,-93.252 m 0,0 0,394.951 m -93.253,-93.252 93.253,93.252 m -400.437,0 0,-394.951 m 0,0 93.252,93.252 m -93.252,301.699 93.252,-93.252 m -93.252,-301.699 400.437,0 m 0,394.951 -400.437,0 m 2545.238,-6099.798 -499.173,285.242 m -2111.89,0 -499.172,-285.242 m 0,0 0,-833.787 m 0,0 499.172,-285.24 m 2611.063,285.24 0,833.787 m -2611.063,285.242 2111.89,0 m 0,-1404.269 -2111.89,0 m 2111.89,0 499.173,285.24 m 0,7153.008 -499.173,285.24 m -2111.89,0 2111.89,0 m 0,-1404.274 499.173,285.242 m -499.173,-285.242 -2111.89,0 m 0,1404.274 -499.172,-285.24 m 0,0 0,-833.792 m 3110.235,0 0,833.792 m -3110.235,-833.792 499.172,-285.242 m 2611.063,-2040.581 -499.173,285.243 m -2111.89,0 -499.172,-285.243 m 0,0 0,-833.785 m 2611.062,-285.243 499.173,285.243 m 0,0 0,833.785 m -3110.235,-833.785 499.172,-285.243 m 2111.89,0 -2111.89,0 m 0,1404.271 2111.89,0 m -2611.062,460.776 499.172,-285.243 m 0,1404.274 2111.89,0 m -2611.062,-285.245 0,-833.786 m 2611.062,-285.243 499.173,285.243 m -499.173,-285.243 -2111.89,0 m 0,1404.274 -499.172,-285.245 m 3110.235,0 -499.173,285.245 m 499.173,-1119.031 0,833.786 m 0,-3993.392 0,833.784 m -2611.063,285.242 2111.89,0 m 0,-1404.269 -2111.89,0 m 0,1404.269 -499.172,-285.242 m 2611.062,-1119.027 499.173,285.243 m -3110.235,833.784 0,-833.784 m 3110.235,833.784 -499.173,285.242 m -2611.062,-1119.026 499.172,-285.243 m 2111.89,2984.073 0,175.533 m -2111.89,0 0,-175.533 m 2111.89,1579.807 0,175.531 m -2111.89,0 0,-175.531 m 2111.89,1579.805 0,87.76 m -2111.89,0 2111.89,0 m -2111.89,0 0,-87.76 m 0,-6143.685 0,-175.534 m 2111.89,0 0,175.534 m 0,1404.269 0,175.533 m -2111.89,0 0,-175.533"
           style="fill:#ffffff;fill-opacity:1;stroke:#000000;stroke-width:39.37011337;stroke-linecap:round;stroke-linejoin:round;stroke-miterlimit:10;stroke-dasharray:none;stroke-opacity:1"
           id="path7464"
           inkscape:connector-curvature="0" />
        <path
           sodipodi:nodetypes="cc"
           d="m 23199.728,92775.864 0,-88.349 2111.889,0 0,89.077"
           style="display:inline;fill:none;stroke:#000000;stroke-width:39.37010574;stroke-linecap:round;stroke-linejoin:round;stroke-miterlimit:10;stroke-dasharray:none;stroke-opacity:1"
           id="path7466"
           inkscape:connector-curvature="0" />
      </g>
    </g>
    <text
       xml:space="preserve"
       style="font-style:normal;font-variant:normal;font-weight:600;font-stretch:normal;font-size:21.25000191px;line-height:100%;font-family:FreeSans;-inkscape-font-specification:'FreeSans Semi-Bold';letter-spacing:-0.93749976px;word-spacing:0px;display:inline;fill:#000000;fill-opacity:1;stroke:none;stroke-width:0.26458332px;stroke-linecap:butt;stroke-linejoin:miter;stroke-opacity:1"
       x="62.138977"
       y="408.66119"
       id="text7506"
       sodipodi:linespacing="100%"><tspan
         sodipodi:role="line"
         x="62.138977"
         y="408.66119"
         style="font-style:normal;font-variant:normal;font-weight:600;font-stretch:normal;font-size:21.25000191px;line-height:100%;font-family:FreeSans;-inkscape-font-specification:'FreeSans Semi-Bold';letter-spacing:-0.93749976px;fill:#000000;fill-opacity:1;stroke:none;stroke-width:0.26458332px"
         id="tspan7508">Slew Input Jumper</tspan></text>
    <text
       sodipodi:linespacing="110%"
       id="text7510"
       y="425.18634"
       x="63.242256"
       style="font-style:normal;font-variant:normal;font-weight:normal;font-stretch:normal;font-size:10.62499619px;line-height:110.00000238%;font-family:FreeSans;-inkscape-font-specification:FreeSans;letter-spacing:-0.49999979px;word-spacing:0px;fill:#000000;fill-opacity:1;stroke:#ffffff;stroke-width:0.23031487;stroke-linecap:butt;stroke-linejoin:miter;stroke-miterlimit:4;stroke-dasharray:none;stroke-opacity:1"
       xml:space="preserve"><tspan
         y="425.18634"
         x="63.242256"
         sodipodi:role="line"
         style="stroke-width:0.23031487"
         id="tspan7596">Use the jumper connector on the back of the module to select the</tspan><tspan
         y="436.87384"
         x="63.242256"
         sodipodi:role="line"
         style="stroke-width:0.23031487"
         id="tspan7604">source of the normalized Slew circuit input.</tspan><tspan
         id="tspan7532"
         y="448.56134"
         x="63.242256"
         sodipodi:role="line"
         style="stroke-width:0.23031487" /><tspan
         id="tspan7534"
         y="460.24884"
         x="63.242256"
         sodipodi:role="line"
         style="stroke-width:0.23031487" /><tspan
         id="tspan7536"
         y="471.93631"
         x="63.242256"
         sodipodi:role="line"
         style="font-style:normal;font-variant:normal;font-weight:600;font-stretch:normal;font-family:FreeSans;-inkscape-font-specification:'FreeSans Semi-Bold';stroke-width:0.23031487" /><tspan
         id="tspan7538"
         y="483.62381"
         x="63.242256"
         sodipodi:role="line"
         style="stroke-width:0.23031487" /><tspan
         id="tspan7540"
         y="495.31131"
         x="63.242256"
         sodipodi:role="line"
         style="stroke-width:0.23031487" /></text>
    <text
       sodipodi:linespacing="110%"
       id="text7610"
       y="-64.324615"
       x="455.10052"
       style="font-style:normal;font-variant:normal;font-weight:normal;font-stretch:normal;font-size:9.37499809px;line-height:110.00000238%;font-family:FreeSans;-inkscape-font-specification:FreeSans;letter-spacing:-0.49999991px;word-spacing:0px;fill:#000000;fill-opacity:1;stroke:#ffffff;stroke-width:0.23031491;stroke-linecap:butt;stroke-linejoin:miter;stroke-miterlimit:4;stroke-dasharray:none;stroke-opacity:1"
       xml:space="preserve"
       transform="matrix(0,1,-1,0,0,0)"><tspan
         style="font-style:normal;font-variant:normal;font-weight:600;font-stretch:normal;font-size:9.37499809px;font-family:FreeSans;-inkscape-font-specification:'FreeSans Semi-Bold';stroke-width:0.23031491"
         y="-64.324615"
         x="455.10052"
         sodipodi:role="line"
         id="tspan7612">S&amp;H</tspan></text>
    <g
       id="g7683"
       transform="translate(-148.00939,-478.55398)">
      <g
         transform="translate(-0.410715,0)"
         id="g7662">
        <path
           sodipodi:nodetypes="cccccccccccccccccccccccccccccccccccccccc"
           d="m 227.91034,967.04918 1.92538,0 m 0,0 0,1.87602 m 0,0 -1.92538,0 m 0,0 0,-1.87602 m 1.92538,0 0.83928,-0.83927 m 0,0 0,3.55456 m -0.83928,-0.83927 0.83928,0.83927 m -3.60393,0 0,-3.55456 m 0,0 0.83927,0.83927 m -0.83927,2.71529 0.83927,-0.83927 m -0.83927,-2.71529 3.60393,0 m 0,3.55456 -3.60393,0 m 8.90712,1.9748 -4.49256,2.56716 m -5.00698,0 5.00698,0 m 0,-12.63845 4.49256,2.56717 m -4.49256,-2.56717 -5.00698,0 m 0,12.63845 -4.49255,-2.56716 m 0,0 0,-7.50412 m 13.99209,0 0,7.50412 m -13.99209,-7.50412 4.49255,-2.56717"
           style="fill:#ffffff;fill-opacity:1;stroke:#000000;stroke-width:0.35433063;stroke-linecap:round;stroke-linejoin:round;stroke-miterlimit:10;stroke-dasharray:none;stroke-opacity:1"
           id="path7641-3"
           inkscape:connector-curvature="0" />
        <path
           inkscape:connector-curvature="0"
           id="path7658"
           style="fill:#ffffff;fill-opacity:1;stroke:#000000;stroke-width:0.35433063;stroke-linecap:round;stroke-linejoin:round;stroke-miterlimit:10;stroke-dasharray:none;stroke-opacity:1"
           d="m 227.91034,954.41073 1.92538,0 m 0,0 0,1.87602 m 0,0 -1.92538,0 m 0,0 0,-1.87602 m 1.92538,0 0.83928,-0.83927 m 0,0 0,3.55456 m -0.83928,-0.83927 0.83928,0.83927 m -3.60393,0 0,-3.55456 m 0,0 0.83927,0.83927 m -0.83927,2.71529 0.83927,-0.83927 m -0.83927,-2.71529 3.60393,0 m 0,3.55456 -3.60393,0 m 8.90712,1.9748 -4.49256,2.56716 m -5.00698,0 5.00698,0 m 0,-12.63845 4.49256,2.56717 m -4.49256,-2.56717 -5.00698,0 m 0,12.63845 -4.49255,-2.56716 m 0,0 0,-7.50412 m 13.99209,0 0,7.50412 m -13.99209,-7.50412 4.49255,-2.56717"
           sodipodi:nodetypes="cccccccccccccccccccccccccccccccccccccccc" />
        <path
           sodipodi:nodetypes="cccccccccccccccccccccccccccccccccccccccc"
           d="m 227.91034,941.77228 1.92538,0 m 0,0 0,1.87602 m 0,0 -1.92538,0 m 0,0 0,-1.87602 m 1.92538,0 0.83928,-0.83927 m 0,0 0,3.55456 m -0.83928,-0.83927 0.83928,0.83927 m -3.60393,0 0,-3.55456 m 0,0 0.83927,0.83927 m -0.83927,2.71529 0.83927,-0.83927 m -0.83927,-2.71529 3.60393,0 m 0,3.55456 -3.60393,0 m 8.90712,1.9748 -4.49256,2.56716 m -5.00698,0 5.00698,0 m 0,-12.63845 4.49256,2.56717 m -4.49256,-2.56717 -5.00698,0 m 0,12.63845 -4.49255,-2.56716 m 0,0 0,-7.50412 m 13.99209,0 0,7.50412 m -13.99209,-7.50412 4.49255,-2.56717"
           style="fill:#ffffff;fill-opacity:1;stroke:#000000;stroke-width:0.35433063;stroke-linecap:round;stroke-linejoin:round;stroke-miterlimit:10;stroke-dasharray:none;stroke-opacity:1"
           id="path7660"
           inkscape:connector-curvature="0" />
      </g>
      <rect
         y="936.74799"
         x="221.58398"
         height="24.553614"
         width="13.974902"
         id="rect7677"
         style="opacity:1;fill:#000000;fill-opacity:1;fill-rule:nonzero;stroke:#000000;stroke-width:0.37590846;stroke-miterlimit:4;stroke-dasharray:none;stroke-opacity:1" />
      <rect
         style="opacity:1;fill:#000000;fill-opacity:1;fill-rule:nonzero;stroke:#000000;stroke-width:0.37590846;stroke-miterlimit:4;stroke-dasharray:none;stroke-opacity:1"
         id="rect7679"
         width="13.974902"
         height="24.553614"
         x="221.58398"
         y="936.74799" />
    </g>
    <g
       id="g7691"
       transform="matrix(-1,0,0,-1,384.28073,1432.1435)">
      <g
         id="g7693"
         transform="translate(-0.410715,0)">
        <path
           inkscape:connector-curvature="0"
           id="path7695"
           style="fill:#ffffff;fill-opacity:1;stroke:#000000;stroke-width:0.35433063;stroke-linecap:round;stroke-linejoin:round;stroke-miterlimit:10;stroke-dasharray:none;stroke-opacity:1"
           d="m 227.91034,967.04918 1.92538,0 m 0,0 0,1.87602 m 0,0 -1.92538,0 m 0,0 0,-1.87602 m 1.92538,0 0.83928,-0.83927 m 0,0 0,3.55456 m -0.83928,-0.83927 0.83928,0.83927 m -3.60393,0 0,-3.55456 m 0,0 0.83927,0.83927 m -0.83927,2.71529 0.83927,-0.83927 m -0.83927,-2.71529 3.60393,0 m 0,3.55456 -3.60393,0 m 8.90712,1.9748 -4.49256,2.56716 m -5.00698,0 5.00698,0 m 0,-12.63845 4.49256,2.56717 m -4.49256,-2.56717 -5.00698,0 m 0,12.63845 -4.49255,-2.56716 m 0,0 0,-7.50412 m 13.99209,0 0,7.50412 m -13.99209,-7.50412 4.49255,-2.56717"
           sodipodi:nodetypes="cccccccccccccccccccccccccccccccccccccccc" />
        <path
           sodipodi:nodetypes="cccccccccccccccccccccccccccccccccccccccc"
           d="m 227.91034,954.41073 1.92538,0 m 0,0 0,1.87602 m 0,0 -1.92538,0 m 0,0 0,-1.87602 m 1.92538,0 0.83928,-0.83927 m 0,0 0,3.55456 m -0.83928,-0.83927 0.83928,0.83927 m -3.60393,0 0,-3.55456 m 0,0 0.83927,0.83927 m -0.83927,2.71529 0.83927,-0.83927 m -0.83927,-2.71529 3.60393,0 m 0,3.55456 -3.60393,0 m 8.90712,1.9748 -4.49256,2.56716 m -5.00698,0 5.00698,0 m 0,-12.63845 4.49256,2.56717 m -4.49256,-2.56717 -5.00698,0 m 0,12.63845 -4.49255,-2.56716 m 0,0 0,-7.50412 m 13.99209,0 0,7.50412 m -13.99209,-7.50412 4.49255,-2.56717"
           style="fill:#ffffff;fill-opacity:1;stroke:#000000;stroke-width:0.35433063;stroke-linecap:round;stroke-linejoin:round;stroke-miterlimit:10;stroke-dasharray:none;stroke-opacity:1"
           id="path7697"
           inkscape:connector-curvature="0" />
        <path
           inkscape:connector-curvature="0"
           id="path7699"
           style="fill:#ffffff;fill-opacity:1;stroke:#000000;stroke-width:0.35433063;stroke-linecap:round;stroke-linejoin:round;stroke-miterlimit:10;stroke-dasharray:none;stroke-opacity:1"
           d="m 227.91034,941.77228 1.92538,0 m 0,0 0,1.87602 m 0,0 -1.92538,0 m 0,0 0,-1.87602 m 1.92538,0 0.83928,-0.83927 m 0,0 0,3.55456 m -0.83928,-0.83927 0.83928,0.83927 m -3.60393,0 0,-3.55456 m 0,0 0.83927,0.83927 m -0.83927,2.71529 0.83927,-0.83927 m -0.83927,-2.71529 3.60393,0 m 0,3.55456 -3.60393,0 m 8.90712,1.9748 -4.49256,2.56716 m -5.00698,0 5.00698,0 m 0,-12.63845 4.49256,2.56717 m -4.49256,-2.56717 -5.00698,0 m 0,12.63845 -4.49255,-2.56716 m 0,0 0,-7.50412 m 13.99209,0 0,7.50412 m -13.99209,-7.50412 4.49255,-2.56717"
           sodipodi:nodetypes="cccccccccccccccccccccccccccccccccccccccc" />
      </g>
      <rect
         style="opacity:1;fill:#000000;fill-opacity:1;fill-rule:nonzero;stroke:#000000;stroke-width:0.37590846;stroke-miterlimit:4;stroke-dasharray:none;stroke-opacity:1"
         id="rect7701"
         width="13.974902"
         height="24.553614"
         x="221.58398"
         y="936.74799" />
      <rect
         y="936.74799"
         x="221.58398"
         height="24.553614"
         width="13.974902"
         id="rect7703"
         style="opacity:1;fill:#000000;fill-opacity:1;fill-rule:nonzero;stroke:#000000;stroke-width:0.37590846;stroke-miterlimit:4;stroke-dasharray:none;stroke-opacity:1" />
    </g>
    <text
       transform="matrix(0,1,-1,0,0,0)"
       xml:space="preserve"
       style="font-style:normal;font-variant:normal;font-weight:normal;font-stretch:normal;font-size:9.37499809px;line-height:110.00000238%;font-family:FreeSans;-inkscape-font-specification:FreeSans;letter-spacing:-0.49999991px;word-spacing:0px;fill:#000000;fill-opacity:1;stroke:#ffffff;stroke-width:0.23031491;stroke-linecap:butt;stroke-linejoin:miter;stroke-miterlimit:4;stroke-dasharray:none;stroke-opacity:1"
       x="481.52911"
       y="-64.324615"
       id="text7709"
       sodipodi:linespacing="110%"><tspan
         id="tspan7711"
         sodipodi:role="line"
         x="481.52911"
         y="-64.324615"
         style="font-style:normal;font-variant:normal;font-weight:600;font-stretch:normal;font-size:9.37499809px;font-family:FreeSans;-inkscape-font-specification:'FreeSans Semi-Bold';stroke-width:0.23031491">CLK</tspan></text>
    <text
       transform="matrix(0,1,-1,0,0,0)"
       xml:space="preserve"
       style="font-style:normal;font-variant:normal;font-weight:normal;font-stretch:normal;font-size:9.37499809px;line-height:110.00000238%;font-family:FreeSans;-inkscape-font-specification:FreeSans;letter-spacing:-0.49999991px;word-spacing:0px;fill:#000000;fill-opacity:1;stroke:#ffffff;stroke-width:0.23031491;stroke-linecap:butt;stroke-linejoin:miter;stroke-miterlimit:4;stroke-dasharray:none;stroke-opacity:1"
       x="455.10052"
       y="-139.47186"
       id="text7713"
       sodipodi:linespacing="110%"><tspan
         id="tspan7715"
         sodipodi:role="line"
         x="455.10052"
         y="-139.47186"
         style="font-style:normal;font-variant:normal;font-weight:600;font-stretch:normal;font-size:9.37499809px;font-family:FreeSans;-inkscape-font-specification:'FreeSans Semi-Bold';stroke-width:0.23031491">S&amp;H</tspan></text>
    <text
       sodipodi:linespacing="110%"
       id="text7717"
       y="-139.47186"
       x="481.52911"
       style="font-style:normal;font-variant:normal;font-weight:normal;font-stretch:normal;font-size:9.37499809px;line-height:110.00000238%;font-family:FreeSans;-inkscape-font-specification:FreeSans;letter-spacing:-0.49999991px;word-spacing:0px;fill:#000000;fill-opacity:1;stroke:#ffffff;stroke-width:0.23031491;stroke-linecap:butt;stroke-linejoin:miter;stroke-miterlimit:4;stroke-dasharray:none;stroke-opacity:1"
       xml:space="preserve"
       transform="matrix(0,1,-1,0,0,0)"><tspan
         style="font-style:normal;font-variant:normal;font-weight:600;font-stretch:normal;font-size:9.37499809px;font-family:FreeSans;-inkscape-font-specification:'FreeSans Semi-Bold';stroke-width:0.23031491"
         y="-139.47186"
         x="481.52911"
         sodipodi:role="line"
         id="tspan7719">CLK</tspan></text>
    <text
       xml:space="preserve"
       style="font-style:normal;font-variant:normal;font-weight:normal;font-stretch:normal;font-size:10.62499619px;line-height:110.00000238%;font-family:FreeSans;-inkscape-font-specification:FreeSans;text-align:center;letter-spacing:-0.49999979px;word-spacing:0px;text-anchor:middle;fill:#000000;fill-opacity:1;stroke:#ffffff;stroke-width:0.23031487;stroke-linecap:butt;stroke-linejoin:miter;stroke-miterlimit:4;stroke-dasharray:none;stroke-opacity:1"
       x="80.708893"
       y="515.98389"
       id="text7725"
       sodipodi:linespacing="110%"><tspan
         id="tspan7729"
         style="text-align:center;text-anchor:middle;stroke-width:0.23031487"
         sodipodi:role="line"
         x="80.458893"
         y="515.98389">S&amp;H</tspan><tspan
         style="text-align:center;text-anchor:middle;stroke-width:0.23031487"
         sodipodi:role="line"
         x="80.458893"
         y="527.67139"
         id="tspan7743">selected</tspan><tspan
         style="text-align:center;text-anchor:middle;stroke-width:0.23031487"
         sodipodi:role="line"
         x="80.708893"
         y="539.35889"
         id="tspan7731" /><tspan
         style="text-align:center;text-anchor:middle;stroke-width:0.23031487"
         sodipodi:role="line"
         x="80.708893"
         y="551.04639"
         id="tspan7733" /><tspan
         style="font-style:normal;font-variant:normal;font-weight:600;font-stretch:normal;font-family:FreeSans;-inkscape-font-specification:'FreeSans Semi-Bold';text-align:center;text-anchor:middle;stroke-width:0.23031487"
         sodipodi:role="line"
         x="80.708893"
         y="562.73389"
         id="tspan7735" /><tspan
         style="text-align:center;text-anchor:middle;stroke-width:0.23031487"
         sodipodi:role="line"
         x="80.708893"
         y="574.42139"
         id="tspan7737" /><tspan
         style="text-align:center;text-anchor:middle;stroke-width:0.23031487"
         sodipodi:role="line"
         x="80.708893"
         y="586.10889"
         id="tspan7739" /></text>
    <text
       sodipodi:linespacing="110%"
       id="text7745"
       y="515.98389"
       x="155.96524"
       style="font-style:normal;font-variant:normal;font-weight:normal;font-stretch:normal;font-size:10.62499619px;line-height:110.00000238%;font-family:FreeSans;-inkscape-font-specification:FreeSans;text-align:center;letter-spacing:-0.49999979px;word-spacing:0px;text-anchor:middle;fill:#000000;fill-opacity:1;stroke:#ffffff;stroke-width:0.23031487;stroke-linecap:butt;stroke-linejoin:miter;stroke-miterlimit:4;stroke-dasharray:none;stroke-opacity:1"
       xml:space="preserve"><tspan
         y="515.98389"
         x="155.71524"
         sodipodi:role="line"
         style="text-align:center;text-anchor:middle;stroke-width:0.23031487"
         id="tspan7747">Clock</tspan><tspan
         id="tspan7749"
         y="527.67139"
         x="155.71524"
         sodipodi:role="line"
         style="text-align:center;text-anchor:middle;stroke-width:0.23031487">selected</tspan><tspan
         id="tspan7751"
         y="539.35889"
         x="155.96524"
         sodipodi:role="line"
         style="text-align:center;text-anchor:middle;stroke-width:0.23031487" /><tspan
         id="tspan7753"
         y="551.04639"
         x="155.96524"
         sodipodi:role="line"
         style="text-align:center;text-anchor:middle;stroke-width:0.23031487" /><tspan
         id="tspan7755"
         y="562.73389"
         x="155.96524"
         sodipodi:role="line"
         style="font-style:normal;font-variant:normal;font-weight:600;font-stretch:normal;font-family:FreeSans;-inkscape-font-specification:'FreeSans Semi-Bold';text-align:center;text-anchor:middle;stroke-width:0.23031487" /><tspan
         id="tspan7757"
         y="574.42139"
         x="155.96524"
         sodipodi:role="line"
         style="text-align:center;text-anchor:middle;stroke-width:0.23031487" /><tspan
         id="tspan7759"
         y="586.10889"
         x="155.96524"
         sodipodi:role="line"
         style="text-align:center;text-anchor:middle;stroke-width:0.23031487" /></text>
    <path
       inkscape:connector-curvature="0"
       id="path6765"
       style="font-style:normal;font-variant:normal;font-weight:800;font-stretch:normal;font-size:medium;line-height:125%;font-family:'ITC Serif Gothic Std';-inkscape-font-specification:'ITC Serif Gothic Std, Ultra-Bold';text-align:start;letter-spacing:0px;word-spacing:0px;writing-mode:lr-tb;text-anchor:start;display:inline;fill:#000000;fill-opacity:1;stroke:#000000;stroke-width:0.35433066;stroke-linecap:butt;stroke-linejoin:miter;stroke-miterlimit:4;stroke-dasharray:none;stroke-opacity:1"
       d="m 570.24418,139.69798 c -3.45,0 -5.97,2.46 -5.97,5.76 0,1.13711 0.39094,2.12763 1.15077,2.90539 0.13756,0.1408 0.11221,0.30729 -0.0625,0.39789 -2.11741,1.09782 -3.09822,3.43676 -3.09822,5.66671 0,4.35 3.69,7.59 7.98,7.59 4.32,0 7.98,-3.24 7.98,-7.59 0,-2.23044 -0.98125,-4.56991 -3.09961,-5.66743 -0.17402,-0.0902 -0.19926,-0.25591 -0.0623,-0.39604 0.76055,-0.77793 1.15187,-1.76886 1.15187,-2.90652 0,-3.3 -2.51999,-5.76 -5.97,-5.76 z m 0,10.92 c 2.28,0 4.02,1.76999 4.02,3.84 0,2.07 -1.74,3.71999 -4.02,3.71999 -2.28,0 -4.02,-1.64999 -4.02,-3.71999 0,-2.07001 1.74,-3.84 4.02,-3.84 z m 0,-7.38 c 1.26,0 2.25,0.93 2.25,2.09999 0,1.17 -0.99,2.10001 -2.25,2.10001 -1.26,0 -2.25,-0.93001 -2.25,-2.10001 0,-1.16999 0.99,-2.09999 2.25,-2.09999 z"
       inkscape:original-d="m 356.24586,51.13718 c -3.45,0 -5.97,2.46 -5.97,5.76 0,1.26 0.48,2.34 1.41,3.15 -2.34,1.02 -3.42,3.48 -3.42,5.82 0,4.35 3.69,7.59 7.98,7.59 4.32,0 7.98,-3.24 7.98,-7.59 0,-2.34 -1.08,-4.8 -3.42,-5.82 0.93,-0.81 1.41,-1.89 1.41,-3.15 0,-3.3 -2.52,-5.76 -5.97,-5.76 z m 0,10.92 c 2.28,0 4.02,1.77 4.02,3.84 0,2.07 -1.74,3.72 -4.02,3.72 -2.28,0 -4.02,-1.65 -4.02,-3.72 0,-2.07 1.74,-3.84 4.02,-3.84 z m 0,-7.38 c 1.26,0 2.25,0.93 2.25,2.1 0,1.17 -0.99,2.1 -2.25,2.1 -1.26,0 -2.25,-0.93 -2.25,-2.1 0,-1.17 0.99,-2.1 2.25,-2.1 z" />
    <path
       inkscape:connector-curvature="0"
       id="path6767"
       style="font-style:normal;font-variant:normal;font-weight:800;font-stretch:normal;font-size:medium;line-height:125%;font-family:'ITC Serif Gothic Std';-inkscape-font-specification:'ITC Serif Gothic Std, Ultra-Bold';text-align:start;letter-spacing:0px;word-spacing:0px;writing-mode:lr-tb;text-anchor:start;display:inline;fill:#000000;fill-opacity:1;stroke:#000000;stroke-width:0.35433066;stroke-linecap:butt;stroke-linejoin:miter;stroke-miterlimit:4;stroke-dasharray:none;stroke-opacity:1"
       d="m 583.16631,140.6249 -0.98165,9.19646 c -0.0611,0.57251 0.23448,0.71075 0.74031,0.43847 1.12454,-0.60536 2.43639,-0.66185 4.21905,-0.66185 2.36999,0 4.47,1.79999 4.47,4.23 0,2.43 -2.10001,4.23 -4.47,4.23 -1.59715,0 -3.0397,-0.88964 -4.01465,-1.96559 -0.23075,-0.25467 -0.57495,-0.26702 -0.79619,-0.004 l -1.76546,2.09948 c -0.17455,0.20758 -0.18201,0.55028 -0.007,0.75746 0.77253,0.91444 2.91673,3.07257 6.70329,3.07257 4.76999,0 8.30999,-3.63 8.30999,-8.25 0,-4.04999 -3.12,-7.89 -7.04999,-7.89 -0.63899,0 -1.17201,0.0471 -1.64332,0.15603 -0.44651,0.10321 -0.7269,-0.10333 -0.65313,-0.55641 l 0.21813,-1.33996 a 0.49999988,0.49999993 0 0 1 0.49351,-0.41966 l 4.04481,0 1.62999,0 a 0.49999988,0.49999993 0 0 0 0.50001,-0.49999 l 0,-2.54001 a 0.49999988,0.49999993 0 0 0 -0.50001,-0.49999 l -8.95052,0 a 0.49999988,0.49999993 0 0 0 -0.49718,0.44693 z"
       sodipodi:nodetypes="ccsssccsssccsccc"
       inkscape:original-d="m 369.2157,51.61718 -1.14,10.68 c 1.32,-1.17 2.82,-1.26 5.07,-1.26 2.37,0 4.47,1.8 4.47,4.23 0,2.43 -2.1,4.23 -4.47,4.23 -1.83,0 -3.45704,-1.167943 -4.41026,-2.445882 l -2.4821,2.951709 c 0.24562,0.283036 2.42236,3.454173 7.01236,3.454173 4.77,0 8.31,-3.63 8.31,-8.25 0,-4.05 -3.12,-7.89 -7.05,-7.89 -1.02,0 -1.77,0.12 -2.43,0.42 l 0.42,-2.58 4.47,0 2.13,0 0,-3.54 z" />
    <path
       inkscape:connector-curvature="0"
       id="path6769"
       style="font-style:normal;font-variant:normal;font-weight:800;font-stretch:normal;font-size:medium;line-height:125%;font-family:'ITC Serif Gothic Std';-inkscape-font-specification:'ITC Serif Gothic Std, Ultra-Bold';text-align:start;letter-spacing:0px;word-spacing:0px;writing-mode:lr-tb;text-anchor:start;display:inline;fill:#000000;fill-opacity:1;stroke:#000000;stroke-width:0.35433066;stroke-linecap:butt;stroke-linejoin:miter;stroke-miterlimit:4;stroke-dasharray:none;stroke-opacity:1"
       d="m 598.85385,154.09798 c 0,4.16999 3.39,7.91999 8.07,7.91999 4.68,0 8.07,-3.75 8.07,-7.91999 l 0,-6.48 c 0,-4.17 -3.39,-7.92 -8.07,-7.92 -4.68,0 -8.07,3.75 -8.07,7.92 z m 3.84,-6.18001 c 0,-2.49 1.71,-4.37999 4.23,-4.37999 2.52,0 4.23,1.88999 4.23,4.37999 l 0,5.88 c 0,2.49 -1.71,4.38 -4.23,4.38 -2.52,0 -4.23,-1.89 -4.23,-4.38 z" />
  </g>
</svg>
