M48
INCH,TZ
T1C0.018
T2C0.020
T3C0.026
T4C0.028
T5C0.030
T6C0.033
T7C0.039
T8C0.040
T9C0.043
T10C0.047
T11C0.051
%
G90
G05
T1
X24213Y-46358
X24921Y-16732
X25295Y-44390
X25707Y-14293
X26378Y-10827
X26378Y-49803
X26575Y-13386
X26606Y-14193
X26693Y-11417
X26772Y-30709
X27244Y-35315
X27264Y-15551
X27717Y-12441
X27795Y-25669
X28012Y-36004
X28268Y-45039
X28346Y-12913
X28346Y-14468
X28445Y-26772
X28583Y-28150
X28740Y-50591
X29016Y-14449
X29035Y-15846
X29055Y-41575
X29213Y-34882
X29331Y-26772
X29724Y-49114
X29961Y-36299
X30000Y-27087
X30236Y-42579
X30413Y-11614
X30945Y-10965
X31102Y-41929
X31142Y-39291
X31378Y-29961
X31535Y-25945
X31929Y-24882
X32087Y-42579
X32087Y-45039
X32716Y-26063
X32972Y-17421
X32972Y-19094
X33504Y-25433
X33760Y-16240
X33957Y-33760
X34390Y-24776
X34409Y-26772
X34449Y-11593
X34685Y-26063
X34724Y-12047
X34724Y-16969
X34866Y-23744
X34911Y-19882
X35039Y-18012
X35335Y-37303
X35394Y-32913
X35531Y-34252
X35531Y-43406
X36024Y-27264
X36181Y-13031
X36181Y-13543
X36220Y-22244
X36535Y-36614
X36535Y-41496
X36663Y-11575
X36693Y-16969
X36713Y-41949
X36713Y-43445
X36811Y-46181
X37087Y-24134
X37165Y-32953
X37402Y-22677
X37480Y-20315
X37559Y-45236
X37756Y-13740
X37835Y-17874
X37894Y-34154
X37894Y-44783
X37913Y-10965
X37913Y-14724
X37953Y-16417
X37992Y-27264
X38346Y-26772
X38898Y-18898
X38937Y-12343
X38976Y-16043
X39409Y-13622
X39665Y-41142
X40059Y-14764
X40236Y-35394
X40551Y-22815
X40591Y-40157
X40650Y-20079
X40926Y-35453
X40984Y-17126
X41260Y-43701
X41417Y-18622
X41437Y-19291
X41535Y-37303
X41732Y-25472
X42441Y-35276
X42480Y-10965
X42520Y-34252
X42795Y-15472
X42913Y-28307
X43071Y-37402
X43268Y-16772
X43622Y-20472
X43819Y-46260
X43855Y-16382
X43858Y-27402
X43858Y-39287
X44016Y-11063
X44193Y-46260
X44606Y-46260
X44764Y-13071
X44882Y-15256
X44980Y-47539
X45000Y-46260
X45177Y-22835
X45197Y-26102
X45354Y-37402
X45531Y-24882
X45551Y-20315
X45571Y-18307
X45650Y-40197
X45669Y-41201
X45669Y-42126
X46024Y-21417
X46161Y-12598
X46161Y-13583
X46181Y-11535
X46654Y-33740
X46654Y-34134
X46654Y-34528
X46654Y-10945
X47008Y-12126
X47008Y-25315
X47067Y-33740
X47096Y-18831
X47146Y-17224
X47244Y-34370
X47461Y-33740
X47500Y-27854
X47638Y-15157
X47717Y-23031
X48110Y-24921
X48425Y-24409
X48661Y-37953
X48839Y-25906
T3
X26772Y-18988
X26772Y-19988
X30996Y-10236
X30996Y-12205
X30996Y-14173
X30996Y-16142
X31996Y-10236
X31996Y-12205
X31996Y-14173
X31996Y-16142
X40839Y-10236
X40839Y-12205
X40839Y-14173
X40839Y-16142
X41839Y-10236
X41839Y-12205
X41839Y-14173
X41839Y-16142
X46063Y-18988
X46063Y-19988
T5
X27067Y-47933
X29035Y-47933
T6
X28839Y-16732
X32283Y-27953
X47933Y-14173
T7
X42126Y-26791
X43307Y-26791
X44488Y-26791
T8
X30906Y-17898
X30906Y-18898
X30906Y-19898
X47146Y-39209
X47146Y-40209
X47146Y-41209
X47146Y-42209
X47146Y-43209
X48146Y-39209
X48146Y-40209
X48146Y-41209
X48146Y-42209
X48146Y-43209
T9
X25787Y-21850
X25787Y-23819
X27756Y-21850
X27756Y-23819
X45079Y-21850
X45079Y-23819
X47047Y-21850
X47047Y-23819
T10
X48524Y-12106
T11
X24803Y-42323
X25870Y-19727
X26772Y-42323
X27811Y-19402
X28740Y-42323
X29753Y-19077
X41339Y-44882
X43082Y-19077
X43307Y-44882
X45023Y-19402
X45276Y-44882
X46965Y-19727
T2
X26378Y-28780G85X27165Y-28780
G05
X26378Y-32008G85X27165Y-32008
G05
X27165Y-37283G85X26378Y-37283
G05
X27165Y-40512G85X26378Y-40512
G05
X31732Y-49016G85X31732Y-48228
G05
X31890Y-20906G85X32677Y-20906
G05
X31890Y-24134G85X32677Y-24134
G05
X31890Y-28780G85X32677Y-28780
G05
X31890Y-32008G85X32677Y-32008
G05
X32677Y-37283G85X31890Y-37283
G05
X32677Y-40512G85X31890Y-40512
G05
X34961Y-49016G85X34961Y-48228
G05
X37244Y-49016G85X37244Y-48228
G05
X38622Y-31102G85X38622Y-30315
G05
X40472Y-49016G85X40472Y-48228
G05
X40157Y-20906G85X40945Y-20906
G05
X40157Y-24134G85X40945Y-24134
G05
X41850Y-31102G85X41850Y-30315
G05
X44134Y-49016G85X44134Y-48228
G05
X45669Y-28780G85X46457Y-28780
G05
X45669Y-32008G85X46457Y-32008
G05
X47362Y-49016G85X47362Y-48228
G05
T4
X40748Y-26900G85X40748Y-26683
G05
X45866Y-26900G85X45866Y-26683
G05
T7
X24921Y-30413G85X24921Y-31004
G05
X24921Y-38681G85X24921Y-38484
G05
X28622Y-30610G85X28622Y-30807
G05
X28622Y-38878G85X28622Y-38287
G05
X30433Y-22539G85X30433Y-23130
G05
X30433Y-30413G85X30433Y-31004
G05
X30433Y-38681G85X30433Y-38484
G05
X33563Y-46772G85X33760Y-46772
G05
X33366Y-50472G85X33957Y-50472
G05
X34134Y-22736G85X34134Y-22933
G05
X34134Y-30610G85X34134Y-30807
G05
X34134Y-38878G85X34134Y-38287
G05
X38701Y-22539G85X38701Y-23130
G05
X39075Y-46772G85X39272Y-46772
G05
X38878Y-50472G85X39469Y-50472
G05
X40453Y-28858G85X40650Y-28858
G05
X40256Y-32559G85X40846Y-32559
G05
X42402Y-22736G85X42402Y-22933
G05
X44213Y-30413G85X44213Y-31004
G05
X45965Y-46772G85X46161Y-46772
G05
X45768Y-50472G85X46358Y-50472
G05
X47913Y-30610G85X47913Y-30807
G05
T0
M30
