G04 #@! TF.FileFunction,Legend,Top*
%FSLAX46Y46*%
G04 Gerber Fmt 4.6, Leading zero omitted, Abs format (unit mm)*
G04 Created by KiCad (PCBNEW 4.0.2-stable) date 2017-05-29 11:54:06 AM*
%MOMM*%
G01*
G04 APERTURE LIST*
%ADD10C,0.100000*%
%ADD11C,0.150000*%
%ADD12C,0.304800*%
%ADD13C,2.018980*%
%ADD14O,4.020000X2.520000*%
%ADD15O,2.520000X2.020000*%
%ADD16O,1.520000X3.520000*%
%ADD17O,2.520000X4.020000*%
%ADD18O,2.020000X2.520000*%
%ADD19O,3.520000X1.520000*%
%ADD20R,1.220000X1.220000*%
%ADD21C,1.220000*%
%ADD22R,1.747200X1.747200*%
%ADD23O,1.747200X1.747200*%
%ADD24C,2.270000*%
%ADD25R,1.620000X2.820000*%
%ADD26C,1.544000*%
%ADD27C,1.520000*%
%ADD28R,1.544000X1.544000*%
%ADD29R,1.520000X2.020000*%
G04 APERTURE END LIST*
D10*
D11*
X63714286Y-65654762D02*
X63857143Y-65702381D01*
X64095239Y-65702381D01*
X64190477Y-65654762D01*
X64238096Y-65607143D01*
X64285715Y-65511905D01*
X64285715Y-65416667D01*
X64238096Y-65321429D01*
X64190477Y-65273810D01*
X64095239Y-65226190D01*
X63904762Y-65178571D01*
X63809524Y-65130952D01*
X63761905Y-65083333D01*
X63714286Y-64988095D01*
X63714286Y-64892857D01*
X63761905Y-64797619D01*
X63809524Y-64750000D01*
X63904762Y-64702381D01*
X64142858Y-64702381D01*
X64285715Y-64750000D01*
X64904762Y-64702381D02*
X65095239Y-64702381D01*
X65190477Y-64750000D01*
X65285715Y-64845238D01*
X65333334Y-65035714D01*
X65333334Y-65369048D01*
X65285715Y-65559524D01*
X65190477Y-65654762D01*
X65095239Y-65702381D01*
X64904762Y-65702381D01*
X64809524Y-65654762D01*
X64714286Y-65559524D01*
X64666667Y-65369048D01*
X64666667Y-65035714D01*
X64714286Y-64845238D01*
X64809524Y-64750000D01*
X64904762Y-64702381D01*
X65761905Y-64702381D02*
X65761905Y-65511905D01*
X65809524Y-65607143D01*
X65857143Y-65654762D01*
X65952381Y-65702381D01*
X66142858Y-65702381D01*
X66238096Y-65654762D01*
X66285715Y-65607143D01*
X66333334Y-65511905D01*
X66333334Y-64702381D01*
X67380953Y-65702381D02*
X67047619Y-65226190D01*
X66809524Y-65702381D02*
X66809524Y-64702381D01*
X67190477Y-64702381D01*
X67285715Y-64750000D01*
X67333334Y-64797619D01*
X67380953Y-64892857D01*
X67380953Y-65035714D01*
X67333334Y-65130952D01*
X67285715Y-65178571D01*
X67190477Y-65226190D01*
X66809524Y-65226190D01*
X68380953Y-65607143D02*
X68333334Y-65654762D01*
X68190477Y-65702381D01*
X68095239Y-65702381D01*
X67952381Y-65654762D01*
X67857143Y-65559524D01*
X67809524Y-65464286D01*
X67761905Y-65273810D01*
X67761905Y-65130952D01*
X67809524Y-64940476D01*
X67857143Y-64845238D01*
X67952381Y-64750000D01*
X68095239Y-64702381D01*
X68190477Y-64702381D01*
X68333334Y-64750000D01*
X68380953Y-64797619D01*
X68809524Y-65178571D02*
X69142858Y-65178571D01*
X69285715Y-65702381D02*
X68809524Y-65702381D01*
X68809524Y-64702381D01*
X69285715Y-64702381D01*
X117559524Y-65404762D02*
X117702381Y-65452381D01*
X117940477Y-65452381D01*
X118035715Y-65404762D01*
X118083334Y-65357143D01*
X118130953Y-65261905D01*
X118130953Y-65166667D01*
X118083334Y-65071429D01*
X118035715Y-65023810D01*
X117940477Y-64976190D01*
X117750000Y-64928571D01*
X117654762Y-64880952D01*
X117607143Y-64833333D01*
X117559524Y-64738095D01*
X117559524Y-64642857D01*
X117607143Y-64547619D01*
X117654762Y-64500000D01*
X117750000Y-64452381D01*
X117988096Y-64452381D01*
X118130953Y-64500000D01*
X118559524Y-65452381D02*
X118559524Y-64452381D01*
X118559524Y-64928571D02*
X119130953Y-64928571D01*
X119130953Y-65452381D02*
X119130953Y-64452381D01*
X119559524Y-65166667D02*
X120035715Y-65166667D01*
X119464286Y-65452381D02*
X119797619Y-64452381D01*
X120130953Y-65452381D01*
X120464286Y-65452381D02*
X120464286Y-64452381D01*
X120845239Y-64452381D01*
X120940477Y-64500000D01*
X120988096Y-64547619D01*
X121035715Y-64642857D01*
X121035715Y-64785714D01*
X120988096Y-64880952D01*
X120940477Y-64928571D01*
X120845239Y-64976190D01*
X120464286Y-64976190D01*
X121464286Y-64928571D02*
X121797620Y-64928571D01*
X121940477Y-65452381D02*
X121464286Y-65452381D01*
X121464286Y-64452381D01*
X121940477Y-64452381D01*
X119726191Y-128952381D02*
X120297620Y-128952381D01*
X120011905Y-129952381D02*
X120011905Y-128952381D01*
X121202382Y-129952381D02*
X120869048Y-129476190D01*
X120630953Y-129952381D02*
X120630953Y-128952381D01*
X121011906Y-128952381D01*
X121107144Y-129000000D01*
X121154763Y-129047619D01*
X121202382Y-129142857D01*
X121202382Y-129285714D01*
X121154763Y-129380952D01*
X121107144Y-129428571D01*
X121011906Y-129476190D01*
X120630953Y-129476190D01*
X121630953Y-129952381D02*
X121630953Y-128952381D01*
X111071429Y-129904762D02*
X111214286Y-129952381D01*
X111452382Y-129952381D01*
X111547620Y-129904762D01*
X111595239Y-129857143D01*
X111642858Y-129761905D01*
X111642858Y-129666667D01*
X111595239Y-129571429D01*
X111547620Y-129523810D01*
X111452382Y-129476190D01*
X111261905Y-129428571D01*
X111166667Y-129380952D01*
X111119048Y-129333333D01*
X111071429Y-129238095D01*
X111071429Y-129142857D01*
X111119048Y-129047619D01*
X111166667Y-129000000D01*
X111261905Y-128952381D01*
X111500001Y-128952381D01*
X111642858Y-129000000D01*
X112880953Y-129952381D02*
X112833334Y-129952381D01*
X112738096Y-129904762D01*
X112595239Y-129761905D01*
X112357144Y-129476190D01*
X112261905Y-129333333D01*
X112214286Y-129190476D01*
X112214286Y-129095238D01*
X112261905Y-129000000D01*
X112357144Y-128952381D01*
X112404763Y-128952381D01*
X112500001Y-129000000D01*
X112547620Y-129095238D01*
X112547620Y-129142857D01*
X112500001Y-129238095D01*
X112452382Y-129285714D01*
X112166667Y-129476190D01*
X112119048Y-129523810D01*
X112071429Y-129619048D01*
X112071429Y-129761905D01*
X112119048Y-129857143D01*
X112166667Y-129904762D01*
X112261905Y-129952381D01*
X112404763Y-129952381D01*
X112500001Y-129904762D01*
X112547620Y-129857143D01*
X112690477Y-129666667D01*
X112738096Y-129523810D01*
X112738096Y-129428571D01*
X113309524Y-129952381D02*
X113309524Y-128952381D01*
X113309524Y-129428571D02*
X113880953Y-129428571D01*
X113880953Y-129952381D02*
X113880953Y-128952381D01*
X102250000Y-128952381D02*
X102440477Y-128952381D01*
X102535715Y-129000000D01*
X102630953Y-129095238D01*
X102678572Y-129285714D01*
X102678572Y-129619048D01*
X102630953Y-129809524D01*
X102535715Y-129904762D01*
X102440477Y-129952381D01*
X102250000Y-129952381D01*
X102154762Y-129904762D01*
X102059524Y-129809524D01*
X102011905Y-129619048D01*
X102011905Y-129285714D01*
X102059524Y-129095238D01*
X102154762Y-129000000D01*
X102250000Y-128952381D01*
X103107143Y-128952381D02*
X103107143Y-129761905D01*
X103154762Y-129857143D01*
X103202381Y-129904762D01*
X103297619Y-129952381D01*
X103488096Y-129952381D01*
X103583334Y-129904762D01*
X103630953Y-129857143D01*
X103678572Y-129761905D01*
X103678572Y-128952381D01*
X104011905Y-128952381D02*
X104583334Y-128952381D01*
X104297619Y-129952381D02*
X104297619Y-128952381D01*
X89226191Y-129952381D02*
X89226191Y-128952381D01*
X89702381Y-129952381D02*
X89702381Y-128952381D01*
X90273810Y-129952381D01*
X90273810Y-128952381D01*
X80726191Y-105702381D02*
X80726191Y-104702381D01*
X81107144Y-104702381D01*
X81202382Y-104750000D01*
X81250001Y-104797619D01*
X81297620Y-104892857D01*
X81297620Y-105035714D01*
X81250001Y-105130952D01*
X81202382Y-105178571D01*
X81107144Y-105226190D01*
X80726191Y-105226190D01*
X81726191Y-105702381D02*
X81726191Y-104702381D01*
X82202381Y-105702381D02*
X82202381Y-104702381D01*
X82773810Y-105702381D01*
X82773810Y-104702381D01*
X83250000Y-105702381D02*
X83250000Y-104702381D01*
X83821429Y-105702381D02*
X83392857Y-105130952D01*
X83821429Y-104702381D02*
X83250000Y-105273810D01*
X65976191Y-104702381D02*
X66214286Y-105702381D01*
X66404763Y-104988095D01*
X66595239Y-105702381D01*
X66833334Y-104702381D01*
X67214286Y-105702381D02*
X67214286Y-104702381D01*
X67214286Y-105178571D02*
X67785715Y-105178571D01*
X67785715Y-105702381D02*
X67785715Y-104702381D01*
X68261905Y-105702381D02*
X68261905Y-104702381D01*
X68595238Y-104702381D02*
X69166667Y-104702381D01*
X68880952Y-105702381D02*
X68880952Y-104702381D01*
X69500000Y-105178571D02*
X69833334Y-105178571D01*
X69976191Y-105702381D02*
X69500000Y-105702381D01*
X69500000Y-104702381D01*
X69976191Y-104702381D01*
X99261905Y-85702381D02*
X98928571Y-85226190D01*
X98690476Y-85702381D02*
X98690476Y-84702381D01*
X99071429Y-84702381D01*
X99166667Y-84750000D01*
X99214286Y-84797619D01*
X99261905Y-84892857D01*
X99261905Y-85035714D01*
X99214286Y-85130952D01*
X99166667Y-85178571D01*
X99071429Y-85226190D01*
X98690476Y-85226190D01*
X99690476Y-85178571D02*
X100023810Y-85178571D01*
X100166667Y-85702381D02*
X99690476Y-85702381D01*
X99690476Y-84702381D01*
X100166667Y-84702381D01*
X100547619Y-85654762D02*
X100690476Y-85702381D01*
X100928572Y-85702381D01*
X101023810Y-85654762D01*
X101071429Y-85607143D01*
X101119048Y-85511905D01*
X101119048Y-85416667D01*
X101071429Y-85321429D01*
X101023810Y-85273810D01*
X100928572Y-85226190D01*
X100738095Y-85178571D01*
X100642857Y-85130952D01*
X100595238Y-85083333D01*
X100547619Y-84988095D01*
X100547619Y-84892857D01*
X100595238Y-84797619D01*
X100642857Y-84750000D01*
X100738095Y-84702381D01*
X100976191Y-84702381D01*
X101119048Y-84750000D01*
X101547619Y-85178571D02*
X101880953Y-85178571D01*
X102023810Y-85702381D02*
X101547619Y-85702381D01*
X101547619Y-84702381D01*
X102023810Y-84702381D01*
X102309524Y-84702381D02*
X102880953Y-84702381D01*
X102595238Y-85702381D02*
X102595238Y-84702381D01*
X103928572Y-84654762D02*
X103071429Y-85940476D01*
X104785715Y-84750000D02*
X104690477Y-84702381D01*
X104547620Y-84702381D01*
X104404762Y-84750000D01*
X104309524Y-84845238D01*
X104261905Y-84940476D01*
X104214286Y-85130952D01*
X104214286Y-85273810D01*
X104261905Y-85464286D01*
X104309524Y-85559524D01*
X104404762Y-85654762D01*
X104547620Y-85702381D01*
X104642858Y-85702381D01*
X104785715Y-85654762D01*
X104833334Y-85607143D01*
X104833334Y-85273810D01*
X104642858Y-85273810D01*
X105214286Y-85416667D02*
X105690477Y-85416667D01*
X105119048Y-85702381D02*
X105452381Y-84702381D01*
X105785715Y-85702381D01*
X105976191Y-84702381D02*
X106547620Y-84702381D01*
X106261905Y-85702381D02*
X106261905Y-84702381D01*
X106880953Y-85178571D02*
X107214287Y-85178571D01*
X107357144Y-85702381D02*
X106880953Y-85702381D01*
X106880953Y-84702381D01*
X107357144Y-84702381D01*
X114297619Y-84702381D02*
X113821428Y-84702381D01*
X113821428Y-83702381D01*
X114964286Y-84178571D02*
X114630952Y-84178571D01*
X114630952Y-84702381D02*
X114630952Y-83702381D01*
X115107143Y-83702381D01*
X115678571Y-83702381D02*
X115869048Y-83702381D01*
X115964286Y-83750000D01*
X116059524Y-83845238D01*
X116107143Y-84035714D01*
X116107143Y-84369048D01*
X116059524Y-84559524D01*
X115964286Y-84654762D01*
X115869048Y-84702381D01*
X115678571Y-84702381D01*
X115583333Y-84654762D01*
X115488095Y-84559524D01*
X115440476Y-84369048D01*
X115440476Y-84035714D01*
X115488095Y-83845238D01*
X115583333Y-83750000D01*
X115678571Y-83702381D01*
X117488095Y-83702381D02*
X117678572Y-83702381D01*
X117773810Y-83750000D01*
X117869048Y-83845238D01*
X117916667Y-84035714D01*
X117916667Y-84369048D01*
X117869048Y-84559524D01*
X117773810Y-84654762D01*
X117678572Y-84702381D01*
X117488095Y-84702381D01*
X117392857Y-84654762D01*
X117297619Y-84559524D01*
X117250000Y-84369048D01*
X117250000Y-84035714D01*
X117297619Y-83845238D01*
X117392857Y-83750000D01*
X117488095Y-83702381D01*
X118345238Y-83702381D02*
X118345238Y-84511905D01*
X118392857Y-84607143D01*
X118440476Y-84654762D01*
X118535714Y-84702381D01*
X118726191Y-84702381D01*
X118821429Y-84654762D01*
X118869048Y-84607143D01*
X118916667Y-84511905D01*
X118916667Y-83702381D01*
X119250000Y-83702381D02*
X119821429Y-83702381D01*
X119535714Y-84702381D02*
X119535714Y-83702381D01*
X78119047Y-84178571D02*
X78452381Y-84178571D01*
X78595238Y-84702381D02*
X78119047Y-84702381D01*
X78119047Y-83702381D01*
X78595238Y-83702381D01*
X78928571Y-83702381D02*
X79595238Y-84702381D01*
X79595238Y-83702381D02*
X78928571Y-84702381D01*
X79833333Y-83702381D02*
X80404762Y-83702381D01*
X80119047Y-84702381D02*
X80119047Y-83702381D01*
X82071429Y-84607143D02*
X82023810Y-84654762D01*
X81880953Y-84702381D01*
X81785715Y-84702381D01*
X81642857Y-84654762D01*
X81547619Y-84559524D01*
X81500000Y-84464286D01*
X81452381Y-84273810D01*
X81452381Y-84130952D01*
X81500000Y-83940476D01*
X81547619Y-83845238D01*
X81642857Y-83750000D01*
X81785715Y-83702381D01*
X81880953Y-83702381D01*
X82023810Y-83750000D01*
X82071429Y-83797619D01*
X82976191Y-84702381D02*
X82500000Y-84702381D01*
X82500000Y-83702381D01*
X83500000Y-83702381D02*
X83690477Y-83702381D01*
X83785715Y-83750000D01*
X83880953Y-83845238D01*
X83928572Y-84035714D01*
X83928572Y-84369048D01*
X83880953Y-84559524D01*
X83785715Y-84654762D01*
X83690477Y-84702381D01*
X83500000Y-84702381D01*
X83404762Y-84654762D01*
X83309524Y-84559524D01*
X83261905Y-84369048D01*
X83261905Y-84035714D01*
X83309524Y-83845238D01*
X83404762Y-83750000D01*
X83500000Y-83702381D01*
X84928572Y-84607143D02*
X84880953Y-84654762D01*
X84738096Y-84702381D01*
X84642858Y-84702381D01*
X84500000Y-84654762D01*
X84404762Y-84559524D01*
X84357143Y-84464286D01*
X84309524Y-84273810D01*
X84309524Y-84130952D01*
X84357143Y-83940476D01*
X84404762Y-83845238D01*
X84500000Y-83750000D01*
X84642858Y-83702381D01*
X84738096Y-83702381D01*
X84880953Y-83750000D01*
X84928572Y-83797619D01*
X85357143Y-84702381D02*
X85357143Y-83702381D01*
X85928572Y-84702381D02*
X85500000Y-84130952D01*
X85928572Y-83702381D02*
X85357143Y-84273810D01*
X64261905Y-84654762D02*
X64404762Y-84702381D01*
X64642858Y-84702381D01*
X64738096Y-84654762D01*
X64785715Y-84607143D01*
X64833334Y-84511905D01*
X64833334Y-84416667D01*
X64785715Y-84321429D01*
X64738096Y-84273810D01*
X64642858Y-84226190D01*
X64452381Y-84178571D01*
X64357143Y-84130952D01*
X64309524Y-84083333D01*
X64261905Y-83988095D01*
X64261905Y-83892857D01*
X64309524Y-83797619D01*
X64357143Y-83750000D01*
X64452381Y-83702381D01*
X64690477Y-83702381D01*
X64833334Y-83750000D01*
X66071429Y-84702381D02*
X66023810Y-84702381D01*
X65928572Y-84654762D01*
X65785715Y-84511905D01*
X65547620Y-84226190D01*
X65452381Y-84083333D01*
X65404762Y-83940476D01*
X65404762Y-83845238D01*
X65452381Y-83750000D01*
X65547620Y-83702381D01*
X65595239Y-83702381D01*
X65690477Y-83750000D01*
X65738096Y-83845238D01*
X65738096Y-83892857D01*
X65690477Y-83988095D01*
X65642858Y-84035714D01*
X65357143Y-84226190D01*
X65309524Y-84273810D01*
X65261905Y-84369048D01*
X65261905Y-84511905D01*
X65309524Y-84607143D01*
X65357143Y-84654762D01*
X65452381Y-84702381D01*
X65595239Y-84702381D01*
X65690477Y-84654762D01*
X65738096Y-84607143D01*
X65880953Y-84416667D01*
X65928572Y-84273810D01*
X65928572Y-84178571D01*
X66500000Y-84702381D02*
X66500000Y-83702381D01*
X66500000Y-84178571D02*
X67071429Y-84178571D01*
X67071429Y-84702381D02*
X67071429Y-83702381D01*
X68500000Y-83702381D02*
X68690477Y-83702381D01*
X68785715Y-83750000D01*
X68880953Y-83845238D01*
X68928572Y-84035714D01*
X68928572Y-84369048D01*
X68880953Y-84559524D01*
X68785715Y-84654762D01*
X68690477Y-84702381D01*
X68500000Y-84702381D01*
X68404762Y-84654762D01*
X68309524Y-84559524D01*
X68261905Y-84369048D01*
X68261905Y-84035714D01*
X68309524Y-83845238D01*
X68404762Y-83750000D01*
X68500000Y-83702381D01*
X69357143Y-83702381D02*
X69357143Y-84511905D01*
X69404762Y-84607143D01*
X69452381Y-84654762D01*
X69547619Y-84702381D01*
X69738096Y-84702381D01*
X69833334Y-84654762D01*
X69880953Y-84607143D01*
X69928572Y-84511905D01*
X69928572Y-83702381D01*
X70261905Y-83702381D02*
X70833334Y-83702381D01*
X70547619Y-84702381D02*
X70547619Y-83702381D01*
X100107143Y-64178571D02*
X99773809Y-64178571D01*
X99773809Y-64702381D02*
X99773809Y-63702381D01*
X100250000Y-63702381D01*
X101202381Y-64702381D02*
X100869047Y-64226190D01*
X100630952Y-64702381D02*
X100630952Y-63702381D01*
X101011905Y-63702381D01*
X101107143Y-63750000D01*
X101154762Y-63797619D01*
X101202381Y-63892857D01*
X101202381Y-64035714D01*
X101154762Y-64130952D01*
X101107143Y-64178571D01*
X101011905Y-64226190D01*
X100630952Y-64226190D01*
X101630952Y-64178571D02*
X101964286Y-64178571D01*
X102107143Y-64702381D02*
X101630952Y-64702381D01*
X101630952Y-63702381D01*
X102107143Y-63702381D01*
X103202381Y-64797619D02*
X103107143Y-64750000D01*
X103011905Y-64654762D01*
X102869048Y-64511905D01*
X102773809Y-64464286D01*
X102678571Y-64464286D01*
X102726190Y-64702381D02*
X102630952Y-64654762D01*
X102535714Y-64559524D01*
X102488095Y-64369048D01*
X102488095Y-64035714D01*
X102535714Y-63845238D01*
X102630952Y-63750000D01*
X102726190Y-63702381D01*
X102916667Y-63702381D01*
X103011905Y-63750000D01*
X103107143Y-63845238D01*
X103154762Y-64035714D01*
X103154762Y-64369048D01*
X103107143Y-64559524D01*
X103011905Y-64654762D01*
X102916667Y-64702381D01*
X102726190Y-64702381D01*
X104916667Y-64607143D02*
X104869048Y-64654762D01*
X104726191Y-64702381D01*
X104630953Y-64702381D01*
X104488095Y-64654762D01*
X104392857Y-64559524D01*
X104345238Y-64464286D01*
X104297619Y-64273810D01*
X104297619Y-64130952D01*
X104345238Y-63940476D01*
X104392857Y-63845238D01*
X104488095Y-63750000D01*
X104630953Y-63702381D01*
X104726191Y-63702381D01*
X104869048Y-63750000D01*
X104916667Y-63797619D01*
X105202381Y-63702381D02*
X105535714Y-64702381D01*
X105869048Y-63702381D01*
X79785714Y-64428571D02*
X80119048Y-64428571D01*
X80261905Y-64952381D02*
X79785714Y-64952381D01*
X79785714Y-63952381D01*
X80261905Y-63952381D01*
X80595238Y-63952381D02*
X81261905Y-64952381D01*
X81261905Y-63952381D02*
X80595238Y-64952381D01*
X81500000Y-63952381D02*
X82071429Y-63952381D01*
X81785714Y-64952381D02*
X81785714Y-63952381D01*
X83166667Y-64952381D02*
X83166667Y-63952381D01*
X83642857Y-64952381D02*
X83642857Y-63952381D01*
X84214286Y-64952381D01*
X84214286Y-63952381D01*
X111895524Y-45826570D02*
X111400382Y-48785427D01*
X111400382Y-48785427D02*
X107455239Y-48125236D01*
X116826952Y-46651808D02*
X116331810Y-49610665D01*
X116331810Y-49610665D02*
X112386667Y-48950474D01*
X112386667Y-48950474D02*
X112881810Y-45991618D01*
X121263238Y-50435903D02*
X117318095Y-49775712D01*
X117318095Y-49775712D02*
X117813238Y-46816856D01*
X107950382Y-45166380D02*
X121758380Y-47477046D01*
X121263238Y-50435903D02*
X123078761Y-39586761D01*
X107455239Y-48125236D02*
X109270763Y-37276095D01*
X120000000Y-33500000D02*
G75*
G03X120000000Y-33500000I-3000000J0D01*
G01*
X125500000Y-33500000D02*
G75*
G03X125500000Y-33500000I-8500000J0D01*
G01*
X105915476Y-78000000D02*
G75*
G03X105915476Y-78000000I-2915476J0D01*
G01*
X108000000Y-73000000D02*
X108000000Y-83000000D01*
X108000000Y-83000000D02*
X97000000Y-83000000D01*
X97000000Y-83000000D02*
X97000000Y-73000000D01*
X97000000Y-73000000D02*
X108000000Y-73000000D01*
X105000000Y-78000000D02*
G75*
G03X105000000Y-78000000I-2000000J0D01*
G01*
X84915476Y-98000000D02*
G75*
G03X84915476Y-98000000I-2915476J0D01*
G01*
X77000000Y-93000000D02*
X87000000Y-93000000D01*
X87000000Y-93000000D02*
X87000000Y-104000000D01*
X87000000Y-104000000D02*
X77000000Y-104000000D01*
X77000000Y-104000000D02*
X77000000Y-93000000D01*
X84000000Y-98000000D02*
G75*
G03X84000000Y-98000000I-2000000J0D01*
G01*
X68000000Y-48200000D02*
X68000000Y-48000000D01*
X68000000Y-50700000D02*
X68000000Y-51000000D01*
X68000000Y-49100000D02*
X68000000Y-48200000D01*
X68000000Y-50700000D02*
X68000000Y-49800000D01*
X67500000Y-49100000D02*
X68500000Y-49100000D01*
X67500000Y-49800000D02*
X68500000Y-49800000D01*
X68500000Y-49800000D02*
X68000000Y-49100000D01*
X68000000Y-49100000D02*
X67500000Y-49800000D01*
X69500000Y-49500000D02*
G75*
G03X69500000Y-49500000I-1500000J0D01*
G01*
X117000000Y-48200000D02*
X117000000Y-48000000D01*
X117000000Y-50700000D02*
X117000000Y-51000000D01*
X117000000Y-49100000D02*
X117000000Y-48200000D01*
X117000000Y-50700000D02*
X117000000Y-49800000D01*
X116500000Y-49100000D02*
X117500000Y-49100000D01*
X116500000Y-49800000D02*
X117500000Y-49800000D01*
X117500000Y-49800000D02*
X117000000Y-49100000D01*
X117000000Y-49100000D02*
X116500000Y-49800000D01*
X118500000Y-49500000D02*
G75*
G03X118500000Y-49500000I-1500000J0D01*
G01*
X78700000Y-26000000D02*
X78500000Y-26000000D01*
X81200000Y-26000000D02*
X81500000Y-26000000D01*
X79600000Y-26000000D02*
X78700000Y-26000000D01*
X81200000Y-26000000D02*
X80300000Y-26000000D01*
X79600000Y-26500000D02*
X79600000Y-25500000D01*
X80300000Y-26500000D02*
X80300000Y-25500000D01*
X80300000Y-25500000D02*
X79600000Y-26000000D01*
X79600000Y-26000000D02*
X80300000Y-26500000D01*
X81500000Y-26000000D02*
G75*
G03X81500000Y-26000000I-1500000J0D01*
G01*
X78700000Y-31000000D02*
X78500000Y-31000000D01*
X81200000Y-31000000D02*
X81500000Y-31000000D01*
X79600000Y-31000000D02*
X78700000Y-31000000D01*
X81200000Y-31000000D02*
X80300000Y-31000000D01*
X79600000Y-31500000D02*
X79600000Y-30500000D01*
X80300000Y-31500000D02*
X80300000Y-30500000D01*
X80300000Y-30500000D02*
X79600000Y-31000000D01*
X79600000Y-31000000D02*
X80300000Y-31500000D01*
X81500000Y-31000000D02*
G75*
G03X81500000Y-31000000I-1500000J0D01*
G01*
X78700000Y-36000000D02*
X78500000Y-36000000D01*
X81200000Y-36000000D02*
X81500000Y-36000000D01*
X79600000Y-36000000D02*
X78700000Y-36000000D01*
X81200000Y-36000000D02*
X80300000Y-36000000D01*
X79600000Y-36500000D02*
X79600000Y-35500000D01*
X80300000Y-36500000D02*
X80300000Y-35500000D01*
X80300000Y-35500000D02*
X79600000Y-36000000D01*
X79600000Y-36000000D02*
X80300000Y-36500000D01*
X81500000Y-36000000D02*
G75*
G03X81500000Y-36000000I-1500000J0D01*
G01*
X78700000Y-41000000D02*
X78500000Y-41000000D01*
X81200000Y-41000000D02*
X81500000Y-41000000D01*
X79600000Y-41000000D02*
X78700000Y-41000000D01*
X81200000Y-41000000D02*
X80300000Y-41000000D01*
X79600000Y-41500000D02*
X79600000Y-40500000D01*
X80300000Y-41500000D02*
X80300000Y-40500000D01*
X80300000Y-40500000D02*
X79600000Y-41000000D01*
X79600000Y-41000000D02*
X80300000Y-41500000D01*
X81500000Y-41000000D02*
G75*
G03X81500000Y-41000000I-1500000J0D01*
G01*
X103700000Y-26000000D02*
X103500000Y-26000000D01*
X106200000Y-26000000D02*
X106500000Y-26000000D01*
X104600000Y-26000000D02*
X103700000Y-26000000D01*
X106200000Y-26000000D02*
X105300000Y-26000000D01*
X104600000Y-26500000D02*
X104600000Y-25500000D01*
X105300000Y-26500000D02*
X105300000Y-25500000D01*
X105300000Y-25500000D02*
X104600000Y-26000000D01*
X104600000Y-26000000D02*
X105300000Y-26500000D01*
X106500000Y-26000000D02*
G75*
G03X106500000Y-26000000I-1500000J0D01*
G01*
X103700000Y-31000000D02*
X103500000Y-31000000D01*
X106200000Y-31000000D02*
X106500000Y-31000000D01*
X104600000Y-31000000D02*
X103700000Y-31000000D01*
X106200000Y-31000000D02*
X105300000Y-31000000D01*
X104600000Y-31500000D02*
X104600000Y-30500000D01*
X105300000Y-31500000D02*
X105300000Y-30500000D01*
X105300000Y-30500000D02*
X104600000Y-31000000D01*
X104600000Y-31000000D02*
X105300000Y-31500000D01*
X106500000Y-31000000D02*
G75*
G03X106500000Y-31000000I-1500000J0D01*
G01*
X103700000Y-36000000D02*
X103500000Y-36000000D01*
X106200000Y-36000000D02*
X106500000Y-36000000D01*
X104600000Y-36000000D02*
X103700000Y-36000000D01*
X106200000Y-36000000D02*
X105300000Y-36000000D01*
X104600000Y-36500000D02*
X104600000Y-35500000D01*
X105300000Y-36500000D02*
X105300000Y-35500000D01*
X105300000Y-35500000D02*
X104600000Y-36000000D01*
X104600000Y-36000000D02*
X105300000Y-36500000D01*
X106500000Y-36000000D02*
G75*
G03X106500000Y-36000000I-1500000J0D01*
G01*
X103700000Y-41000000D02*
X103500000Y-41000000D01*
X106200000Y-41000000D02*
X106500000Y-41000000D01*
X104600000Y-41000000D02*
X103700000Y-41000000D01*
X106200000Y-41000000D02*
X105300000Y-41000000D01*
X104600000Y-41500000D02*
X104600000Y-40500000D01*
X105300000Y-41500000D02*
X105300000Y-40500000D01*
X105300000Y-40500000D02*
X104600000Y-41000000D01*
X104600000Y-41000000D02*
X105300000Y-41500000D01*
X106500000Y-41000000D02*
G75*
G03X106500000Y-41000000I-1500000J0D01*
G01*
X105915476Y-58000000D02*
G75*
G03X105915476Y-58000000I-2915476J0D01*
G01*
X108000000Y-63000000D02*
X98000000Y-63000000D01*
X98000000Y-63000000D02*
X98000000Y-52000000D01*
X98000000Y-52000000D02*
X108000000Y-52000000D01*
X108000000Y-52000000D02*
X108000000Y-63000000D01*
X105000000Y-58000000D02*
G75*
G03X105000000Y-58000000I-2000000J0D01*
G01*
X70915476Y-98000000D02*
G75*
G03X70915476Y-98000000I-2915476J0D01*
G01*
X63000000Y-93000000D02*
X73000000Y-93000000D01*
X73000000Y-93000000D02*
X73000000Y-104000000D01*
X73000000Y-104000000D02*
X63000000Y-104000000D01*
X63000000Y-104000000D02*
X63000000Y-93000000D01*
X70000000Y-98000000D02*
G75*
G03X70000000Y-98000000I-2000000J0D01*
G01*
X119915476Y-78000000D02*
G75*
G03X119915476Y-78000000I-2915476J0D01*
G01*
X122000000Y-83000000D02*
X112000000Y-83000000D01*
X112000000Y-83000000D02*
X112000000Y-72000000D01*
X112000000Y-72000000D02*
X122000000Y-72000000D01*
X122000000Y-72000000D02*
X122000000Y-83000000D01*
X119000000Y-78000000D02*
G75*
G03X119000000Y-78000000I-2000000J0D01*
G01*
X84915476Y-78000000D02*
G75*
G03X84915476Y-78000000I-2915476J0D01*
G01*
X87000000Y-83000000D02*
X77000000Y-83000000D01*
X77000000Y-83000000D02*
X77000000Y-72000000D01*
X77000000Y-72000000D02*
X87000000Y-72000000D01*
X87000000Y-72000000D02*
X87000000Y-83000000D01*
X84000000Y-78000000D02*
G75*
G03X84000000Y-78000000I-2000000J0D01*
G01*
X84915476Y-58000000D02*
G75*
G03X84915476Y-58000000I-2915476J0D01*
G01*
X87000000Y-63000000D02*
X77000000Y-63000000D01*
X77000000Y-63000000D02*
X77000000Y-52000000D01*
X77000000Y-52000000D02*
X87000000Y-52000000D01*
X87000000Y-52000000D02*
X87000000Y-63000000D01*
X84000000Y-58000000D02*
G75*
G03X84000000Y-58000000I-2000000J0D01*
G01*
X70915476Y-78000000D02*
G75*
G03X70915476Y-78000000I-2915476J0D01*
G01*
X73000000Y-83000000D02*
X63000000Y-83000000D01*
X63000000Y-83000000D02*
X63000000Y-72000000D01*
X63000000Y-72000000D02*
X73000000Y-72000000D01*
X73000000Y-72000000D02*
X73000000Y-83000000D01*
X70000000Y-78000000D02*
G75*
G03X70000000Y-78000000I-2000000J0D01*
G01*
X88415476Y-123500000D02*
G75*
G03X88415476Y-123500000I-2915476J0D01*
G01*
X90500000Y-118500000D02*
X90500000Y-128500000D01*
X90500000Y-128500000D02*
X79500000Y-128500000D01*
X79500000Y-128500000D02*
X79500000Y-118500000D01*
X79500000Y-118500000D02*
X90500000Y-118500000D01*
X87500000Y-123500000D02*
G75*
G03X87500000Y-123500000I-2000000J0D01*
G01*
X102415476Y-123500000D02*
G75*
G03X102415476Y-123500000I-2915476J0D01*
G01*
X104500000Y-118500000D02*
X104500000Y-128500000D01*
X104500000Y-128500000D02*
X93500000Y-128500000D01*
X93500000Y-128500000D02*
X93500000Y-118500000D01*
X93500000Y-118500000D02*
X104500000Y-118500000D01*
X101500000Y-123500000D02*
G75*
G03X101500000Y-123500000I-2000000J0D01*
G01*
X119915476Y-123500000D02*
G75*
G03X119915476Y-123500000I-2915476J0D01*
G01*
X122000000Y-118500000D02*
X122000000Y-128500000D01*
X122000000Y-128500000D02*
X111000000Y-128500000D01*
X111000000Y-128500000D02*
X111000000Y-118500000D01*
X111000000Y-118500000D02*
X122000000Y-118500000D01*
X119000000Y-123500000D02*
G75*
G03X119000000Y-123500000I-2000000J0D01*
G01*
X70500000Y-52500000D02*
G75*
G03X62500000Y-55500000I-2500000J-5500000D01*
G01*
X73500000Y-55500000D02*
G75*
G03X65500000Y-52500000I-5500000J-2500000D01*
G01*
X70500000Y-63500000D02*
G75*
G03X73500000Y-55500000I-2500000J5500000D01*
G01*
X62500000Y-55500000D02*
G75*
G03X65500000Y-63500000I5500000J-2500000D01*
G01*
X70500000Y-63500000D02*
X65500000Y-63500000D01*
X72500000Y-58000000D02*
G75*
G03X72500000Y-58000000I-4500000J0D01*
G01*
X114500000Y-63500000D02*
G75*
G03X122500000Y-60500000I2500000J5500000D01*
G01*
X111500000Y-60500000D02*
G75*
G03X119500000Y-63500000I5500000J2500000D01*
G01*
X114500000Y-52500000D02*
G75*
G03X111500000Y-60500000I2500000J-5500000D01*
G01*
X122500000Y-60500000D02*
G75*
G03X119500000Y-52500000I-5500000J2500000D01*
G01*
X114500000Y-52500000D02*
X119500000Y-52500000D01*
X121500000Y-58000000D02*
G75*
G03X121500000Y-58000000I-4500000J0D01*
G01*
X107000000Y-111000000D02*
X107000000Y-114000000D01*
X107000000Y-114000000D02*
X103000000Y-114000000D01*
X112000000Y-111000000D02*
X112000000Y-114000000D01*
X112000000Y-114000000D02*
X108000000Y-114000000D01*
X108000000Y-114000000D02*
X108000000Y-111000000D01*
X117000000Y-114000000D02*
X113000000Y-114000000D01*
X113000000Y-114000000D02*
X113000000Y-111000000D01*
X103000000Y-111000000D02*
X117000000Y-111000000D01*
X117000000Y-114000000D02*
X117000000Y-103000000D01*
X103000000Y-114000000D02*
X103000000Y-103000000D01*
X113000000Y-98000000D02*
G75*
G03X113000000Y-98000000I-3000000J0D01*
G01*
X118500000Y-98000000D02*
G75*
G03X118500000Y-98000000I-8500000J0D01*
G01*
X67186762Y-46816856D02*
X67681905Y-49775712D01*
X67681905Y-49775712D02*
X63736762Y-50435903D01*
X72118190Y-45991618D02*
X72613333Y-48950474D01*
X72613333Y-48950474D02*
X68668190Y-49610665D01*
X68668190Y-49610665D02*
X68173048Y-46651808D01*
X77544761Y-48125236D02*
X73599618Y-48785427D01*
X73599618Y-48785427D02*
X73104476Y-45826570D01*
X63241620Y-47477046D02*
X77049618Y-45166380D01*
X77544761Y-48125236D02*
X75729237Y-37276095D01*
X63736762Y-50435903D02*
X61921239Y-39586761D01*
X71000000Y-33500000D02*
G75*
G03X71000000Y-33500000I-3000000J0D01*
G01*
X76500000Y-33500000D02*
G75*
G03X76500000Y-33500000I-8500000J0D01*
G01*
X71000000Y-110500000D02*
X71000000Y-107500000D01*
X71000000Y-107500000D02*
X75000000Y-107500000D01*
X66000000Y-110500000D02*
X66000000Y-107500000D01*
X66000000Y-107500000D02*
X70000000Y-107500000D01*
X70000000Y-107500000D02*
X70000000Y-110500000D01*
X61000000Y-107500000D02*
X65000000Y-107500000D01*
X65000000Y-107500000D02*
X65000000Y-110500000D01*
X75000000Y-110500000D02*
X61000000Y-110500000D01*
X61000000Y-107500000D02*
X61000000Y-118500000D01*
X75000000Y-107500000D02*
X75000000Y-118500000D01*
X71000000Y-123500000D02*
G75*
G03X71000000Y-123500000I-3000000J0D01*
G01*
X76500000Y-123500000D02*
G75*
G03X76500000Y-123500000I-8500000J0D01*
G01*
X111000000Y-69550000D02*
X111000000Y-66550000D01*
X112000000Y-69550000D02*
X112000000Y-66550000D01*
X110000000Y-68050000D02*
X110000000Y-69550000D01*
X110000000Y-69550000D02*
X113000000Y-69550000D01*
X113000000Y-69550000D02*
X113000000Y-66550000D01*
X113000000Y-66550000D02*
X110000000Y-66550000D01*
X110000000Y-66550000D02*
X110000000Y-68050000D01*
X110000000Y-70850000D02*
X103300000Y-70850000D01*
X103250000Y-70850000D02*
X103250000Y-65250000D01*
X103300000Y-65250000D02*
X116700000Y-65250000D01*
X116750000Y-65250000D02*
X116750000Y-70850000D01*
X116700000Y-70850000D02*
X110000000Y-70850000D01*
D12*
X115169400Y-32347487D02*
X115418900Y-33934430D01*
X116171466Y-32515175D01*
X117279880Y-34245851D02*
X116898625Y-33446245D01*
X116420967Y-34102119D02*
X116672499Y-32599019D01*
X117245109Y-32694841D01*
X117376283Y-32790372D01*
X117435882Y-32873926D01*
X117483502Y-33029056D01*
X117447569Y-33243785D01*
X117352038Y-33374959D01*
X117268483Y-33434558D01*
X117113354Y-33482178D01*
X116540744Y-33386356D01*
X118711404Y-34485406D02*
X117852490Y-34341674D01*
X118281947Y-34413540D02*
X118533479Y-32910441D01*
X118354393Y-33101213D01*
X118187287Y-33220410D01*
X118032156Y-33268031D01*
D11*
X106250000Y-80928571D02*
X106250000Y-82000000D01*
X106178572Y-82214286D01*
X106035715Y-82357143D01*
X105821429Y-82428571D01*
X105678572Y-82428571D01*
X106892857Y-81071429D02*
X106964286Y-81000000D01*
X107107143Y-80928571D01*
X107464286Y-80928571D01*
X107607143Y-81000000D01*
X107678572Y-81071429D01*
X107750000Y-81214286D01*
X107750000Y-81357143D01*
X107678572Y-81571429D01*
X106821429Y-82428571D01*
X107750000Y-82428571D01*
X85000000Y-102178571D02*
X85000000Y-103250000D01*
X84928572Y-103464286D01*
X84785715Y-103607143D01*
X84571429Y-103678571D01*
X84428572Y-103678571D01*
X85571429Y-102178571D02*
X86500000Y-102178571D01*
X86000000Y-102750000D01*
X86214286Y-102750000D01*
X86357143Y-102821429D01*
X86428572Y-102892857D01*
X86500000Y-103035714D01*
X86500000Y-103392857D01*
X86428572Y-103535714D01*
X86357143Y-103607143D01*
X86214286Y-103678571D01*
X85785714Y-103678571D01*
X85642857Y-103607143D01*
X85571429Y-103535714D01*
X69400077Y-51617695D02*
X69400077Y-50804895D01*
X69593601Y-50804895D01*
X69709715Y-50843600D01*
X69787124Y-50921010D01*
X69825829Y-50998419D01*
X69864534Y-51153238D01*
X69864534Y-51269352D01*
X69825829Y-51424171D01*
X69787124Y-51501581D01*
X69709715Y-51578990D01*
X69593601Y-51617695D01*
X69400077Y-51617695D01*
X70251582Y-51617695D02*
X70406401Y-51617695D01*
X70483810Y-51578990D01*
X70522515Y-51540286D01*
X70599924Y-51424171D01*
X70638629Y-51269352D01*
X70638629Y-50959714D01*
X70599924Y-50882305D01*
X70561220Y-50843600D01*
X70483810Y-50804895D01*
X70328991Y-50804895D01*
X70251582Y-50843600D01*
X70212877Y-50882305D01*
X70174172Y-50959714D01*
X70174172Y-51153238D01*
X70212877Y-51230648D01*
X70251582Y-51269352D01*
X70328991Y-51308057D01*
X70483810Y-51308057D01*
X70561220Y-51269352D01*
X70599924Y-51230648D01*
X70638629Y-51153238D01*
X113763029Y-51867695D02*
X113763029Y-51054895D01*
X113956553Y-51054895D01*
X114072667Y-51093600D01*
X114150076Y-51171010D01*
X114188781Y-51248419D01*
X114227486Y-51403238D01*
X114227486Y-51519352D01*
X114188781Y-51674171D01*
X114150076Y-51751581D01*
X114072667Y-51828990D01*
X113956553Y-51867695D01*
X113763029Y-51867695D01*
X115001581Y-51867695D02*
X114537124Y-51867695D01*
X114769353Y-51867695D02*
X114769353Y-51054895D01*
X114691943Y-51171010D01*
X114614534Y-51248419D01*
X114537124Y-51287124D01*
X115504743Y-51054895D02*
X115582152Y-51054895D01*
X115659562Y-51093600D01*
X115698267Y-51132305D01*
X115736971Y-51209714D01*
X115775676Y-51364533D01*
X115775676Y-51558057D01*
X115736971Y-51712876D01*
X115698267Y-51790286D01*
X115659562Y-51828990D01*
X115582152Y-51867695D01*
X115504743Y-51867695D01*
X115427333Y-51828990D01*
X115388629Y-51790286D01*
X115349924Y-51712876D01*
X115311219Y-51558057D01*
X115311219Y-51364533D01*
X115349924Y-51209714D01*
X115388629Y-51132305D01*
X115427333Y-51093600D01*
X115504743Y-51054895D01*
X79013029Y-28867695D02*
X79013029Y-28054895D01*
X79206553Y-28054895D01*
X79322667Y-28093600D01*
X79400076Y-28171010D01*
X79438781Y-28248419D01*
X79477486Y-28403238D01*
X79477486Y-28519352D01*
X79438781Y-28674171D01*
X79400076Y-28751581D01*
X79322667Y-28828990D01*
X79206553Y-28867695D01*
X79013029Y-28867695D01*
X80251581Y-28867695D02*
X79787124Y-28867695D01*
X80019353Y-28867695D02*
X80019353Y-28054895D01*
X79941943Y-28171010D01*
X79864534Y-28248419D01*
X79787124Y-28287124D01*
X80522514Y-28054895D02*
X81025676Y-28054895D01*
X80754743Y-28364533D01*
X80870857Y-28364533D01*
X80948267Y-28403238D01*
X80986971Y-28441943D01*
X81025676Y-28519352D01*
X81025676Y-28712876D01*
X80986971Y-28790286D01*
X80948267Y-28828990D01*
X80870857Y-28867695D01*
X80638629Y-28867695D01*
X80561219Y-28828990D01*
X80522514Y-28790286D01*
X79013029Y-33867695D02*
X79013029Y-33054895D01*
X79206553Y-33054895D01*
X79322667Y-33093600D01*
X79400076Y-33171010D01*
X79438781Y-33248419D01*
X79477486Y-33403238D01*
X79477486Y-33519352D01*
X79438781Y-33674171D01*
X79400076Y-33751581D01*
X79322667Y-33828990D01*
X79206553Y-33867695D01*
X79013029Y-33867695D01*
X80251581Y-33867695D02*
X79787124Y-33867695D01*
X80019353Y-33867695D02*
X80019353Y-33054895D01*
X79941943Y-33171010D01*
X79864534Y-33248419D01*
X79787124Y-33287124D01*
X80948267Y-33325829D02*
X80948267Y-33867695D01*
X80754743Y-33016190D02*
X80561219Y-33596762D01*
X81064381Y-33596762D01*
X79013029Y-38867695D02*
X79013029Y-38054895D01*
X79206553Y-38054895D01*
X79322667Y-38093600D01*
X79400076Y-38171010D01*
X79438781Y-38248419D01*
X79477486Y-38403238D01*
X79477486Y-38519352D01*
X79438781Y-38674171D01*
X79400076Y-38751581D01*
X79322667Y-38828990D01*
X79206553Y-38867695D01*
X79013029Y-38867695D01*
X80251581Y-38867695D02*
X79787124Y-38867695D01*
X80019353Y-38867695D02*
X80019353Y-38054895D01*
X79941943Y-38171010D01*
X79864534Y-38248419D01*
X79787124Y-38287124D01*
X80986971Y-38054895D02*
X80599924Y-38054895D01*
X80561219Y-38441943D01*
X80599924Y-38403238D01*
X80677333Y-38364533D01*
X80870857Y-38364533D01*
X80948267Y-38403238D01*
X80986971Y-38441943D01*
X81025676Y-38519352D01*
X81025676Y-38712876D01*
X80986971Y-38790286D01*
X80948267Y-38828990D01*
X80870857Y-38867695D01*
X80677333Y-38867695D01*
X80599924Y-38828990D01*
X80561219Y-38790286D01*
X79013029Y-43867695D02*
X79013029Y-43054895D01*
X79206553Y-43054895D01*
X79322667Y-43093600D01*
X79400076Y-43171010D01*
X79438781Y-43248419D01*
X79477486Y-43403238D01*
X79477486Y-43519352D01*
X79438781Y-43674171D01*
X79400076Y-43751581D01*
X79322667Y-43828990D01*
X79206553Y-43867695D01*
X79013029Y-43867695D01*
X80251581Y-43867695D02*
X79787124Y-43867695D01*
X80019353Y-43867695D02*
X80019353Y-43054895D01*
X79941943Y-43171010D01*
X79864534Y-43248419D01*
X79787124Y-43287124D01*
X80948267Y-43054895D02*
X80793448Y-43054895D01*
X80716038Y-43093600D01*
X80677333Y-43132305D01*
X80599924Y-43248419D01*
X80561219Y-43403238D01*
X80561219Y-43712876D01*
X80599924Y-43790286D01*
X80638629Y-43828990D01*
X80716038Y-43867695D01*
X80870857Y-43867695D01*
X80948267Y-43828990D01*
X80986971Y-43790286D01*
X81025676Y-43712876D01*
X81025676Y-43519352D01*
X80986971Y-43441943D01*
X80948267Y-43403238D01*
X80870857Y-43364533D01*
X80716038Y-43364533D01*
X80638629Y-43403238D01*
X80599924Y-43441943D01*
X80561219Y-43519352D01*
X104013029Y-28867695D02*
X104013029Y-28054895D01*
X104206553Y-28054895D01*
X104322667Y-28093600D01*
X104400076Y-28171010D01*
X104438781Y-28248419D01*
X104477486Y-28403238D01*
X104477486Y-28519352D01*
X104438781Y-28674171D01*
X104400076Y-28751581D01*
X104322667Y-28828990D01*
X104206553Y-28867695D01*
X104013029Y-28867695D01*
X105251581Y-28867695D02*
X104787124Y-28867695D01*
X105019353Y-28867695D02*
X105019353Y-28054895D01*
X104941943Y-28171010D01*
X104864534Y-28248419D01*
X104787124Y-28287124D01*
X105522514Y-28054895D02*
X106064381Y-28054895D01*
X105716038Y-28867695D01*
X104013029Y-33867695D02*
X104013029Y-33054895D01*
X104206553Y-33054895D01*
X104322667Y-33093600D01*
X104400076Y-33171010D01*
X104438781Y-33248419D01*
X104477486Y-33403238D01*
X104477486Y-33519352D01*
X104438781Y-33674171D01*
X104400076Y-33751581D01*
X104322667Y-33828990D01*
X104206553Y-33867695D01*
X104013029Y-33867695D01*
X105251581Y-33867695D02*
X104787124Y-33867695D01*
X105019353Y-33867695D02*
X105019353Y-33054895D01*
X104941943Y-33171010D01*
X104864534Y-33248419D01*
X104787124Y-33287124D01*
X105716038Y-33403238D02*
X105638629Y-33364533D01*
X105599924Y-33325829D01*
X105561219Y-33248419D01*
X105561219Y-33209714D01*
X105599924Y-33132305D01*
X105638629Y-33093600D01*
X105716038Y-33054895D01*
X105870857Y-33054895D01*
X105948267Y-33093600D01*
X105986971Y-33132305D01*
X106025676Y-33209714D01*
X106025676Y-33248419D01*
X105986971Y-33325829D01*
X105948267Y-33364533D01*
X105870857Y-33403238D01*
X105716038Y-33403238D01*
X105638629Y-33441943D01*
X105599924Y-33480648D01*
X105561219Y-33558057D01*
X105561219Y-33712876D01*
X105599924Y-33790286D01*
X105638629Y-33828990D01*
X105716038Y-33867695D01*
X105870857Y-33867695D01*
X105948267Y-33828990D01*
X105986971Y-33790286D01*
X106025676Y-33712876D01*
X106025676Y-33558057D01*
X105986971Y-33480648D01*
X105948267Y-33441943D01*
X105870857Y-33403238D01*
X104013029Y-38867695D02*
X104013029Y-38054895D01*
X104206553Y-38054895D01*
X104322667Y-38093600D01*
X104400076Y-38171010D01*
X104438781Y-38248419D01*
X104477486Y-38403238D01*
X104477486Y-38519352D01*
X104438781Y-38674171D01*
X104400076Y-38751581D01*
X104322667Y-38828990D01*
X104206553Y-38867695D01*
X104013029Y-38867695D01*
X105251581Y-38867695D02*
X104787124Y-38867695D01*
X105019353Y-38867695D02*
X105019353Y-38054895D01*
X104941943Y-38171010D01*
X104864534Y-38248419D01*
X104787124Y-38287124D01*
X105638629Y-38867695D02*
X105793448Y-38867695D01*
X105870857Y-38828990D01*
X105909562Y-38790286D01*
X105986971Y-38674171D01*
X106025676Y-38519352D01*
X106025676Y-38209714D01*
X105986971Y-38132305D01*
X105948267Y-38093600D01*
X105870857Y-38054895D01*
X105716038Y-38054895D01*
X105638629Y-38093600D01*
X105599924Y-38132305D01*
X105561219Y-38209714D01*
X105561219Y-38403238D01*
X105599924Y-38480648D01*
X105638629Y-38519352D01*
X105716038Y-38558057D01*
X105870857Y-38558057D01*
X105948267Y-38519352D01*
X105986971Y-38480648D01*
X106025676Y-38403238D01*
X104013029Y-43867695D02*
X104013029Y-43054895D01*
X104206553Y-43054895D01*
X104322667Y-43093600D01*
X104400076Y-43171010D01*
X104438781Y-43248419D01*
X104477486Y-43403238D01*
X104477486Y-43519352D01*
X104438781Y-43674171D01*
X104400076Y-43751581D01*
X104322667Y-43828990D01*
X104206553Y-43867695D01*
X104013029Y-43867695D01*
X104787124Y-43132305D02*
X104825829Y-43093600D01*
X104903238Y-43054895D01*
X105096762Y-43054895D01*
X105174172Y-43093600D01*
X105212876Y-43132305D01*
X105251581Y-43209714D01*
X105251581Y-43287124D01*
X105212876Y-43403238D01*
X104748419Y-43867695D01*
X105251581Y-43867695D01*
X105754743Y-43054895D02*
X105832152Y-43054895D01*
X105909562Y-43093600D01*
X105948267Y-43132305D01*
X105986971Y-43209714D01*
X106025676Y-43364533D01*
X106025676Y-43558057D01*
X105986971Y-43712876D01*
X105948267Y-43790286D01*
X105909562Y-43828990D01*
X105832152Y-43867695D01*
X105754743Y-43867695D01*
X105677333Y-43828990D01*
X105638629Y-43790286D01*
X105599924Y-43712876D01*
X105561219Y-43558057D01*
X105561219Y-43364533D01*
X105599924Y-43209714D01*
X105638629Y-43132305D01*
X105677333Y-43093600D01*
X105754743Y-43054895D01*
X106000000Y-60928571D02*
X106000000Y-62000000D01*
X105928572Y-62214286D01*
X105785715Y-62357143D01*
X105571429Y-62428571D01*
X105428572Y-62428571D01*
X107500000Y-62428571D02*
X106642857Y-62428571D01*
X107071429Y-62428571D02*
X107071429Y-60928571D01*
X106928572Y-61142857D01*
X106785714Y-61285714D01*
X106642857Y-61357143D01*
X71000000Y-101928571D02*
X71000000Y-103000000D01*
X70928572Y-103214286D01*
X70785715Y-103357143D01*
X70571429Y-103428571D01*
X70428572Y-103428571D01*
X72357143Y-102428571D02*
X72357143Y-103428571D01*
X72000000Y-101857143D02*
X71642857Y-102928571D01*
X72571429Y-102928571D01*
X120000000Y-80928571D02*
X120000000Y-82000000D01*
X119928572Y-82214286D01*
X119785715Y-82357143D01*
X119571429Y-82428571D01*
X119428572Y-82428571D01*
X121428572Y-80928571D02*
X120714286Y-80928571D01*
X120642857Y-81642857D01*
X120714286Y-81571429D01*
X120857143Y-81500000D01*
X121214286Y-81500000D01*
X121357143Y-81571429D01*
X121428572Y-81642857D01*
X121500000Y-81785714D01*
X121500000Y-82142857D01*
X121428572Y-82285714D01*
X121357143Y-82357143D01*
X121214286Y-82428571D01*
X120857143Y-82428571D01*
X120714286Y-82357143D01*
X120642857Y-82285714D01*
X85000000Y-81178571D02*
X85000000Y-82250000D01*
X84928572Y-82464286D01*
X84785715Y-82607143D01*
X84571429Y-82678571D01*
X84428572Y-82678571D01*
X86357143Y-81178571D02*
X86071429Y-81178571D01*
X85928572Y-81250000D01*
X85857143Y-81321429D01*
X85714286Y-81535714D01*
X85642857Y-81821429D01*
X85642857Y-82392857D01*
X85714286Y-82535714D01*
X85785714Y-82607143D01*
X85928572Y-82678571D01*
X86214286Y-82678571D01*
X86357143Y-82607143D01*
X86428572Y-82535714D01*
X86500000Y-82392857D01*
X86500000Y-82035714D01*
X86428572Y-81892857D01*
X86357143Y-81821429D01*
X86214286Y-81750000D01*
X85928572Y-81750000D01*
X85785714Y-81821429D01*
X85714286Y-81892857D01*
X85642857Y-82035714D01*
X85000000Y-61178571D02*
X85000000Y-62250000D01*
X84928572Y-62464286D01*
X84785715Y-62607143D01*
X84571429Y-62678571D01*
X84428572Y-62678571D01*
X85571429Y-61178571D02*
X86571429Y-61178571D01*
X85928572Y-62678571D01*
X71000000Y-81178571D02*
X71000000Y-82250000D01*
X70928572Y-82464286D01*
X70785715Y-82607143D01*
X70571429Y-82678571D01*
X70428572Y-82678571D01*
X71928572Y-81821429D02*
X71785714Y-81750000D01*
X71714286Y-81678571D01*
X71642857Y-81535714D01*
X71642857Y-81464286D01*
X71714286Y-81321429D01*
X71785714Y-81250000D01*
X71928572Y-81178571D01*
X72214286Y-81178571D01*
X72357143Y-81250000D01*
X72428572Y-81321429D01*
X72500000Y-81464286D01*
X72500000Y-81535714D01*
X72428572Y-81678571D01*
X72357143Y-81750000D01*
X72214286Y-81821429D01*
X71928572Y-81821429D01*
X71785714Y-81892857D01*
X71714286Y-81964286D01*
X71642857Y-82107143D01*
X71642857Y-82392857D01*
X71714286Y-82535714D01*
X71785714Y-82607143D01*
X71928572Y-82678571D01*
X72214286Y-82678571D01*
X72357143Y-82607143D01*
X72428572Y-82535714D01*
X72500000Y-82392857D01*
X72500000Y-82107143D01*
X72428572Y-81964286D01*
X72357143Y-81892857D01*
X72214286Y-81821429D01*
X88750000Y-126678571D02*
X88750000Y-127750000D01*
X88678572Y-127964286D01*
X88535715Y-128107143D01*
X88321429Y-128178571D01*
X88178572Y-128178571D01*
X89535714Y-128178571D02*
X89821429Y-128178571D01*
X89964286Y-128107143D01*
X90035714Y-128035714D01*
X90178572Y-127821429D01*
X90250000Y-127535714D01*
X90250000Y-126964286D01*
X90178572Y-126821429D01*
X90107143Y-126750000D01*
X89964286Y-126678571D01*
X89678572Y-126678571D01*
X89535714Y-126750000D01*
X89464286Y-126821429D01*
X89392857Y-126964286D01*
X89392857Y-127321429D01*
X89464286Y-127464286D01*
X89535714Y-127535714D01*
X89678572Y-127607143D01*
X89964286Y-127607143D01*
X90107143Y-127535714D01*
X90178572Y-127464286D01*
X90250000Y-127321429D01*
X94535715Y-119178571D02*
X94535715Y-120250000D01*
X94464287Y-120464286D01*
X94321430Y-120607143D01*
X94107144Y-120678571D01*
X93964287Y-120678571D01*
X96035715Y-120678571D02*
X95178572Y-120678571D01*
X95607144Y-120678571D02*
X95607144Y-119178571D01*
X95464287Y-119392857D01*
X95321429Y-119535714D01*
X95178572Y-119607143D01*
X96964286Y-119178571D02*
X97107143Y-119178571D01*
X97250000Y-119250000D01*
X97321429Y-119321429D01*
X97392858Y-119464286D01*
X97464286Y-119750000D01*
X97464286Y-120107143D01*
X97392858Y-120392857D01*
X97321429Y-120535714D01*
X97250000Y-120607143D01*
X97107143Y-120678571D01*
X96964286Y-120678571D01*
X96821429Y-120607143D01*
X96750000Y-120535714D01*
X96678572Y-120392857D01*
X96607143Y-120107143D01*
X96607143Y-119750000D01*
X96678572Y-119464286D01*
X96750000Y-119321429D01*
X96821429Y-119250000D01*
X96964286Y-119178571D01*
X112035715Y-119178571D02*
X112035715Y-120250000D01*
X111964287Y-120464286D01*
X111821430Y-120607143D01*
X111607144Y-120678571D01*
X111464287Y-120678571D01*
X113535715Y-120678571D02*
X112678572Y-120678571D01*
X113107144Y-120678571D02*
X113107144Y-119178571D01*
X112964287Y-119392857D01*
X112821429Y-119535714D01*
X112678572Y-119607143D01*
X114964286Y-120678571D02*
X114107143Y-120678571D01*
X114535715Y-120678571D02*
X114535715Y-119178571D01*
X114392858Y-119392857D01*
X114250000Y-119535714D01*
X114107143Y-119607143D01*
X66666667Y-58404762D02*
X66809524Y-58452381D01*
X67047620Y-58452381D01*
X67142858Y-58404762D01*
X67190477Y-58357143D01*
X67238096Y-58261905D01*
X67238096Y-58166667D01*
X67190477Y-58071429D01*
X67142858Y-58023810D01*
X67047620Y-57976190D01*
X66857143Y-57928571D01*
X66761905Y-57880952D01*
X66714286Y-57833333D01*
X66666667Y-57738095D01*
X66666667Y-57642857D01*
X66714286Y-57547619D01*
X66761905Y-57500000D01*
X66857143Y-57452381D01*
X67095239Y-57452381D01*
X67238096Y-57500000D01*
X67571429Y-57452381D02*
X67809524Y-58452381D01*
X68000001Y-57738095D01*
X68190477Y-58452381D01*
X68428572Y-57452381D01*
X69333334Y-58452381D02*
X68761905Y-58452381D01*
X69047619Y-58452381D02*
X69047619Y-57452381D01*
X68952381Y-57595238D01*
X68857143Y-57690476D01*
X68761905Y-57738095D01*
X115666667Y-58404762D02*
X115809524Y-58452381D01*
X116047620Y-58452381D01*
X116142858Y-58404762D01*
X116190477Y-58357143D01*
X116238096Y-58261905D01*
X116238096Y-58166667D01*
X116190477Y-58071429D01*
X116142858Y-58023810D01*
X116047620Y-57976190D01*
X115857143Y-57928571D01*
X115761905Y-57880952D01*
X115714286Y-57833333D01*
X115666667Y-57738095D01*
X115666667Y-57642857D01*
X115714286Y-57547619D01*
X115761905Y-57500000D01*
X115857143Y-57452381D01*
X116095239Y-57452381D01*
X116238096Y-57500000D01*
X116571429Y-57452381D02*
X116809524Y-58452381D01*
X117000001Y-57738095D01*
X117190477Y-58452381D01*
X117428572Y-57452381D01*
X117761905Y-57547619D02*
X117809524Y-57500000D01*
X117904762Y-57452381D01*
X118142858Y-57452381D01*
X118238096Y-57500000D01*
X118285715Y-57547619D01*
X118333334Y-57642857D01*
X118333334Y-57738095D01*
X118285715Y-57880952D01*
X117714286Y-58452381D01*
X118333334Y-58452381D01*
D12*
X108004286Y-97165429D02*
X108512286Y-98689429D01*
X109020286Y-97165429D01*
X110399143Y-98689429D02*
X109891143Y-97963714D01*
X109528286Y-98689429D02*
X109528286Y-97165429D01*
X110108858Y-97165429D01*
X110254000Y-97238000D01*
X110326572Y-97310571D01*
X110399143Y-97455714D01*
X110399143Y-97673429D01*
X110326572Y-97818571D01*
X110254000Y-97891143D01*
X110108858Y-97963714D01*
X109528286Y-97963714D01*
X111705429Y-97673429D02*
X111705429Y-98689429D01*
X111342572Y-97092857D02*
X110979715Y-98181429D01*
X111923143Y-98181429D01*
X65893912Y-33006262D02*
X66646478Y-34425518D01*
X66895978Y-32838574D01*
X68507458Y-34114096D02*
X67886647Y-33482178D01*
X67648544Y-34257829D02*
X67397011Y-32754730D01*
X67969621Y-32658908D01*
X68124750Y-32706528D01*
X68208305Y-32766126D01*
X68303836Y-32897301D01*
X68339769Y-33112030D01*
X68292149Y-33267159D01*
X68232550Y-33350714D01*
X68101376Y-33446245D01*
X67528766Y-33542067D01*
X69544296Y-32395398D02*
X69257991Y-32443309D01*
X69126816Y-32538840D01*
X69067218Y-32622393D01*
X68959999Y-32861078D01*
X68936334Y-33159360D01*
X69032156Y-33731969D01*
X69127688Y-33863144D01*
X69211242Y-33922742D01*
X69366371Y-33970363D01*
X69652676Y-33922452D01*
X69783851Y-33826920D01*
X69843449Y-33743367D01*
X69891070Y-33588237D01*
X69831181Y-33230356D01*
X69735649Y-33099181D01*
X69652096Y-33039582D01*
X69496966Y-32991962D01*
X69210661Y-33039873D01*
X69079487Y-33135404D01*
X69019888Y-33218959D01*
X68972268Y-33374089D01*
X65754286Y-122665429D02*
X66262286Y-124189429D01*
X66770286Y-122665429D01*
X68149143Y-124189429D02*
X67641143Y-123463714D01*
X67278286Y-124189429D02*
X67278286Y-122665429D01*
X67858858Y-122665429D01*
X68004000Y-122738000D01*
X68076572Y-122810571D01*
X68149143Y-122955714D01*
X68149143Y-123173429D01*
X68076572Y-123318571D01*
X68004000Y-123391143D01*
X67858858Y-123463714D01*
X67278286Y-123463714D01*
X69020000Y-123318571D02*
X68874858Y-123246000D01*
X68802286Y-123173429D01*
X68729715Y-123028286D01*
X68729715Y-122955714D01*
X68802286Y-122810571D01*
X68874858Y-122738000D01*
X69020000Y-122665429D01*
X69310286Y-122665429D01*
X69455429Y-122738000D01*
X69528000Y-122810571D01*
X69600572Y-122955714D01*
X69600572Y-123028286D01*
X69528000Y-123173429D01*
X69455429Y-123246000D01*
X69310286Y-123318571D01*
X69020000Y-123318571D01*
X68874858Y-123391143D01*
X68802286Y-123463714D01*
X68729715Y-123608857D01*
X68729715Y-123899143D01*
X68802286Y-124044286D01*
X68874858Y-124116857D01*
X69020000Y-124189429D01*
X69310286Y-124189429D01*
X69455429Y-124116857D01*
X69528000Y-124044286D01*
X69600572Y-123899143D01*
X69600572Y-123608857D01*
X69528000Y-123463714D01*
X69455429Y-123391143D01*
X69310286Y-123318571D01*
D11*
X118704762Y-69233333D02*
X118752381Y-69090476D01*
X118752381Y-68852380D01*
X118704762Y-68757142D01*
X118657143Y-68709523D01*
X118561905Y-68661904D01*
X118466667Y-68661904D01*
X118371429Y-68709523D01*
X118323810Y-68757142D01*
X118276190Y-68852380D01*
X118228571Y-69042857D01*
X118180952Y-69138095D01*
X118133333Y-69185714D01*
X118038095Y-69233333D01*
X117942857Y-69233333D01*
X117847619Y-69185714D01*
X117800000Y-69138095D01*
X117752381Y-69042857D01*
X117752381Y-68804761D01*
X117800000Y-68661904D01*
X117752381Y-68328571D02*
X118752381Y-68090476D01*
X118038095Y-67899999D01*
X118752381Y-67709523D01*
X117752381Y-67471428D01*
X117752381Y-67185714D02*
X117752381Y-66566666D01*
X118133333Y-66900000D01*
X118133333Y-66757142D01*
X118180952Y-66661904D01*
X118228571Y-66614285D01*
X118323810Y-66566666D01*
X118561905Y-66566666D01*
X118657143Y-66614285D01*
X118704762Y-66661904D01*
X118752381Y-66757142D01*
X118752381Y-67042857D01*
X118704762Y-67138095D01*
X118657143Y-67185714D01*
%LPC*%
D13*
X114359238Y-49280570D03*
X119290666Y-50105808D03*
X109427810Y-48455332D03*
D14*
X103000000Y-82700000D03*
D15*
X103000000Y-73300000D03*
D16*
X98100000Y-78000000D03*
X106300000Y-78000000D03*
D17*
X86700000Y-98000000D03*
D18*
X77300000Y-98000000D03*
D19*
X82000000Y-102900000D03*
X82000000Y-94700000D03*
D20*
X68000000Y-50770000D03*
D21*
X68000000Y-48230000D03*
D20*
X117000000Y-50770000D03*
D21*
X117000000Y-48230000D03*
D20*
X81270000Y-26000000D03*
D21*
X78730000Y-26000000D03*
D20*
X81270000Y-31000000D03*
D21*
X78730000Y-31000000D03*
D20*
X81270000Y-36000000D03*
D21*
X78730000Y-36000000D03*
D20*
X81270000Y-41000000D03*
D21*
X78730000Y-41000000D03*
D20*
X106270000Y-26000000D03*
D21*
X103730000Y-26000000D03*
D20*
X106270000Y-31000000D03*
D21*
X103730000Y-31000000D03*
D20*
X106270000Y-36000000D03*
D21*
X103730000Y-36000000D03*
D20*
X106270000Y-41000000D03*
D21*
X103730000Y-41000000D03*
D17*
X98300000Y-58000000D03*
D18*
X107700000Y-58000000D03*
D19*
X103000000Y-53100000D03*
X103000000Y-61300000D03*
D17*
X72700000Y-98000000D03*
D18*
X63300000Y-98000000D03*
D19*
X68000000Y-102900000D03*
X68000000Y-94700000D03*
D17*
X112300000Y-78000000D03*
D18*
X121700000Y-78000000D03*
D19*
X117000000Y-73100000D03*
X117000000Y-81300000D03*
D17*
X77300000Y-78000000D03*
D18*
X86700000Y-78000000D03*
D19*
X82000000Y-73100000D03*
X82000000Y-81300000D03*
D17*
X77300000Y-58000000D03*
D18*
X86700000Y-58000000D03*
D19*
X82000000Y-53100000D03*
X82000000Y-61300000D03*
D17*
X63300000Y-78000000D03*
D18*
X72700000Y-78000000D03*
D19*
X68000000Y-73100000D03*
X68000000Y-81300000D03*
D14*
X85500000Y-128200000D03*
D15*
X85500000Y-118800000D03*
D16*
X80600000Y-123500000D03*
X88800000Y-123500000D03*
D14*
X99500000Y-128200000D03*
D15*
X99500000Y-118800000D03*
D16*
X94600000Y-123500000D03*
X102800000Y-123500000D03*
D14*
X117000000Y-128200000D03*
D15*
X117000000Y-118800000D03*
D16*
X112100000Y-123500000D03*
X120300000Y-123500000D03*
D22*
X119750000Y-109750000D03*
D23*
X122290000Y-109750000D03*
X119750000Y-107210000D03*
X122290000Y-107210000D03*
X119750000Y-104670000D03*
X122290000Y-104670000D03*
X119750000Y-102130000D03*
X122290000Y-102130000D03*
X119750000Y-99590000D03*
X122290000Y-99590000D03*
D24*
X65500000Y-55500000D03*
X70500000Y-55500000D03*
X70500000Y-60500000D03*
X65500000Y-60500000D03*
X119500000Y-60500000D03*
X114500000Y-60500000D03*
X114500000Y-55500000D03*
X119500000Y-55500000D03*
D25*
X123250000Y-30750000D03*
D26*
X68750000Y-121750000D03*
X73750000Y-121750000D03*
D13*
X110000000Y-114000000D03*
X115000000Y-114000000D03*
X105000000Y-114000000D03*
X70640762Y-49280570D03*
X75572190Y-48455332D03*
X65709334Y-50105808D03*
X68000000Y-107500000D03*
X63000000Y-107500000D03*
X73000000Y-107500000D03*
D27*
X121750000Y-36000000D03*
X73250000Y-42500000D03*
X82000000Y-71000000D03*
D28*
X78500000Y-45460000D03*
D26*
X78500000Y-48000000D03*
X78500000Y-50540000D03*
X113000000Y-68050000D03*
X110000000Y-68050000D03*
X107000000Y-68050000D03*
D29*
X116500000Y-68050000D03*
X103500000Y-68050000D03*
M02*
