G04 #@! TF.FileFunction,Soldermask,Top*
%FSLAX46Y46*%
G04 Gerber Fmt 4.6, Leading zero omitted, Abs format (unit mm)*
G04 Created by KiCad (PCBNEW 4.0.2-stable) date 2017-05-29 11:54:06 AM*
%MOMM*%
G01*
G04 APERTURE LIST*
%ADD10C,0.100000*%
%ADD11C,2.018980*%
%ADD12O,4.020000X2.520000*%
%ADD13O,2.520000X2.020000*%
%ADD14O,1.520000X3.520000*%
%ADD15O,2.520000X4.020000*%
%ADD16O,2.020000X2.520000*%
%ADD17O,3.520000X1.520000*%
%ADD18R,1.220000X1.220000*%
%ADD19C,1.220000*%
%ADD20R,1.747200X1.747200*%
%ADD21O,1.747200X1.747200*%
%ADD22C,2.270000*%
%ADD23R,1.620000X2.820000*%
%ADD24C,1.544000*%
%ADD25C,1.520000*%
%ADD26R,1.544000X1.544000*%
%ADD27R,1.520000X2.020000*%
G04 APERTURE END LIST*
D10*
D11*
X114359238Y-49280570D03*
X119290666Y-50105808D03*
X109427810Y-48455332D03*
D12*
X103000000Y-82700000D03*
D13*
X103000000Y-73300000D03*
D14*
X98100000Y-78000000D03*
X106300000Y-78000000D03*
D15*
X86700000Y-98000000D03*
D16*
X77300000Y-98000000D03*
D17*
X82000000Y-102900000D03*
X82000000Y-94700000D03*
D18*
X68000000Y-50770000D03*
D19*
X68000000Y-48230000D03*
D18*
X117000000Y-50770000D03*
D19*
X117000000Y-48230000D03*
D18*
X81270000Y-26000000D03*
D19*
X78730000Y-26000000D03*
D18*
X81270000Y-31000000D03*
D19*
X78730000Y-31000000D03*
D18*
X81270000Y-36000000D03*
D19*
X78730000Y-36000000D03*
D18*
X81270000Y-41000000D03*
D19*
X78730000Y-41000000D03*
D18*
X106270000Y-26000000D03*
D19*
X103730000Y-26000000D03*
D18*
X106270000Y-31000000D03*
D19*
X103730000Y-31000000D03*
D18*
X106270000Y-36000000D03*
D19*
X103730000Y-36000000D03*
D18*
X106270000Y-41000000D03*
D19*
X103730000Y-41000000D03*
D15*
X98300000Y-58000000D03*
D16*
X107700000Y-58000000D03*
D17*
X103000000Y-53100000D03*
X103000000Y-61300000D03*
D15*
X72700000Y-98000000D03*
D16*
X63300000Y-98000000D03*
D17*
X68000000Y-102900000D03*
X68000000Y-94700000D03*
D15*
X112300000Y-78000000D03*
D16*
X121700000Y-78000000D03*
D17*
X117000000Y-73100000D03*
X117000000Y-81300000D03*
D15*
X77300000Y-78000000D03*
D16*
X86700000Y-78000000D03*
D17*
X82000000Y-73100000D03*
X82000000Y-81300000D03*
D15*
X77300000Y-58000000D03*
D16*
X86700000Y-58000000D03*
D17*
X82000000Y-53100000D03*
X82000000Y-61300000D03*
D15*
X63300000Y-78000000D03*
D16*
X72700000Y-78000000D03*
D17*
X68000000Y-73100000D03*
X68000000Y-81300000D03*
D12*
X85500000Y-128200000D03*
D13*
X85500000Y-118800000D03*
D14*
X80600000Y-123500000D03*
X88800000Y-123500000D03*
D12*
X99500000Y-128200000D03*
D13*
X99500000Y-118800000D03*
D14*
X94600000Y-123500000D03*
X102800000Y-123500000D03*
D12*
X117000000Y-128200000D03*
D13*
X117000000Y-118800000D03*
D14*
X112100000Y-123500000D03*
X120300000Y-123500000D03*
D20*
X119750000Y-109750000D03*
D21*
X122290000Y-109750000D03*
X119750000Y-107210000D03*
X122290000Y-107210000D03*
X119750000Y-104670000D03*
X122290000Y-104670000D03*
X119750000Y-102130000D03*
X122290000Y-102130000D03*
X119750000Y-99590000D03*
X122290000Y-99590000D03*
D22*
X65500000Y-55500000D03*
X70500000Y-55500000D03*
X70500000Y-60500000D03*
X65500000Y-60500000D03*
X119500000Y-60500000D03*
X114500000Y-60500000D03*
X114500000Y-55500000D03*
X119500000Y-55500000D03*
D23*
X123250000Y-30750000D03*
D24*
X68750000Y-121750000D03*
X73750000Y-121750000D03*
D11*
X110000000Y-114000000D03*
X115000000Y-114000000D03*
X105000000Y-114000000D03*
X70640762Y-49280570D03*
X75572190Y-48455332D03*
X65709334Y-50105808D03*
X68000000Y-107500000D03*
X63000000Y-107500000D03*
X73000000Y-107500000D03*
D25*
X121750000Y-36000000D03*
X73250000Y-42500000D03*
X82000000Y-71000000D03*
D26*
X78500000Y-45460000D03*
D24*
X78500000Y-48000000D03*
X78500000Y-50540000D03*
X113000000Y-68050000D03*
X110000000Y-68050000D03*
X107000000Y-68050000D03*
D27*
X116500000Y-68050000D03*
X103500000Y-68050000D03*
M02*
