  0
SECTION
  2
HEADER
  9
$ANGBASE
  50
0.0
  9
$ANGDIR
  70
  1
  9
$MEASUREMENT
  70
0
  0
ENDSEC
  0
SECTION
  2
TABLES
  0
TABLE
  2
LTYPE
  70
1
  0
LTYPE
  2
CONTINUOUS
  70
0
  3
Solid line
  72
65
  73
0
  40
0.0
  0
ENDTAB
  0
TABLE
  2
STYLE
  70
4
  0
STYLE
  2
KICAD
  70
0
  40
0
  41
1
  42
1
  50
0
  71
0
  3
isocp.shx
  0
STYLE
  2
KICADB
  70
0
  40
0
  41
1
  42
1
  50
0
  71
0
  3
isocp.shx
  0
STYLE
  2
KICADI
  70
0
  40
0
  41
1
  42
1
  50
15
  71
0
  3
isocp.shx
  0
STYLE
  2
KICADBI
  70
0
  40
0
  41
1
  42
1
  50
15
  71
0
  3
isocp.shx
  0
ENDTAB
  0
TABLE
  2
LAYER
  70
30
  0
LAYER
  2
BLACK
  70
0
  62
7
  6
CONTINUOUS
  0
LAYER
  2
GRAY1
  70
0
  62
251
  6
CONTINUOUS
  0
LAYER
  2
GRAY2
  70
0
  62
8
  6
CONTINUOUS
  0
LAYER
  2
GRAY3
  70
0
  62
9
  6
CONTINUOUS
  0
LAYER
  2
WHITE
  70
0
  62
7
  6
CONTINUOUS
  0
LAYER
  2
LYELLOW
  70
0
  62
51
  6
CONTINUOUS
  0
LAYER
  2
BLUE1
  70
0
  62
178
  6
CONTINUOUS
  0
LAYER
  2
GREEN1
  70
0
  62
98
  6
CONTINUOUS
  0
LAYER
  2
CYAN1
  70
0
  62
138
  6
CONTINUOUS
  0
LAYER
  2
RED1
  70
0
  62
18
  6
CONTINUOUS
  0
LAYER
  2
MAGENTA1
  70
0
  62
228
  6
CONTINUOUS
  0
LAYER
  2
BROWN1
  70
0
  62
58
  6
CONTINUOUS
  0
LAYER
  2
BLUE2
  70
0
  62
5
  6
CONTINUOUS
  0
LAYER
  2
GREEN2
  70
0
  62
3
  6
CONTINUOUS
  0
LAYER
  2
CYAN2
  70
0
  62
4
  6
CONTINUOUS
  0
LAYER
  2
RED2
  70
0
  62
1
  6
CONTINUOUS
  0
LAYER
  2
MAGENTA2
  70
0
  62
6
  6
CONTINUOUS
  0
LAYER
  2
BROWN2
  70
0
  62
54
  6
CONTINUOUS
  0
LAYER
  2
BLUE3
  70
0
  62
171
  6
CONTINUOUS
  0
LAYER
  2
GREEN3
  70
0
  62
91
  6
CONTINUOUS
  0
LAYER
  2
CYAN3
  70
0
  62
131
  6
CONTINUOUS
  0
LAYER
  2
RED3
  70
0
  62
11
  6
CONTINUOUS
  0
LAYER
  2
MAGENTA3
  70
0
  62
221
  6
CONTINUOUS
  0
LAYER
  2
YELLOW3
  70
0
  62
2
  6
CONTINUOUS
  0
LAYER
  2
BLUE4
  70
0
  62
5
  6
CONTINUOUS
  0
LAYER
  2
GREEN4
  70
0
  62
3
  6
CONTINUOUS
  0
LAYER
  2
CYAN4
  70
0
  62
4
  6
CONTINUOUS
  0
LAYER
  2
RED4
  70
0
  62
1
  6
CONTINUOUS
  0
LAYER
  2
MAGENTA4
  70
0
  62
6
  6
CONTINUOUS
  0
LAYER
  2
YELLOW4
  70
0
  62
2
  6
CONTINUOUS
  0
ENDTAB
  0
ENDSEC
  0
SECTION
  2
ENTITIES
0
LINE
8
Black
10
110.034
20
-24.906
11
110.064
21
-24.9234
0
LINE
8
Black
10
110.064
20
-24.9234
11
110.087
21
-24.95
0
LINE
8
Black
10
110.087
20
-24.95
11
110.098
21
-24.9826
0
LINE
8
Black
10
110.098
20
-24.9826
11
110.098
21
-25.0174
0
LINE
8
Black
10
110.098
20
-25.0174
11
110.087
21
-25.05
0
LINE
8
Black
10
110.087
20
-25.05
11
110.064
21
-25.0766
0
LINE
8
Black
10
110.064
20
-25.0766
11
110.034
21
-25.094
0
LINE
8
Black
10
110.034
20
-25.094
11
110
21
-25.1
0
LINE
8
Black
10
110
20
-25.1
11
103.1
21
-25.1
0
LINE
8
Black
10
103.1
20
-25.1
11
103.1
21
-57.9
0
LINE
8
Black
10
103.1
20
-57.9
11
116.9
21
-57.9
0
LINE
8
Black
10
116.9
20
-57.9
11
116.9
21
-25
0
LINE
8
Black
10
116.9
20
-25
11
116.906
21
-24.9658
0
LINE
8
Black
10
116.906
20
-24.9658
11
116.923
21
-24.9357
0
LINE
8
Black
10
116.923
20
-24.9357
11
116.95
21
-24.9134
0
LINE
8
Black
10
116.95
20
-24.9134
11
116.983
21
-24.9015
0
LINE
8
Black
10
116.983
20
-24.9015
11
117.017
21
-24.9015
0
LINE
8
Black
10
117.017
20
-24.9015
11
117.05
21
-24.9134
0
LINE
8
Black
10
117.05
20
-24.9134
11
117.077
21
-24.9357
0
LINE
8
Black
10
117.077
20
-24.9357
11
117.094
21
-24.9658
0
LINE
8
Black
10
117.094
20
-24.9658
11
117.1
21
-25
0
LINE
8
Black
10
117.1
20
-25
11
117.1
21
-57.9
0
LINE
8
Black
10
117.1
20
-57.9
11
125
21
-57.9
0
LINE
8
Black
10
125
20
-57.9
11
125.034
21
-57.906
0
LINE
8
Black
10
125.034
20
-57.906
11
125.064
21
-57.9234
0
LINE
8
Black
10
125.064
20
-57.9234
11
125.087
21
-57.95
0
LINE
8
Black
10
125.087
20
-57.95
11
125.098
21
-57.9826
0
LINE
8
Black
10
125.098
20
-57.9826
11
125.098
21
-58.0174
0
LINE
8
Black
10
125.098
20
-58.0174
11
125.087
21
-58.05
0
LINE
8
Black
10
125.087
20
-58.05
11
125.064
21
-58.0766
0
LINE
8
Black
10
125.064
20
-58.0766
11
125.034
21
-58.094
0
LINE
8
Black
10
125.034
20
-58.094
11
125
21
-58.1
0
LINE
8
Black
10
125
20
-58.1
11
117.1
21
-58.1
0
LINE
8
Black
10
117.1
20
-58.1
11
117.1
21
-77.9
0
LINE
8
Black
10
117.1
20
-77.9
11
125
21
-77.9
0
LINE
8
Black
10
125
20
-77.9
11
125.034
21
-77.906
0
LINE
8
Black
10
125.034
20
-77.906
11
125.064
21
-77.9234
0
LINE
8
Black
10
125.064
20
-77.9234
11
125.087
21
-77.95
0
LINE
8
Black
10
125.087
20
-77.95
11
125.098
21
-77.9826
0
LINE
8
Black
10
125.098
20
-77.9826
11
125.098
21
-78.0174
0
LINE
8
Black
10
125.098
20
-78.0174
11
125.087
21
-78.05
0
LINE
8
Black
10
125.087
20
-78.05
11
125.064
21
-78.0766
0
LINE
8
Black
10
125.064
20
-78.0766
11
125.034
21
-78.094
0
LINE
8
Black
10
125.034
20
-78.094
11
125
21
-78.1
0
LINE
8
Black
10
125
20
-78.1
11
117.1
21
-78.1
0
LINE
8
Black
10
117.1
20
-78.1
11
117.1
21
-97.9
0
LINE
8
Black
10
117.1
20
-97.9
11
125
21
-97.9
0
LINE
8
Black
10
125
20
-97.9
11
125.034
21
-97.906
0
LINE
8
Black
10
125.034
20
-97.906
11
125.064
21
-97.9234
0
LINE
8
Black
10
125.064
20
-97.9234
11
125.087
21
-97.95
0
LINE
8
Black
10
125.087
20
-97.95
11
125.098
21
-97.9826
0
LINE
8
Black
10
125.098
20
-97.9826
11
125.098
21
-98.0174
0
LINE
8
Black
10
125.098
20
-98.0174
11
125.087
21
-98.05
0
LINE
8
Black
10
125.087
20
-98.05
11
125.064
21
-98.0766
0
LINE
8
Black
10
125.064
20
-98.0766
11
125.034
21
-98.094
0
LINE
8
Black
10
125.034
20
-98.094
11
125
21
-98.1
0
LINE
8
Black
10
125
20
-98.1
11
92.6
21
-98.1
0
LINE
8
Black
10
92.6
20
-98.1
11
92.6
21
-131.5
0
LINE
8
Black
10
92.6
20
-131.5
11
92.594
21
-131.534
0
LINE
8
Black
10
92.594
20
-131.534
11
92.5766
21
-131.564
0
LINE
8
Black
10
92.5766
20
-131.564
11
92.55
21
-131.587
0
LINE
8
Black
10
92.55
20
-131.587
11
92.5174
21
-131.598
0
LINE
8
Black
10
92.5174
20
-131.598
11
92.4826
21
-131.598
0
LINE
8
Black
10
92.4826
20
-131.598
11
92.45
21
-131.587
0
LINE
8
Black
10
92.45
20
-131.587
11
92.4234
21
-131.564
0
LINE
8
Black
10
92.4234
20
-131.564
11
92.406
21
-131.534
0
LINE
8
Black
10
92.406
20
-131.534
11
92.4
21
-131.5
0
LINE
8
Black
10
92.4
20
-131.5
11
92.4
21
-98.1
0
LINE
8
Black
10
92.4
20
-98.1
11
75.1
21
-98.1
0
LINE
8
Black
10
75.1
20
-98.1
11
75.1
21
-131.5
0
LINE
8
Black
10
75.1
20
-131.5
11
75.094
21
-131.534
0
LINE
8
Black
10
75.094
20
-131.534
11
75.0766
21
-131.564
0
LINE
8
Black
10
75.0766
20
-131.564
11
75.05
21
-131.587
0
LINE
8
Black
10
75.05
20
-131.587
11
75.0174
21
-131.598
0
LINE
8
Black
10
75.0174
20
-131.598
11
74.9826
21
-131.598
0
LINE
8
Black
10
74.9826
20
-131.598
11
74.95
21
-131.587
0
LINE
8
Black
10
74.95
20
-131.587
11
74.9234
21
-131.564
0
LINE
8
Black
10
74.9234
20
-131.564
11
74.906
21
-131.534
0
LINE
8
Black
10
74.906
20
-131.534
11
74.9
21
-131.5
0
LINE
8
Black
10
74.9
20
-131.5
11
74.9
21
-98.1
0
LINE
8
Black
10
74.9
20
-98.1
11
60
21
-98.1
0
LINE
8
Black
10
60
20
-98.1
11
59.9658
21
-98.094
0
LINE
8
Black
10
59.9658
20
-98.094
11
59.9357
21
-98.0766
0
LINE
8
Black
10
59.9357
20
-98.0766
11
59.9134
21
-98.05
0
LINE
8
Black
10
59.9134
20
-98.05
11
59.9015
21
-98.0174
0
LINE
8
Black
10
59.9015
20
-98.0174
11
59.9015
21
-97.9826
0
LINE
8
Black
10
59.9015
20
-97.9826
11
59.9134
21
-97.95
0
LINE
8
Black
10
59.9134
20
-97.95
11
59.9357
21
-97.9234
0
LINE
8
Black
10
59.9357
20
-97.9234
11
59.9658
21
-97.906
0
LINE
8
Black
10
59.9658
20
-97.906
11
60
21
-97.9
0
LINE
8
Black
10
60
20
-97.9
11
67.9
21
-97.9
0
LINE
8
Black
10
67.9
20
-97.9
11
67.9
21
-78.1
0
LINE
8
Black
10
67.9
20
-78.1
11
60
21
-78.1
0
LINE
8
Black
10
60
20
-78.1
11
59.9658
21
-78.094
0
LINE
8
Black
10
59.9658
20
-78.094
11
59.9357
21
-78.0766
0
LINE
8
Black
10
59.9357
20
-78.0766
11
59.9134
21
-78.05
0
LINE
8
Black
10
59.9134
20
-78.05
11
59.9015
21
-78.0174
0
LINE
8
Black
10
59.9015
20
-78.0174
11
59.9015
21
-77.9826
0
LINE
8
Black
10
59.9015
20
-77.9826
11
59.9134
21
-77.95
0
LINE
8
Black
10
59.9134
20
-77.95
11
59.9357
21
-77.9234
0
LINE
8
Black
10
59.9357
20
-77.9234
11
59.9658
21
-77.906
0
LINE
8
Black
10
59.9658
20
-77.906
11
60
21
-77.9
0
LINE
8
Black
10
60
20
-77.9
11
67.9
21
-77.9
0
LINE
8
Black
10
67.9
20
-77.9
11
67.9
21
-58.1
0
LINE
8
Black
10
67.9
20
-58.1
11
60
21
-58.1
0
LINE
8
Black
10
60
20
-58.1
11
59.9658
21
-58.094
0
LINE
8
Black
10
59.9658
20
-58.094
11
59.9357
21
-58.0766
0
LINE
8
Black
10
59.9357
20
-58.0766
11
59.9134
21
-58.05
0
LINE
8
Black
10
59.9134
20
-58.05
11
59.9015
21
-58.0174
0
LINE
8
Black
10
59.9015
20
-58.0174
11
59.9015
21
-57.9826
0
LINE
8
Black
10
59.9015
20
-57.9826
11
59.9134
21
-57.95
0
LINE
8
Black
10
59.9134
20
-57.95
11
59.9357
21
-57.9234
0
LINE
8
Black
10
59.9357
20
-57.9234
11
59.9658
21
-57.906
0
LINE
8
Black
10
59.9658
20
-57.906
11
60
21
-57.9
0
LINE
8
Black
10
60
20
-57.9
11
67.9
21
-57.9
0
LINE
8
Black
10
67.9
20
-57.9
11
67.9
21
-25
0
LINE
8
Black
10
67.9
20
-25
11
67.906
21
-24.9658
0
LINE
8
Black
10
67.906
20
-24.9658
11
67.9234
21
-24.9357
0
LINE
8
Black
10
67.9234
20
-24.9357
11
67.95
21
-24.9134
0
LINE
8
Black
10
67.95
20
-24.9134
11
67.9826
21
-24.9015
0
LINE
8
Black
10
67.9826
20
-24.9015
11
68.0174
21
-24.9015
0
LINE
8
Black
10
68.0174
20
-24.9015
11
68.05
21
-24.9134
0
LINE
8
Black
10
68.05
20
-24.9134
11
68.0766
21
-24.9357
0
LINE
8
Black
10
68.0766
20
-24.9357
11
68.094
21
-24.9658
0
LINE
8
Black
10
68.094
20
-24.9658
11
68.1
21
-25
0
LINE
8
Black
10
68.1
20
-25
11
68.1
21
-57.9
0
LINE
8
Black
10
68.1
20
-57.9
11
74.9
21
-57.9
0
LINE
8
Black
10
74.9
20
-57.9
11
74.9
21
-25
0
LINE
8
Black
10
74.9
20
-25
11
74.906
21
-24.9658
0
LINE
8
Black
10
74.906
20
-24.9658
11
74.9234
21
-24.9357
0
LINE
8
Black
10
74.9234
20
-24.9357
11
74.95
21
-24.9134
0
LINE
8
Black
10
74.95
20
-24.9134
11
74.9826
21
-24.9015
0
LINE
8
Black
10
74.9826
20
-24.9015
11
75.0174
21
-24.9015
0
LINE
8
Black
10
75.0174
20
-24.9015
11
75.05
21
-24.9134
0
LINE
8
Black
10
75.05
20
-24.9134
11
75.0766
21
-24.9357
0
LINE
8
Black
10
75.0766
20
-24.9357
11
75.094
21
-24.9658
0
LINE
8
Black
10
75.094
20
-24.9658
11
75.1
21
-25
0
LINE
8
Black
10
75.1
20
-25
11
75.1
21
-57.9
0
LINE
8
Black
10
75.1
20
-57.9
11
81.9
21
-57.9
0
LINE
8
Black
10
81.9
20
-57.9
11
81.9
21
-25
0
LINE
8
Black
10
81.9
20
-25
11
81.906
21
-24.9658
0
LINE
8
Black
10
81.906
20
-24.9658
11
81.9234
21
-24.9357
0
LINE
8
Black
10
81.9234
20
-24.9357
11
81.95
21
-24.9134
0
LINE
8
Black
10
81.95
20
-24.9134
11
81.9826
21
-24.9015
0
LINE
8
Black
10
81.9826
20
-24.9015
11
82.0174
21
-24.9015
0
LINE
8
Black
10
82.0174
20
-24.9015
11
82.05
21
-24.9134
0
LINE
8
Black
10
82.05
20
-24.9134
11
82.0766
21
-24.9357
0
LINE
8
Black
10
82.0766
20
-24.9357
11
82.094
21
-24.9658
0
LINE
8
Black
10
82.094
20
-24.9658
11
82.1
21
-25
0
LINE
8
Black
10
82.1
20
-25
11
82.1
21
-57.9
0
LINE
8
Black
10
82.1
20
-57.9
11
92.4
21
-57.9
0
LINE
8
Black
10
92.4
20
-57.9
11
92.4
21
-25
0
LINE
8
Black
10
92.4
20
-25
11
92.4015
21
-24.9914
0
LINE
8
Black
10
92.4015
20
-24.9914
11
92.4015
21
-24.9826
0
LINE
8
Black
10
92.4015
20
-24.9826
11
92.4045
21
-24.9744
0
LINE
8
Black
10
92.4045
20
-24.9744
11
92.406
21
-24.9658
0
LINE
8
Black
10
92.406
20
-24.9658
11
92.4104
21
-24.9582
0
LINE
8
Black
10
92.4104
20
-24.9582
11
92.4134
21
-24.95
0
LINE
8
Black
10
92.4134
20
-24.95
11
92.419
21
-24.9433
0
LINE
8
Black
10
92.419
20
-24.9433
11
92.4234
21
-24.9357
0
LINE
8
Black
10
92.4234
20
-24.9357
11
92.4301
21
-24.9301
0
LINE
8
Black
10
92.4301
20
-24.9301
11
92.4357
21
-24.9234
0
LINE
8
Black
10
92.4357
20
-24.9234
11
92.4433
21
-24.919
0
LINE
8
Black
10
92.4433
20
-24.919
11
92.45
21
-24.9134
0
LINE
8
Black
10
92.45
20
-24.9134
11
92.4582
21
-24.9104
0
LINE
8
Black
10
92.4582
20
-24.9104
11
92.4658
21
-24.906
0
LINE
8
Black
10
92.4658
20
-24.906
11
92.4744
21
-24.9045
0
LINE
8
Black
10
92.4744
20
-24.9045
11
92.4826
21
-24.9015
0
LINE
8
Black
10
92.4826
20
-24.9015
11
92.4914
21
-24.9015
0
LINE
8
Black
10
92.4914
20
-24.9015
11
92.5
21
-24.9
0
LINE
8
Black
10
92.5
20
-24.9
11
110
21
-24.9
0
LINE
8
Black
10
110
20
-24.9
11
110.034
21
-24.906
0
LINE
8
Black
10
68.1
20
-78.1
11
68.1
21
-97.9
0
LINE
8
Black
10
68.1
20
-97.9
11
74.9
21
-97.9
0
LINE
8
Black
10
74.9
20
-97.9
11
74.9
21
-78.1
0
LINE
8
Black
10
74.9
20
-78.1
11
68.1
21
-78.1
0
LINE
8
Black
10
75.1
20
-78.1
11
75.1
21
-97.9
0
LINE
8
Black
10
75.1
20
-97.9
11
81.9
21
-97.9
0
LINE
8
Black
10
81.9
20
-97.9
11
81.9
21
-78.1
0
LINE
8
Black
10
81.9
20
-78.1
11
75.1
21
-78.1
0
LINE
8
Black
10
82.1
20
-78.1
11
82.1
21
-97.9
0
LINE
8
Black
10
82.1
20
-97.9
11
92.4
21
-97.9
0
LINE
8
Black
10
92.4
20
-97.9
11
92.4
21
-78.1
0
LINE
8
Black
10
92.4
20
-78.1
11
82.1
21
-78.1
0
LINE
8
Black
10
92.6
20
-78.1
11
92.6
21
-97.9
0
LINE
8
Black
10
92.6
20
-97.9
11
102.9
21
-97.9
0
LINE
8
Black
10
102.9
20
-97.9
11
102.9
21
-78.1
0
LINE
8
Black
10
102.9
20
-78.1
11
92.6
21
-78.1
0
LINE
8
Black
10
103.1
20
-78.1
11
103.1
21
-97.9
0
LINE
8
Black
10
103.1
20
-97.9
11
116.9
21
-97.9
0
LINE
8
Black
10
116.9
20
-97.9
11
116.9
21
-78.1
0
LINE
8
Black
10
116.9
20
-78.1
11
103.1
21
-78.1
0
LINE
8
Black
10
68.1
20
-58.1
11
68.1
21
-77.9
0
LINE
8
Black
10
68.1
20
-77.9
11
74.9
21
-77.9
0
LINE
8
Black
10
74.9
20
-77.9
11
74.9
21
-58.1
0
LINE
8
Black
10
74.9
20
-58.1
11
68.1
21
-58.1
0
LINE
8
Black
10
75.1
20
-58.1
11
75.1
21
-77.9
0
LINE
8
Black
10
75.1
20
-77.9
11
81.9
21
-77.9
0
LINE
8
Black
10
81.9
20
-77.9
11
81.9
21
-58.1
0
LINE
8
Black
10
81.9
20
-58.1
11
75.1
21
-58.1
0
LINE
8
Black
10
82.1
20
-58.1
11
82.1
21
-77.9
0
LINE
8
Black
10
82.1
20
-77.9
11
92.4
21
-77.9
0
LINE
8
Black
10
92.4
20
-77.9
11
92.4
21
-58.1
0
LINE
8
Black
10
92.4
20
-58.1
11
82.1
21
-58.1
0
LINE
8
Black
10
92.6
20
-58.1
11
92.6
21
-77.9
0
LINE
8
Black
10
92.6
20
-77.9
11
102.9
21
-77.9
0
LINE
8
Black
10
102.9
20
-77.9
11
102.9
21
-58.1
0
LINE
8
Black
10
102.9
20
-58.1
11
92.6
21
-58.1
0
LINE
8
Black
10
103.1
20
-58.1
11
103.1
21
-77.9
0
LINE
8
Black
10
103.1
20
-77.9
11
116.9
21
-77.9
0
LINE
8
Black
10
116.9
20
-77.9
11
116.9
21
-58.1
0
LINE
8
Black
10
116.9
20
-58.1
11
103.1
21
-58.1
0
LINE
8
Black
10
92.6
20
-25.1
11
92.6
21
-57.9
0
LINE
8
Black
10
92.6
20
-57.9
11
102.9
21
-57.9
0
LINE
8
Black
10
102.9
20
-57.9
11
102.9
21
-25.1
0
LINE
8
Black
10
102.9
20
-25.1
11
92.6
21
-25.1
  0
ENDSEC
  0
EOF
