  0
SECTION
  2
HEADER
  9
$ANGBASE
  50
0.0
  9
$ANGDIR
  70
  1
  9
$MEASUREMENT
  70
0
  0
ENDSEC
  0
SECTION
  2
TABLES
  0
TABLE
  2
LTYPE
  70
1
  0
LTYPE
  2
CONTINUOUS
  70
0
  3
Solid line
  72
65
  73
0
  40
0.0
  0
ENDTAB
  0
TABLE
  2
STYLE
  70
4
  0
STYLE
  2
KICAD
  70
0
  40
0
  41
1
  42
1
  50
0
  71
0
  3
isocp.shx
  0
STYLE
  2
KICADB
  70
0
  40
0
  41
1
  42
1
  50
0
  71
0
  3
isocp.shx
  0
STYLE
  2
KICADI
  70
0
  40
0
  41
1
  42
1
  50
15
  71
0
  3
isocp.shx
  0
STYLE
  2
KICADBI
  70
0
  40
0
  41
1
  42
1
  50
15
  71
0
  3
isocp.shx
  0
ENDTAB
  0
TABLE
  2
LAYER
  70
30
  0
LAYER
  2
BLACK
  70
0
  62
7
  6
CONTINUOUS
  0
LAYER
  2
GRAY1
  70
0
  62
251
  6
CONTINUOUS
  0
LAYER
  2
GRAY2
  70
0
  62
8
  6
CONTINUOUS
  0
LAYER
  2
GRAY3
  70
0
  62
9
  6
CONTINUOUS
  0
LAYER
  2
WHITE
  70
0
  62
7
  6
CONTINUOUS
  0
LAYER
  2
LYELLOW
  70
0
  62
51
  6
CONTINUOUS
  0
LAYER
  2
BLUE1
  70
0
  62
178
  6
CONTINUOUS
  0
LAYER
  2
GREEN1
  70
0
  62
98
  6
CONTINUOUS
  0
LAYER
  2
CYAN1
  70
0
  62
138
  6
CONTINUOUS
  0
LAYER
  2
RED1
  70
0
  62
18
  6
CONTINUOUS
  0
LAYER
  2
MAGENTA1
  70
0
  62
228
  6
CONTINUOUS
  0
LAYER
  2
BROWN1
  70
0
  62
58
  6
CONTINUOUS
  0
LAYER
  2
BLUE2
  70
0
  62
5
  6
CONTINUOUS
  0
LAYER
  2
GREEN2
  70
0
  62
3
  6
CONTINUOUS
  0
LAYER
  2
CYAN2
  70
0
  62
4
  6
CONTINUOUS
  0
LAYER
  2
RED2
  70
0
  62
1
  6
CONTINUOUS
  0
LAYER
  2
MAGENTA2
  70
0
  62
6
  6
CONTINUOUS
  0
LAYER
  2
BROWN2
  70
0
  62
54
  6
CONTINUOUS
  0
LAYER
  2
BLUE3
  70
0
  62
171
  6
CONTINUOUS
  0
LAYER
  2
GREEN3
  70
0
  62
91
  6
CONTINUOUS
  0
LAYER
  2
CYAN3
  70
0
  62
131
  6
CONTINUOUS
  0
LAYER
  2
RED3
  70
0
  62
11
  6
CONTINUOUS
  0
LAYER
  2
MAGENTA3
  70
0
  62
221
  6
CONTINUOUS
  0
LAYER
  2
YELLOW3
  70
0
  62
2
  6
CONTINUOUS
  0
LAYER
  2
BLUE4
  70
0
  62
5
  6
CONTINUOUS
  0
LAYER
  2
GREEN4
  70
0
  62
3
  6
CONTINUOUS
  0
LAYER
  2
CYAN4
  70
0
  62
4
  6
CONTINUOUS
  0
LAYER
  2
RED4
  70
0
  62
1
  6
CONTINUOUS
  0
LAYER
  2
MAGENTA4
  70
0
  62
6
  6
CONTINUOUS
  0
LAYER
  2
YELLOW4
  70
0
  62
2
  6
CONTINUOUS
  0
ENDTAB
  0
ENDSEC
  0
SECTION
  2
ENTITIES
0
LINE
8
Black
10
125.006
20
-24.9261
11
125.013
21
-24.9261
0
LINE
8
Black
10
125.013
20
-24.9261
11
125.019
21
-24.9284
0
LINE
8
Black
10
125.019
20
-24.9284
11
125.026
21
-24.9295
0
LINE
8
Black
10
125.026
20
-24.9295
11
125.031
21
-24.9328
0
LINE
8
Black
10
125.031
20
-24.9328
11
125.037
21
-24.935
0
LINE
8
Black
10
125.037
20
-24.935
11
125.043
21
-24.9393
0
LINE
8
Black
10
125.043
20
-24.9393
11
125.048
21
-24.9425
0
LINE
8
Black
10
125.048
20
-24.9425
11
125.052
21
-24.9476
0
LINE
8
Black
10
125.052
20
-24.9476
11
125.057
21
-24.9518
0
LINE
8
Black
10
125.057
20
-24.9518
11
125.061
21
-24.9575
0
LINE
8
Black
10
125.061
20
-24.9575
11
125.065
21
-24.9625
0
LINE
8
Black
10
125.065
20
-24.9625
11
125.067
21
-24.9687
0
LINE
8
Black
10
125.067
20
-24.9687
11
125.07
21
-24.9743
0
LINE
8
Black
10
125.07
20
-24.9743
11
125.072
21
-24.9808
0
LINE
8
Black
10
125.072
20
-24.9808
11
125.074
21
-24.987
0
LINE
8
Black
10
125.074
20
-24.987
11
125.074
21
-24.9935
0
LINE
8
Black
10
125.074
20
-24.9935
11
125.075
21
-25
0
LINE
8
Black
10
125.075
20
-25
11
125.075
21
-131.5
0
LINE
8
Black
10
125.075
20
-131.5
11
125.074
21
-131.506
0
LINE
8
Black
10
125.074
20
-131.506
11
125.074
21
-131.513
0
LINE
8
Black
10
125.074
20
-131.513
11
125.072
21
-131.519
0
LINE
8
Black
10
125.072
20
-131.519
11
125.07
21
-131.526
0
LINE
8
Black
10
125.07
20
-131.526
11
125.067
21
-131.531
0
LINE
8
Black
10
125.067
20
-131.531
11
125.065
21
-131.537
0
LINE
8
Black
10
125.065
20
-131.537
11
125.061
21
-131.543
0
LINE
8
Black
10
125.061
20
-131.543
11
125.057
21
-131.548
0
LINE
8
Black
10
125.057
20
-131.548
11
125.052
21
-131.552
0
LINE
8
Black
10
125.052
20
-131.552
11
125.048
21
-131.557
0
LINE
8
Black
10
125.048
20
-131.557
11
125.043
21
-131.561
0
LINE
8
Black
10
125.043
20
-131.561
11
125.037
21
-131.565
0
LINE
8
Black
10
125.037
20
-131.565
11
125.031
21
-131.567
0
LINE
8
Black
10
125.031
20
-131.567
11
125.026
21
-131.57
0
LINE
8
Black
10
125.026
20
-131.57
11
125.019
21
-131.572
0
LINE
8
Black
10
125.019
20
-131.572
11
125.013
21
-131.574
0
LINE
8
Black
10
125.013
20
-131.574
11
125.006
21
-131.574
0
LINE
8
Black
10
125.006
20
-131.574
11
125
21
-131.575
0
LINE
8
Black
10
125
20
-131.575
11
60
21
-131.575
0
LINE
8
Black
10
60
20
-131.575
11
59.9935
21
-131.574
0
LINE
8
Black
10
59.9935
20
-131.574
11
59.987
21
-131.574
0
LINE
8
Black
10
59.987
20
-131.574
11
59.9808
21
-131.572
0
LINE
8
Black
10
59.9808
20
-131.572
11
59.9743
21
-131.57
0
LINE
8
Black
10
59.9743
20
-131.57
11
59.9687
21
-131.567
0
LINE
8
Black
10
59.9687
20
-131.567
11
59.9625
21
-131.565
0
LINE
8
Black
10
59.9625
20
-131.565
11
59.9575
21
-131.561
0
LINE
8
Black
10
59.9575
20
-131.561
11
59.9518
21
-131.557
0
LINE
8
Black
10
59.9518
20
-131.557
11
59.9476
21
-131.552
0
LINE
8
Black
10
59.9476
20
-131.552
11
59.9425
21
-131.548
0
LINE
8
Black
10
59.9425
20
-131.548
11
59.9393
21
-131.543
0
LINE
8
Black
10
59.9393
20
-131.543
11
59.935
21
-131.537
0
LINE
8
Black
10
59.935
20
-131.537
11
59.9328
21
-131.531
0
LINE
8
Black
10
59.9328
20
-131.531
11
59.9295
21
-131.526
0
LINE
8
Black
10
59.9295
20
-131.526
11
59.9284
21
-131.519
0
LINE
8
Black
10
59.9284
20
-131.519
11
59.9261
21
-131.513
0
LINE
8
Black
10
59.9261
20
-131.513
11
59.9261
21
-131.506
0
LINE
8
Black
10
59.9261
20
-131.506
11
59.925
21
-131.5
0
LINE
8
Black
10
59.925
20
-131.5
11
59.925
21
-25
0
LINE
8
Black
10
59.925
20
-25
11
59.9261
21
-24.9935
0
LINE
8
Black
10
59.9261
20
-24.9935
11
59.9261
21
-24.987
0
LINE
8
Black
10
59.9261
20
-24.987
11
59.9284
21
-24.9808
0
LINE
8
Black
10
59.9284
20
-24.9808
11
59.9295
21
-24.9743
0
LINE
8
Black
10
59.9295
20
-24.9743
11
59.9328
21
-24.9687
0
LINE
8
Black
10
59.9328
20
-24.9687
11
59.935
21
-24.9625
0
LINE
8
Black
10
59.935
20
-24.9625
11
59.9393
21
-24.9575
0
LINE
8
Black
10
59.9393
20
-24.9575
11
59.9425
21
-24.9518
0
LINE
8
Black
10
59.9425
20
-24.9518
11
59.9476
21
-24.9476
0
LINE
8
Black
10
59.9476
20
-24.9476
11
59.9518
21
-24.9425
0
LINE
8
Black
10
59.9518
20
-24.9425
11
59.9575
21
-24.9393
0
LINE
8
Black
10
59.9575
20
-24.9393
11
59.9625
21
-24.935
0
LINE
8
Black
10
59.9625
20
-24.935
11
59.9687
21
-24.9328
0
LINE
8
Black
10
59.9687
20
-24.9328
11
59.9743
21
-24.9295
0
LINE
8
Black
10
59.9743
20
-24.9295
11
59.9808
21
-24.9284
0
LINE
8
Black
10
59.9808
20
-24.9284
11
59.987
21
-24.9261
0
LINE
8
Black
10
59.987
20
-24.9261
11
59.9935
21
-24.9261
0
LINE
8
Black
10
59.9935
20
-24.9261
11
60
21
-24.925
0
LINE
8
Black
10
60
20
-24.925
11
125
21
-24.925
0
LINE
8
Black
10
125
20
-24.925
11
125.006
21
-24.9261
0
LINE
8
Black
10
60.075
20
-25.075
11
60.075
21
-131.425
0
LINE
8
Black
10
60.075
20
-131.425
11
124.925
21
-131.425
0
LINE
8
Black
10
124.925
20
-131.425
11
124.925
21
-25.075
0
LINE
8
Black
10
124.925
20
-25.075
11
60.075
21
-25.075
  0
ENDSEC
  0
EOF
