  0
SECTION
  2
HEADER
  9
$ACADVER
  1
AC1014
  9
$HANDSEED
  5
FFFF
  9
$MEASUREMENT
 70
     1
  0
ENDSEC
  0
SECTION
  2
TABLES
  0
TABLE
  2
VPORT
  5
8
330
0
100
AcDbSymbolTable
 70
     4
  0
VPORT
  5
2E
330
8
100
AcDbSymbolTableRecord
100
AcDbViewportTableRecord
  2
*ACTIVE
 70
     0
 10
0.0
 20
0.0
 11
1.0
 21
1.0
 12
210.0
 22
148.5
 13
0.0
 23
0.0
 14
10.0
 24
10.0
 15
10.0
 25
10.0
 16
0.0
 26
0.0
 36
1.0
 17
0.0
 27
0.0
 37
0.0
 40
341.0
 41
1.24
 42
50.0
 43
0.0
 44
0.0
 50
0.0
 51
0.0
 71
     0
 72
   100
 73
     1
 74
     3
 75
     0
 76
     0
 77
     0
 78
     0
  0
ENDTAB
  0
TABLE
  2
LTYPE
  5
5
330
0
100
AcDbSymbolTable
 70
     1
  0
LTYPE
  5
14
330
5
100
AcDbSymbolTableRecord
100
AcDbLinetypeTableRecord
  2
BYBLOCK
 70
     0
  3

 72
    65
 73
     0
 40
0.0
  0
LTYPE
  5
15
330
5
100
AcDbSymbolTableRecord
100
AcDbLinetypeTableRecord
  2
BYLAYER
 70
     0
  3

 72
    65
 73
     0
 40
0.0
  0
LTYPE
  5
16
330
5
100
AcDbSymbolTableRecord
100
AcDbLinetypeTableRecord
  2
CONTINUOUS
 70
     0
  3
Solid line
 72
    65
 73
     0
 40
0.0
  0
ENDTAB
  0
TABLE
  2
LAYER
  5
2
100
AcDbSymbolTable
 70
9
  0
LAYER
  5
50
100
AcDbSymbolTableRecord
100
AcDbLayerTableRecord
  2
0
 70
0
  6
CONTINUOUS
  0
LAYER
  5
51
100
AcDbSymbolTableRecord
100
AcDbLayerTableRecord
  2
background
 70
0
  6
CONTINUOUS
  0
LAYER
  5
52
100
AcDbSymbolTableRecord
100
AcDbLayerTableRecord
  2
750_LFO_S&H_NOISE_SLEW-F.SilkS
 70
0
  6
CONTINUOUS
  0
LAYER
  5
53
100
AcDbSymbolTableRecord
100
AcDbLayerTableRecord
  2
hole_centres
 70
0
  6
CONTINUOUS
  0
LAYER
  5
54
100
AcDbSymbolTableRecord
100
AcDbLayerTableRecord
  2
PCB_edge
 70
0
  6
CONTINUOUS
  0
LAYER
  5
55
100
AcDbSymbolTableRecord
100
AcDbLayerTableRecord
  2
mechanical
 70
0
  6
CONTINUOUS
  0
LAYER
  5
56
100
AcDbSymbolTableRecord
100
AcDbLayerTableRecord
  2
panel_graphics
 70
0
  6
CONTINUOUS
  0
LAYER
  5
57
100
AcDbSymbolTableRecord
100
AcDbLayerTableRecord
  2
hardware_features
 70
0
  6
CONTINUOUS
  0
LAYER
  5
58
100
AcDbSymbolTableRecord
100
AcDbLayerTableRecord
  2
guides
 70
0
  6
CONTINUOUS
  0
ENDTAB
  0
TABLE
  2
STYLE
  5
3
330
0
100
AcDbSymbolTable
 70
     1
  0
STYLE
  5
11
330
3
100
AcDbSymbolTableRecord
100
AcDbTextStyleTableRecord
  2
STANDARD
 70
     0
 40
0.0
 41
1.0
 50
0.0
 71
     0
 42
2.5
  3
txt
  4

  0
ENDTAB
  0
TABLE
  2
VIEW
  5
6
330
0
100
AcDbSymbolTable
 70
     0
  0
ENDTAB
  0
TABLE
  2
UCS
  5
7
330
0
100
AcDbSymbolTable
 70
     0
  0
ENDTAB
  0
TABLE
  2
APPID
  5
9
330
0
100
AcDbSymbolTable
 70
     2
  0
APPID
  5
12
330
9
100
AcDbSymbolTableRecord
100
AcDbRegAppTableRecord
  2
ACAD
 70
     0
  0
ENDTAB
  0
TABLE
  2
DIMSTYLE
  5
A
330
0
100
AcDbSymbolTable
 70
     1
  0
DIMSTYLE
105
27
330
A
100
AcDbSymbolTableRecord
100
AcDbDimStyleTableRecord
  2
ISO-25
 70
     0
  3

  4

  5

  6

  7

 40
1.0
 41
2.5
 42
0.625
 43
3.75
 44
1.25
 45
0.0
 46
0.0
 47
0.0
 48
0.0
140
2.5
141
2.5
142
0.0
143
0.03937007874016
144
1.0
145
0.0
146
1.0
147
0.625
 71
     0
 72
     0
 73
     0
 74
     0
 75
     0
 76
     0
 77
     1
 78
     8
170
     0
171
     3
172
     1
173
     0
174
     0
175
     0
176
     0
177
     0
178
     0
270
     2
271
     2
272
     2
273
     2
274
     3
340
11
275
     0
280
     0
281
     0
282
     0
283
     0
284
     8
285
     0
286
     0
287
     3
288
     0
  0
ENDTAB
  0
TABLE
  2
BLOCK_RECORD
  5
1
330
0
100
AcDbSymbolTable
 70
     1
  0
BLOCK_RECORD
  5
1F
330
1
100
AcDbSymbolTableRecord
100
AcDbBlockTableRecord
  2
*MODEL_SPACE
  0
BLOCK_RECORD
  5
1B
330
1
100
AcDbSymbolTableRecord
100
AcDbBlockTableRecord
  2
*PAPER_SPACE
  0
ENDTAB
  0
ENDSEC
  0
SECTION
  2
BLOCKS
  0
BLOCK
  5
20
330
1F
100
AcDbEntity
  8
0
100
AcDbBlockBegin
  2
*MODEL_SPACE
 70
     0
 10
0.0
 20
0.0
 30
0.0
  3
*MODEL_SPACE
  1

  0
ENDBLK
  5
21
330
1F
100
AcDbEntity
  8
0
100
AcDbBlockEnd
  0
BLOCK
  5
1C
330
1B
100
AcDbEntity
 67
     1
  8
0
100
AcDbBlockBegin
  2
*PAPER_SPACE
  1

  0
ENDBLK
  5
1D
330
1B
100
AcDbEntity
 67
     1
  8
0
100
AcDbBlockEnd
  0
ENDSEC
  0
SECTION
  2
ENTITIES
  0
LWPOLYLINE
  5
100
100
AcDbEntity
  8
mechanical
 62
7
100
AcDbPolyline
 90
2
 70
0
 10
57.099942
 20
197.507265
 30
0.0
 10
57.099942
 20
69.007265
 30
0.0
  0
LWPOLYLINE
  5
101
100
AcDbEntity
  8
mechanical
 62
7
100
AcDbPolyline
 90
2
 70
0
 10
57.099942
 20
197.507265
 30
0.0
 10
127.899942
 20
197.507265
 30
0.0
  0
LWPOLYLINE
  5
102
100
AcDbEntity
  8
mechanical
 62
1
100
AcDbPolyline
 90
2
 70
0
 10
63.099942
 20
73.607261
 30
0.0
 10
66.099941
 20
73.607261
 30
0.0
  0
SPLINE
  5
103
100
AcDbEntity
  8
mechanical
 62
1
100
AcDbSpline
 70
8
 71
3
 72
8
 73
4
 74
0
 40
0
 40
0
 40
0
 40
0
 40
1
 40
1
 40
1
 40
1
 10
63.099942
 20
73.607261
 30
0.0
 10
62.528316
 20
73.607261
 30
0.0
 10
62.000112
 20
73.302302
 30
0.0
 10
61.714299
 20
72.807260
 30
0.0
  0
SPLINE
  5
104
100
AcDbEntity
  8
mechanical
 62
1
100
AcDbSpline
 70
8
 71
3
 72
8
 73
4
 74
0
 40
0
 40
0
 40
0
 40
0
 40
1
 40
1
 40
1
 40
1
 10
61.714299
 20
72.807260
 30
0.0
 10
61.428486
 20
72.312217
 30
0.0
 10
61.428486
 20
71.702300
 30
0.0
 10
61.714299
 20
71.207257
 30
0.0
  0
SPLINE
  5
105
100
AcDbEntity
  8
mechanical
 62
1
100
AcDbSpline
 70
8
 71
3
 72
8
 73
4
 74
0
 40
0
 40
0
 40
0
 40
0
 40
1
 40
1
 40
1
 40
1
 10
61.714299
 20
71.207257
 30
0.0
 10
62.000112
 20
70.712215
 30
0.0
 10
62.528316
 20
70.407256
 30
0.0
 10
63.099942
 20
70.407256
 30
0.0
  0
SPLINE
  5
106
100
AcDbEntity
  8
mechanical
 62
1
100
AcDbSpline
 70
8
 71
3
 72
8
 73
4
 74
0
 40
0
 40
0
 40
0
 40
0
 40
1
 40
1
 40
1
 40
1
 10
66.099941
 20
70.407256
 30
0.0
 10
66.671567
 20
70.407256
 30
0.0
 10
67.199771
 20
70.712215
 30
0.0
 10
67.485584
 20
71.207257
 30
0.0
  0
SPLINE
  5
107
100
AcDbEntity
  8
mechanical
 62
1
100
AcDbSpline
 70
8
 71
3
 72
8
 73
4
 74
0
 40
0
 40
0
 40
0
 40
0
 40
1
 40
1
 40
1
 40
1
 10
67.485584
 20
71.207257
 30
0.0
 10
67.771397
 20
71.702300
 30
0.0
 10
67.771397
 20
72.312217
 30
0.0
 10
67.485584
 20
72.807260
 30
0.0
  0
SPLINE
  5
108
100
AcDbEntity
  8
mechanical
 62
1
100
AcDbSpline
 70
8
 71
3
 72
8
 73
4
 74
0
 40
0
 40
0
 40
0
 40
0
 40
1
 40
1
 40
1
 40
1
 10
67.485584
 20
72.807260
 30
0.0
 10
67.199771
 20
73.302302
 30
0.0
 10
66.671567
 20
73.607261
 30
0.0
 10
66.099941
 20
73.607261
 30
0.0
  0
LWPOLYLINE
  5
109
100
AcDbEntity
  8
mechanical
 62
1
100
AcDbPolyline
 90
2
 70
0
 10
63.099942
 20
70.407256
 30
0.0
 10
66.099941
 20
70.407256
 30
0.0
  0
LWPOLYLINE
  5
10a
100
AcDbEntity
  8
mechanical
 62
1
100
AcDbPolyline
 90
2
 70
0
 10
113.899942
 20
73.607261
 30
0.0
 10
116.899941
 20
73.607261
 30
0.0
  0
SPLINE
  5
10b
100
AcDbEntity
  8
mechanical
 62
1
100
AcDbSpline
 70
8
 71
3
 72
8
 73
4
 74
0
 40
0
 40
0
 40
0
 40
0
 40
1
 40
1
 40
1
 40
1
 10
113.899942
 20
73.607261
 30
0.0
 10
113.328316
 20
73.607261
 30
0.0
 10
112.800112
 20
73.302302
 30
0.0
 10
112.514299
 20
72.807260
 30
0.0
  0
SPLINE
  5
10c
100
AcDbEntity
  8
mechanical
 62
1
100
AcDbSpline
 70
8
 71
3
 72
8
 73
4
 74
0
 40
0
 40
0
 40
0
 40
0
 40
1
 40
1
 40
1
 40
1
 10
112.514299
 20
72.807260
 30
0.0
 10
112.228486
 20
72.312217
 30
0.0
 10
112.228486
 20
71.702300
 30
0.0
 10
112.514299
 20
71.207257
 30
0.0
  0
SPLINE
  5
10d
100
AcDbEntity
  8
mechanical
 62
1
100
AcDbSpline
 70
8
 71
3
 72
8
 73
4
 74
0
 40
0
 40
0
 40
0
 40
0
 40
1
 40
1
 40
1
 40
1
 10
112.514299
 20
71.207257
 30
0.0
 10
112.800112
 20
70.712215
 30
0.0
 10
113.328316
 20
70.407256
 30
0.0
 10
113.899942
 20
70.407256
 30
0.0
  0
SPLINE
  5
10e
100
AcDbEntity
  8
mechanical
 62
1
100
AcDbSpline
 70
8
 71
3
 72
8
 73
4
 74
0
 40
0
 40
0
 40
0
 40
0
 40
1
 40
1
 40
1
 40
1
 10
116.899941
 20
70.407256
 30
0.0
 10
117.471567
 20
70.407256
 30
0.0
 10
117.999771
 20
70.712215
 30
0.0
 10
118.285584
 20
71.207257
 30
0.0
  0
SPLINE
  5
10f
100
AcDbEntity
  8
mechanical
 62
1
100
AcDbSpline
 70
8
 71
3
 72
8
 73
4
 74
0
 40
0
 40
0
 40
0
 40
0
 40
1
 40
1
 40
1
 40
1
 10
118.285584
 20
71.207257
 30
0.0
 10
118.571397
 20
71.702300
 30
0.0
 10
118.571397
 20
72.312217
 30
0.0
 10
118.285584
 20
72.807260
 30
0.0
  0
SPLINE
  5
110
100
AcDbEntity
  8
mechanical
 62
1
100
AcDbSpline
 70
8
 71
3
 72
8
 73
4
 74
0
 40
0
 40
0
 40
0
 40
0
 40
1
 40
1
 40
1
 40
1
 10
118.285584
 20
72.807260
 30
0.0
 10
117.999771
 20
73.302302
 30
0.0
 10
117.471567
 20
73.607261
 30
0.0
 10
116.899941
 20
73.607261
 30
0.0
  0
LWPOLYLINE
  5
111
100
AcDbEntity
  8
mechanical
 62
1
100
AcDbPolyline
 90
2
 70
0
 10
113.899942
 20
70.407256
 30
0.0
 10
116.899941
 20
70.407256
 30
0.0
  0
LWPOLYLINE
  5
112
100
AcDbEntity
  8
mechanical
 62
1
100
AcDbPolyline
 90
2
 70
0
 10
63.099942
 20
196.107264
 30
0.0
 10
66.099941
 20
196.107264
 30
0.0
  0
SPLINE
  5
113
100
AcDbEntity
  8
mechanical
 62
1
100
AcDbSpline
 70
8
 71
3
 72
8
 73
4
 74
0
 40
0
 40
0
 40
0
 40
0
 40
1
 40
1
 40
1
 40
1
 10
63.099942
 20
196.107264
 30
0.0
 10
62.528316
 20
196.107264
 30
0.0
 10
62.000113
 20
195.802306
 30
0.0
 10
61.714300
 20
195.307264
 30
0.0
  0
SPLINE
  5
114
100
AcDbEntity
  8
mechanical
 62
1
100
AcDbSpline
 70
8
 71
3
 72
8
 73
4
 74
0
 40
0
 40
0
 40
0
 40
0
 40
1
 40
1
 40
1
 40
1
 10
61.714300
 20
195.307264
 30
0.0
 10
61.428487
 20
194.812222
 30
0.0
 10
61.428487
 20
194.202305
 30
0.0
 10
61.714300
 20
193.707263
 30
0.0
  0
SPLINE
  5
115
100
AcDbEntity
  8
mechanical
 62
1
100
AcDbSpline
 70
8
 71
3
 72
8
 73
4
 74
0
 40
0
 40
0
 40
0
 40
0
 40
1
 40
1
 40
1
 40
1
 10
61.714300
 20
193.707263
 30
0.0
 10
62.000113
 20
193.212221
 30
0.0
 10
62.528316
 20
192.907262
 30
0.0
 10
63.099942
 20
192.907262
 30
0.0
  0
SPLINE
  5
116
100
AcDbEntity
  8
mechanical
 62
1
100
AcDbSpline
 70
8
 71
3
 72
8
 73
4
 74
0
 40
0
 40
0
 40
0
 40
0
 40
1
 40
1
 40
1
 40
1
 10
66.099941
 20
192.907262
 30
0.0
 10
66.671566
 20
192.907262
 30
0.0
 10
67.199770
 20
193.212221
 30
0.0
 10
67.485583
 20
193.707263
 30
0.0
  0
SPLINE
  5
117
100
AcDbEntity
  8
mechanical
 62
1
100
AcDbSpline
 70
8
 71
3
 72
8
 73
4
 74
0
 40
0
 40
0
 40
0
 40
0
 40
1
 40
1
 40
1
 40
1
 10
67.485583
 20
193.707263
 30
0.0
 10
67.771395
 20
194.202305
 30
0.0
 10
67.771395
 20
194.812222
 30
0.0
 10
67.485583
 20
195.307264
 30
0.0
  0
SPLINE
  5
118
100
AcDbEntity
  8
mechanical
 62
1
100
AcDbSpline
 70
8
 71
3
 72
8
 73
4
 74
0
 40
0
 40
0
 40
0
 40
0
 40
1
 40
1
 40
1
 40
1
 10
67.485583
 20
195.307264
 30
0.0
 10
67.199770
 20
195.802306
 30
0.0
 10
66.671566
 20
196.107264
 30
0.0
 10
66.099941
 20
196.107264
 30
0.0
  0
LWPOLYLINE
  5
119
100
AcDbEntity
  8
mechanical
 62
1
100
AcDbPolyline
 90
2
 70
0
 10
63.099942
 20
192.907262
 30
0.0
 10
66.099941
 20
192.907262
 30
0.0
  0
LWPOLYLINE
  5
11a
100
AcDbEntity
  8
mechanical
 62
1
100
AcDbPolyline
 90
2
 70
0
 10
113.899942
 20
196.107264
 30
0.0
 10
116.899941
 20
196.107264
 30
0.0
  0
SPLINE
  5
11b
100
AcDbEntity
  8
mechanical
 62
1
100
AcDbSpline
 70
8
 71
3
 72
8
 73
4
 74
0
 40
0
 40
0
 40
0
 40
0
 40
1
 40
1
 40
1
 40
1
 10
113.899942
 20
196.107264
 30
0.0
 10
113.328316
 20
196.107264
 30
0.0
 10
112.800113
 20
195.802306
 30
0.0
 10
112.514300
 20
195.307264
 30
0.0
  0
SPLINE
  5
11c
100
AcDbEntity
  8
mechanical
 62
1
100
AcDbSpline
 70
8
 71
3
 72
8
 73
4
 74
0
 40
0
 40
0
 40
0
 40
0
 40
1
 40
1
 40
1
 40
1
 10
112.514300
 20
195.307264
 30
0.0
 10
112.228487
 20
194.812222
 30
0.0
 10
112.228487
 20
194.202305
 30
0.0
 10
112.514300
 20
193.707263
 30
0.0
  0
SPLINE
  5
11d
100
AcDbEntity
  8
mechanical
 62
1
100
AcDbSpline
 70
8
 71
3
 72
8
 73
4
 74
0
 40
0
 40
0
 40
0
 40
0
 40
1
 40
1
 40
1
 40
1
 10
112.514300
 20
193.707263
 30
0.0
 10
112.800113
 20
193.212221
 30
0.0
 10
113.328316
 20
192.907262
 30
0.0
 10
113.899942
 20
192.907262
 30
0.0
  0
SPLINE
  5
11e
100
AcDbEntity
  8
mechanical
 62
1
100
AcDbSpline
 70
8
 71
3
 72
8
 73
4
 74
0
 40
0
 40
0
 40
0
 40
0
 40
1
 40
1
 40
1
 40
1
 10
116.899941
 20
192.907262
 30
0.0
 10
117.471566
 20
192.907262
 30
0.0
 10
117.999770
 20
193.212221
 30
0.0
 10
118.285583
 20
193.707263
 30
0.0
  0
SPLINE
  5
11f
100
AcDbEntity
  8
mechanical
 62
1
100
AcDbSpline
 70
8
 71
3
 72
8
 73
4
 74
0
 40
0
 40
0
 40
0
 40
0
 40
1
 40
1
 40
1
 40
1
 10
118.285583
 20
193.707263
 30
0.0
 10
118.571395
 20
194.202305
 30
0.0
 10
118.571395
 20
194.812222
 30
0.0
 10
118.285583
 20
195.307264
 30
0.0
  0
SPLINE
  5
120
100
AcDbEntity
  8
mechanical
 62
1
100
AcDbSpline
 70
8
 71
3
 72
8
 73
4
 74
0
 40
0
 40
0
 40
0
 40
0
 40
1
 40
1
 40
1
 40
1
 10
118.285583
 20
195.307264
 30
0.0
 10
117.999770
 20
195.802306
 30
0.0
 10
117.471566
 20
196.107264
 30
0.0
 10
116.899941
 20
196.107264
 30
0.0
  0
LWPOLYLINE
  5
121
100
AcDbEntity
  8
mechanical
 62
1
100
AcDbPolyline
 90
2
 70
0
 10
113.899942
 20
192.907262
 30
0.0
 10
116.899941
 20
192.907262
 30
0.0
  0
LWPOLYLINE
  5
122
100
AcDbEntity
  8
mechanical
 62
7
100
AcDbPolyline
 90
2
 70
0
 10
127.899942
 20
197.507265
 30
0.0
 10
127.899942
 20
69.007265
 30
0.0
  0
SPLINE
  5
123
100
AcDbEntity
  8
mechanical
 62
7
100
AcDbSpline
 70
8
 71
3
 72
8
 73
4
 74
0
 40
0
 40
0
 40
0
 40
0
 40
1
 40
1
 40
1
 40
1
 10
71.750118
 20
176.507140
 30
0.0
 10
71.750118
 20
175.167394
 30
0.0
 10
71.035372
 20
173.929418
 30
0.0
 10
69.875118
 20
173.259545
 30
0.0
  0
SPLINE
  5
124
100
AcDbEntity
  8
mechanical
 62
7
100
AcDbSpline
 70
8
 71
3
 72
8
 73
4
 74
0
 40
0
 40
0
 40
0
 40
0
 40
1
 40
1
 40
1
 40
1
 10
69.875118
 20
173.259545
 30
0.0
 10
68.714864
 20
172.589672
 30
0.0
 10
67.285372
 20
172.589672
 30
0.0
 10
66.125118
 20
173.259545
 30
0.0
  0
SPLINE
  5
125
100
AcDbEntity
  8
mechanical
 62
7
100
AcDbSpline
 70
8
 71
3
 72
8
 73
4
 74
0
 40
0
 40
0
 40
0
 40
0
 40
1
 40
1
 40
1
 40
1
 10
66.125118
 20
173.259545
 30
0.0
 10
64.964864
 20
173.929418
 30
0.0
 10
64.250118
 20
175.167394
 30
0.0
 10
64.250118
 20
176.507140
 30
0.0
  0
SPLINE
  5
126
100
AcDbEntity
  8
mechanical
 62
7
100
AcDbSpline
 70
8
 71
3
 72
8
 73
4
 74
0
 40
0
 40
0
 40
0
 40
0
 40
1
 40
1
 40
1
 40
1
 10
64.250118
 20
176.507140
 30
0.0
 10
64.250118
 20
177.846886
 30
0.0
 10
64.964864
 20
179.084862
 30
0.0
 10
66.125118
 20
179.754735
 30
0.0
  0
SPLINE
  5
127
100
AcDbEntity
  8
mechanical
 62
7
100
AcDbSpline
 70
8
 71
3
 72
8
 73
4
 74
0
 40
0
 40
0
 40
0
 40
0
 40
1
 40
1
 40
1
 40
1
 10
66.125118
 20
179.754735
 30
0.0
 10
67.285372
 20
180.424608
 30
0.0
 10
68.714864
 20
180.424608
 30
0.0
 10
69.875118
 20
179.754735
 30
0.0
  0
SPLINE
  5
128
100
AcDbEntity
  8
mechanical
 62
7
100
AcDbSpline
 70
8
 71
3
 72
8
 73
4
 74
0
 40
0
 40
0
 40
0
 40
0
 40
1
 40
1
 40
1
 40
1
 10
69.875118
 20
179.754735
 30
0.0
 10
71.035372
 20
179.084862
 30
0.0
 10
71.750118
 20
177.846886
 30
0.0
 10
71.750118
 20
176.507140
 30
0.0
  0
LWPOLYLINE
  5
129
100
AcDbEntity
  8
mechanical
 62
7
100
AcDbPolyline
 90
2
 70
0
 10
57.099942
 20
69.007265
 30
0.0
 10
127.899942
 20
69.007265
 30
0.0
  0
SPLINE
  5
12a
100
AcDbEntity
  8
mechanical
 62
7
100
AcDbSpline
 70
8
 71
3
 72
8
 73
4
 74
0
 40
0
 40
0
 40
0
 40
0
 40
1
 40
1
 40
1
 40
1
 10
120.749896
 20
176.507267
 30
0.0
 10
120.749896
 20
175.167521
 30
0.0
 10
120.035150
 20
173.929545
 30
0.0
 10
118.874896
 20
173.259672
 30
0.0
  0
SPLINE
  5
12b
100
AcDbEntity
  8
mechanical
 62
7
100
AcDbSpline
 70
8
 71
3
 72
8
 73
4
 74
0
 40
0
 40
0
 40
0
 40
0
 40
1
 40
1
 40
1
 40
1
 10
118.874896
 20
173.259672
 30
0.0
 10
117.714642
 20
172.589799
 30
0.0
 10
116.285150
 20
172.589799
 30
0.0
 10
115.124896
 20
173.259672
 30
0.0
  0
SPLINE
  5
12c
100
AcDbEntity
  8
mechanical
 62
7
100
AcDbSpline
 70
8
 71
3
 72
8
 73
4
 74
0
 40
0
 40
0
 40
0
 40
0
 40
1
 40
1
 40
1
 40
1
 10
115.124896
 20
173.259672
 30
0.0
 10
113.964642
 20
173.929545
 30
0.0
 10
113.249896
 20
175.167521
 30
0.0
 10
113.249896
 20
176.507267
 30
0.0
  0
SPLINE
  5
12d
100
AcDbEntity
  8
mechanical
 62
7
100
AcDbSpline
 70
8
 71
3
 72
8
 73
4
 74
0
 40
0
 40
0
 40
0
 40
0
 40
1
 40
1
 40
1
 40
1
 10
113.249896
 20
176.507267
 30
0.0
 10
113.249896
 20
177.847013
 30
0.0
 10
113.964642
 20
179.084989
 30
0.0
 10
115.124896
 20
179.754862
 30
0.0
  0
SPLINE
  5
12e
100
AcDbEntity
  8
mechanical
 62
7
100
AcDbSpline
 70
8
 71
3
 72
8
 73
4
 74
0
 40
0
 40
0
 40
0
 40
0
 40
1
 40
1
 40
1
 40
1
 10
115.124896
 20
179.754862
 30
0.0
 10
116.285150
 20
180.424735
 30
0.0
 10
117.714642
 20
180.424735
 30
0.0
 10
118.874896
 20
179.754862
 30
0.0
  0
SPLINE
  5
12f
100
AcDbEntity
  8
mechanical
 62
7
100
AcDbSpline
 70
8
 71
3
 72
8
 73
4
 74
0
 40
0
 40
0
 40
0
 40
0
 40
1
 40
1
 40
1
 40
1
 10
118.874896
 20
179.754862
 30
0.0
 10
120.035150
 20
179.084989
 30
0.0
 10
120.749896
 20
177.847013
 30
0.0
 10
120.749896
 20
176.507267
 30
0.0
  0
LWPOLYLINE
  5
130
100
AcDbEntity
  8
mechanical
 62
7
100
AcDbPolyline
 90
1
 70
1
 10
71.750118
 20
176.507140
 30
0.0
  0
SPLINE
  5
131
100
AcDbEntity
  8
mechanical
 62
7
100
AcDbSpline
 70
8
 71
3
 72
8
 73
4
 74
0
 40
0
 40
0
 40
0
 40
0
 40
1
 40
1
 40
1
 40
1
 10
113.750020
 20
112.007142
 30
0.0
 10
113.750020
 20
109.936074
 30
0.0
 10
112.071088
 20
108.257142
 30
0.0
 10
110.000020
 20
108.257142
 30
0.0
  0
SPLINE
  5
132
100
AcDbEntity
  8
mechanical
 62
7
100
AcDbSpline
 70
8
 71
3
 72
8
 73
4
 74
0
 40
0
 40
0
 40
0
 40
0
 40
1
 40
1
 40
1
 40
1
 10
110.000020
 20
108.257142
 30
0.0
 10
107.928952
 20
108.257142
 30
0.0
 10
106.250020
 20
109.936074
 30
0.0
 10
106.250020
 20
112.007142
 30
0.0
  0
SPLINE
  5
133
100
AcDbEntity
  8
mechanical
 62
7
100
AcDbSpline
 70
8
 71
3
 72
8
 73
4
 74
0
 40
0
 40
0
 40
0
 40
0
 40
1
 40
1
 40
1
 40
1
 10
106.250020
 20
112.007142
 30
0.0
 10
106.250020
 20
113.346888
 30
0.0
 10
106.964766
 20
114.584864
 30
0.0
 10
108.125020
 20
115.254737
 30
0.0
  0
SPLINE
  5
134
100
AcDbEntity
  8
mechanical
 62
7
100
AcDbSpline
 70
8
 71
3
 72
8
 73
4
 74
0
 40
0
 40
0
 40
0
 40
0
 40
1
 40
1
 40
1
 40
1
 10
108.125020
 20
115.254737
 30
0.0
 10
109.285274
 20
115.924610
 30
0.0
 10
110.714766
 20
115.924610
 30
0.0
 10
111.875020
 20
115.254737
 30
0.0
  0
SPLINE
  5
135
100
AcDbEntity
  8
mechanical
 62
7
100
AcDbSpline
 70
8
 71
3
 72
8
 73
4
 74
0
 40
0
 40
0
 40
0
 40
0
 40
1
 40
1
 40
1
 40
1
 10
111.875020
 20
115.254737
 30
0.0
 10
113.035274
 20
114.584864
 30
0.0
 10
113.750020
 20
113.346888
 30
0.0
 10
113.750020
 20
112.007142
 30
0.0
  0
LWPOLYLINE
  5
136
100
AcDbEntity
  8
mechanical
 62
7
100
AcDbPolyline
 90
1
 70
1
 10
120.749896
 20
176.507267
 30
0.0
  0
SPLINE
  5
137
100
AcDbEntity
  8
mechanical
 62
7
100
AcDbSpline
 70
8
 71
3
 72
8
 73
4
 74
0
 40
0
 40
0
 40
0
 40
0
 40
1
 40
1
 40
1
 40
1
 10
71.750118
 20
86.507320
 30
0.0
 10
71.750118
 20
85.167574
 30
0.0
 10
71.035372
 20
83.929598
 30
0.0
 10
69.875118
 20
83.259725
 30
0.0
  0
SPLINE
  5
138
100
AcDbEntity
  8
mechanical
 62
7
100
AcDbSpline
 70
8
 71
3
 72
8
 73
4
 74
0
 40
0
 40
0
 40
0
 40
0
 40
1
 40
1
 40
1
 40
1
 10
69.875118
 20
83.259725
 30
0.0
 10
68.714864
 20
82.589852
 30
0.0
 10
67.285372
 20
82.589852
 30
0.0
 10
66.125118
 20
83.259725
 30
0.0
  0
SPLINE
  5
139
100
AcDbEntity
  8
mechanical
 62
7
100
AcDbSpline
 70
8
 71
3
 72
8
 73
4
 74
0
 40
0
 40
0
 40
0
 40
0
 40
1
 40
1
 40
1
 40
1
 10
66.125118
 20
83.259725
 30
0.0
 10
64.964864
 20
83.929598
 30
0.0
 10
64.250118
 20
85.167574
 30
0.0
 10
64.250118
 20
86.507320
 30
0.0
  0
SPLINE
  5
13a
100
AcDbEntity
  8
mechanical
 62
7
100
AcDbSpline
 70
8
 71
3
 72
8
 73
4
 74
0
 40
0
 40
0
 40
0
 40
0
 40
1
 40
1
 40
1
 40
1
 10
64.250118
 20
86.507320
 30
0.0
 10
64.250118
 20
87.847066
 30
0.0
 10
64.964864
 20
89.085042
 30
0.0
 10
66.125118
 20
89.754915
 30
0.0
  0
SPLINE
  5
13b
100
AcDbEntity
  8
mechanical
 62
7
100
AcDbSpline
 70
8
 71
3
 72
8
 73
4
 74
0
 40
0
 40
0
 40
0
 40
0
 40
1
 40
1
 40
1
 40
1
 10
66.125118
 20
89.754915
 30
0.0
 10
67.285372
 20
90.424788
 30
0.0
 10
68.714864
 20
90.424788
 30
0.0
 10
69.875118
 20
89.754915
 30
0.0
  0
SPLINE
  5
13c
100
AcDbEntity
  8
mechanical
 62
7
100
AcDbSpline
 70
8
 71
3
 72
8
 73
4
 74
0
 40
0
 40
0
 40
0
 40
0
 40
1
 40
1
 40
1
 40
1
 10
69.875118
 20
89.754915
 30
0.0
 10
71.035372
 20
89.085042
 30
0.0
 10
71.750118
 20
87.847066
 30
0.0
 10
71.750118
 20
86.507320
 30
0.0
  0
LWPOLYLINE
  5
13d
100
AcDbEntity
  8
mechanical
 62
7
100
AcDbPolyline
 90
1
 70
1
 10
113.750020
 20
112.007142
 30
0.0
  0
SPLINE
  5
13e
100
AcDbEntity
  8
mechanical
 62
7
100
AcDbSpline
 70
8
 71
3
 72
8
 73
4
 74
0
 40
0
 40
0
 40
0
 40
0
 40
1
 40
1
 40
1
 40
1
 10
81.600056
 20
184.007126
 30
0.0
 10
81.600056
 20
183.417637
 30
0.0
 10
81.285568
 20
182.872928
 30
0.0
 10
80.775056
 20
182.578184
 30
0.0
  0
SPLINE
  5
13f
100
AcDbEntity
  8
mechanical
 62
7
100
AcDbSpline
 70
8
 71
3
 72
8
 73
4
 74
0
 40
0
 40
0
 40
0
 40
0
 40
1
 40
1
 40
1
 40
1
 10
80.775056
 20
182.578184
 30
0.0
 10
80.264544
 20
182.283440
 30
0.0
 10
79.635568
 20
182.283440
 30
0.0
 10
79.125056
 20
182.578184
 30
0.0
  0
SPLINE
  5
140
100
AcDbEntity
  8
mechanical
 62
7
100
AcDbSpline
 70
8
 71
3
 72
8
 73
4
 74
0
 40
0
 40
0
 40
0
 40
0
 40
1
 40
1
 40
1
 40
1
 10
79.125056
 20
182.578184
 30
0.0
 10
78.614544
 20
182.872928
 30
0.0
 10
78.300056
 20
183.417637
 30
0.0
 10
78.300056
 20
184.007126
 30
0.0
  0
SPLINE
  5
141
100
AcDbEntity
  8
mechanical
 62
7
100
AcDbSpline
 70
8
 71
3
 72
8
 73
4
 74
0
 40
0
 40
0
 40
0
 40
0
 40
1
 40
1
 40
1
 40
1
 10
78.300056
 20
184.007126
 30
0.0
 10
78.300056
 20
184.596614
 30
0.0
 10
78.614544
 20
185.141323
 30
0.0
 10
79.125056
 20
185.436067
 30
0.0
  0
SPLINE
  5
142
100
AcDbEntity
  8
mechanical
 62
7
100
AcDbSpline
 70
8
 71
3
 72
8
 73
4
 74
0
 40
0
 40
0
 40
0
 40
0
 40
1
 40
1
 40
1
 40
1
 10
79.125056
 20
185.436067
 30
0.0
 10
79.635568
 20
185.730812
 30
0.0
 10
80.264544
 20
185.730812
 30
0.0
 10
80.775056
 20
185.436067
 30
0.0
  0
SPLINE
  5
143
100
AcDbEntity
  8
mechanical
 62
7
100
AcDbSpline
 70
8
 71
3
 72
8
 73
4
 74
0
 40
0
 40
0
 40
0
 40
0
 40
1
 40
1
 40
1
 40
1
 10
80.775056
 20
185.436067
 30
0.0
 10
81.285568
 20
185.141323
 30
0.0
 10
81.600056
 20
184.596614
 30
0.0
 10
81.600056
 20
184.007126
 30
0.0
  0
LWPOLYLINE
  5
144
100
AcDbEntity
  8
mechanical
 62
7
100
AcDbPolyline
 90
1
 70
1
 10
71.750118
 20
86.507320
 30
0.0
  0
SPLINE
  5
145
100
AcDbEntity
  8
mechanical
 62
7
100
AcDbSpline
 70
8
 71
3
 72
8
 73
4
 74
0
 40
0
 40
0
 40
0
 40
0
 40
1
 40
1
 40
1
 40
1
 10
81.600056
 20
179.007135
 30
0.0
 10
81.600056
 20
178.417647
 30
0.0
 10
81.285568
 20
177.872937
 30
0.0
 10
80.775056
 20
177.578193
 30
0.0
  0
SPLINE
  5
146
100
AcDbEntity
  8
mechanical
 62
7
100
AcDbSpline
 70
8
 71
3
 72
8
 73
4
 74
0
 40
0
 40
0
 40
0
 40
0
 40
1
 40
1
 40
1
 40
1
 10
80.775056
 20
177.578193
 30
0.0
 10
80.264544
 20
177.283449
 30
0.0
 10
79.635568
 20
177.283449
 30
0.0
 10
79.125056
 20
177.578193
 30
0.0
  0
SPLINE
  5
147
100
AcDbEntity
  8
mechanical
 62
7
100
AcDbSpline
 70
8
 71
3
 72
8
 73
4
 74
0
 40
0
 40
0
 40
0
 40
0
 40
1
 40
1
 40
1
 40
1
 10
79.125056
 20
177.578193
 30
0.0
 10
78.614544
 20
177.872937
 30
0.0
 10
78.300056
 20
178.417647
 30
0.0
 10
78.300056
 20
179.007135
 30
0.0
  0
SPLINE
  5
148
100
AcDbEntity
  8
mechanical
 62
7
100
AcDbSpline
 70
8
 71
3
 72
8
 73
4
 74
0
 40
0
 40
0
 40
0
 40
0
 40
1
 40
1
 40
1
 40
1
 10
78.300056
 20
179.007135
 30
0.0
 10
78.300056
 20
179.596623
 30
0.0
 10
78.614544
 20
180.141333
 30
0.0
 10
79.125056
 20
180.436077
 30
0.0
  0
SPLINE
  5
149
100
AcDbEntity
  8
mechanical
 62
7
100
AcDbSpline
 70
8
 71
3
 72
8
 73
4
 74
0
 40
0
 40
0
 40
0
 40
0
 40
1
 40
1
 40
1
 40
1
 10
79.125056
 20
180.436077
 30
0.0
 10
79.635568
 20
180.730821
 30
0.0
 10
80.264544
 20
180.730821
 30
0.0
 10
80.775056
 20
180.436077
 30
0.0
  0
SPLINE
  5
14a
100
AcDbEntity
  8
mechanical
 62
7
100
AcDbSpline
 70
8
 71
3
 72
8
 73
4
 74
0
 40
0
 40
0
 40
0
 40
0
 40
1
 40
1
 40
1
 40
1
 10
80.775056
 20
180.436077
 30
0.0
 10
81.285568
 20
180.141333
 30
0.0
 10
81.600056
 20
179.596623
 30
0.0
 10
81.600056
 20
179.007135
 30
0.0
  0
LWPOLYLINE
  5
14b
100
AcDbEntity
  8
mechanical
 62
7
100
AcDbPolyline
 90
1
 70
1
 10
81.600056
 20
184.007126
 30
0.0
  0
SPLINE
  5
14c
100
AcDbEntity
  8
mechanical
 62
7
100
AcDbSpline
 70
8
 71
3
 72
8
 73
4
 74
0
 40
0
 40
0
 40
0
 40
0
 40
1
 40
1
 40
1
 40
1
 10
81.600056
 20
169.007282
 30
0.0
 10
81.600056
 20
168.417794
 30
0.0
 10
81.285568
 20
167.873084
 30
0.0
 10
80.775056
 20
167.578340
 30
0.0
  0
SPLINE
  5
14d
100
AcDbEntity
  8
mechanical
 62
7
100
AcDbSpline
 70
8
 71
3
 72
8
 73
4
 74
0
 40
0
 40
0
 40
0
 40
0
 40
1
 40
1
 40
1
 40
1
 10
80.775056
 20
167.578340
 30
0.0
 10
80.264544
 20
167.283596
 30
0.0
 10
79.635568
 20
167.283596
 30
0.0
 10
79.125056
 20
167.578340
 30
0.0
  0
SPLINE
  5
14e
100
AcDbEntity
  8
mechanical
 62
7
100
AcDbSpline
 70
8
 71
3
 72
8
 73
4
 74
0
 40
0
 40
0
 40
0
 40
0
 40
1
 40
1
 40
1
 40
1
 10
79.125056
 20
167.578340
 30
0.0
 10
78.614544
 20
167.873084
 30
0.0
 10
78.300056
 20
168.417794
 30
0.0
 10
78.300056
 20
169.007282
 30
0.0
  0
SPLINE
  5
14f
100
AcDbEntity
  8
mechanical
 62
7
100
AcDbSpline
 70
8
 71
3
 72
8
 73
4
 74
0
 40
0
 40
0
 40
0
 40
0
 40
1
 40
1
 40
1
 40
1
 10
78.300056
 20
169.007282
 30
0.0
 10
78.300056
 20
169.596770
 30
0.0
 10
78.614544
 20
170.141480
 30
0.0
 10
79.125056
 20
170.436224
 30
0.0
  0
SPLINE
  5
150
100
AcDbEntity
  8
mechanical
 62
7
100
AcDbSpline
 70
8
 71
3
 72
8
 73
4
 74
0
 40
0
 40
0
 40
0
 40
0
 40
1
 40
1
 40
1
 40
1
 10
79.125056
 20
170.436224
 30
0.0
 10
79.635568
 20
170.730968
 30
0.0
 10
80.264544
 20
170.730968
 30
0.0
 10
80.775056
 20
170.436224
 30
0.0
  0
SPLINE
  5
151
100
AcDbEntity
  8
mechanical
 62
7
100
AcDbSpline
 70
8
 71
3
 72
8
 73
4
 74
0
 40
0
 40
0
 40
0
 40
0
 40
1
 40
1
 40
1
 40
1
 10
80.775056
 20
170.436224
 30
0.0
 10
81.285568
 20
170.141480
 30
0.0
 10
81.600056
 20
169.596770
 30
0.0
 10
81.600056
 20
169.007282
 30
0.0
  0
LWPOLYLINE
  5
152
100
AcDbEntity
  8
mechanical
 62
7
100
AcDbPolyline
 90
1
 70
1
 10
81.600056
 20
179.007135
 30
0.0
  0
SPLINE
  5
153
100
AcDbEntity
  8
mechanical
 62
7
100
AcDbSpline
 70
8
 71
3
 72
8
 73
4
 74
0
 40
0
 40
0
 40
0
 40
0
 40
1
 40
1
 40
1
 40
1
 10
81.600056
 20
174.007272
 30
0.0
 10
81.600056
 20
173.417784
 30
0.0
 10
81.285568
 20
172.873074
 30
0.0
 10
80.775056
 20
172.578330
 30
0.0
  0
SPLINE
  5
154
100
AcDbEntity
  8
mechanical
 62
7
100
AcDbSpline
 70
8
 71
3
 72
8
 73
4
 74
0
 40
0
 40
0
 40
0
 40
0
 40
1
 40
1
 40
1
 40
1
 10
80.775056
 20
172.578330
 30
0.0
 10
80.264544
 20
172.283586
 30
0.0
 10
79.635568
 20
172.283586
 30
0.0
 10
79.125056
 20
172.578330
 30
0.0
  0
SPLINE
  5
155
100
AcDbEntity
  8
mechanical
 62
7
100
AcDbSpline
 70
8
 71
3
 72
8
 73
4
 74
0
 40
0
 40
0
 40
0
 40
0
 40
1
 40
1
 40
1
 40
1
 10
79.125056
 20
172.578330
 30
0.0
 10
78.614544
 20
172.873074
 30
0.0
 10
78.300056
 20
173.417784
 30
0.0
 10
78.300056
 20
174.007272
 30
0.0
  0
SPLINE
  5
156
100
AcDbEntity
  8
mechanical
 62
7
100
AcDbSpline
 70
8
 71
3
 72
8
 73
4
 74
0
 40
0
 40
0
 40
0
 40
0
 40
1
 40
1
 40
1
 40
1
 10
78.300056
 20
174.007272
 30
0.0
 10
78.300056
 20
174.596760
 30
0.0
 10
78.614544
 20
175.141470
 30
0.0
 10
79.125056
 20
175.436214
 30
0.0
  0
SPLINE
  5
157
100
AcDbEntity
  8
mechanical
 62
7
100
AcDbSpline
 70
8
 71
3
 72
8
 73
4
 74
0
 40
0
 40
0
 40
0
 40
0
 40
1
 40
1
 40
1
 40
1
 10
79.125056
 20
175.436214
 30
0.0
 10
79.635568
 20
175.730958
 30
0.0
 10
80.264544
 20
175.730958
 30
0.0
 10
80.775056
 20
175.436214
 30
0.0
  0
SPLINE
  5
158
100
AcDbEntity
  8
mechanical
 62
7
100
AcDbSpline
 70
8
 71
3
 72
8
 73
4
 74
0
 40
0
 40
0
 40
0
 40
0
 40
1
 40
1
 40
1
 40
1
 10
80.775056
 20
175.436214
 30
0.0
 10
81.285568
 20
175.141470
 30
0.0
 10
81.600056
 20
174.596760
 30
0.0
 10
81.600056
 20
174.007272
 30
0.0
  0
LWPOLYLINE
  5
159
100
AcDbEntity
  8
mechanical
 62
7
100
AcDbPolyline
 90
1
 70
1
 10
81.600056
 20
169.007282
 30
0.0
  0
SPLINE
  5
15a
100
AcDbEntity
  8
mechanical
 62
7
100
AcDbSpline
 70
8
 71
3
 72
8
 73
4
 74
0
 40
0
 40
0
 40
0
 40
0
 40
1
 40
1
 40
1
 40
1
 10
106.650058
 20
184.007126
 30
0.0
 10
106.650058
 20
183.417637
 30
0.0
 10
106.335570
 20
182.872928
 30
0.0
 10
105.825058
 20
182.578184
 30
0.0
  0
SPLINE
  5
15b
100
AcDbEntity
  8
mechanical
 62
7
100
AcDbSpline
 70
8
 71
3
 72
8
 73
4
 74
0
 40
0
 40
0
 40
0
 40
0
 40
1
 40
1
 40
1
 40
1
 10
105.825058
 20
182.578184
 30
0.0
 10
105.314546
 20
182.283440
 30
0.0
 10
104.685570
 20
182.283440
 30
0.0
 10
104.175058
 20
182.578184
 30
0.0
  0
SPLINE
  5
15c
100
AcDbEntity
  8
mechanical
 62
7
100
AcDbSpline
 70
8
 71
3
 72
8
 73
4
 74
0
 40
0
 40
0
 40
0
 40
0
 40
1
 40
1
 40
1
 40
1
 10
104.175058
 20
182.578184
 30
0.0
 10
103.664546
 20
182.872928
 30
0.0
 10
103.350058
 20
183.417637
 30
0.0
 10
103.350058
 20
184.007126
 30
0.0
  0
SPLINE
  5
15d
100
AcDbEntity
  8
mechanical
 62
7
100
AcDbSpline
 70
8
 71
3
 72
8
 73
4
 74
0
 40
0
 40
0
 40
0
 40
0
 40
1
 40
1
 40
1
 40
1
 10
103.350058
 20
184.007126
 30
0.0
 10
103.350058
 20
184.596614
 30
0.0
 10
103.664546
 20
185.141323
 30
0.0
 10
104.175058
 20
185.436067
 30
0.0
  0
SPLINE
  5
15e
100
AcDbEntity
  8
mechanical
 62
7
100
AcDbSpline
 70
8
 71
3
 72
8
 73
4
 74
0
 40
0
 40
0
 40
0
 40
0
 40
1
 40
1
 40
1
 40
1
 10
104.175058
 20
185.436067
 30
0.0
 10
104.685570
 20
185.730812
 30
0.0
 10
105.314546
 20
185.730812
 30
0.0
 10
105.825058
 20
185.436067
 30
0.0
  0
SPLINE
  5
15f
100
AcDbEntity
  8
mechanical
 62
7
100
AcDbSpline
 70
8
 71
3
 72
8
 73
4
 74
0
 40
0
 40
0
 40
0
 40
0
 40
1
 40
1
 40
1
 40
1
 10
105.825058
 20
185.436067
 30
0.0
 10
106.335570
 20
185.141323
 30
0.0
 10
106.650058
 20
184.596614
 30
0.0
 10
106.650058
 20
184.007126
 30
0.0
  0
LWPOLYLINE
  5
160
100
AcDbEntity
  8
mechanical
 62
7
100
AcDbPolyline
 90
1
 70
1
 10
81.600056
 20
174.007272
 30
0.0
  0
SPLINE
  5
161
100
AcDbEntity
  8
mechanical
 62
7
100
AcDbSpline
 70
8
 71
3
 72
8
 73
4
 74
0
 40
0
 40
0
 40
0
 40
0
 40
1
 40
1
 40
1
 40
1
 10
106.650058
 20
179.007135
 30
0.0
 10
106.650058
 20
178.417647
 30
0.0
 10
106.335570
 20
177.872937
 30
0.0
 10
105.825058
 20
177.578193
 30
0.0
  0
SPLINE
  5
162
100
AcDbEntity
  8
mechanical
 62
7
100
AcDbSpline
 70
8
 71
3
 72
8
 73
4
 74
0
 40
0
 40
0
 40
0
 40
0
 40
1
 40
1
 40
1
 40
1
 10
105.825058
 20
177.578193
 30
0.0
 10
105.314546
 20
177.283449
 30
0.0
 10
104.685570
 20
177.283449
 30
0.0
 10
104.175058
 20
177.578193
 30
0.0
  0
SPLINE
  5
163
100
AcDbEntity
  8
mechanical
 62
7
100
AcDbSpline
 70
8
 71
3
 72
8
 73
4
 74
0
 40
0
 40
0
 40
0
 40
0
 40
1
 40
1
 40
1
 40
1
 10
104.175058
 20
177.578193
 30
0.0
 10
103.664546
 20
177.872937
 30
0.0
 10
103.350058
 20
178.417647
 30
0.0
 10
103.350058
 20
179.007135
 30
0.0
  0
SPLINE
  5
164
100
AcDbEntity
  8
mechanical
 62
7
100
AcDbSpline
 70
8
 71
3
 72
8
 73
4
 74
0
 40
0
 40
0
 40
0
 40
0
 40
1
 40
1
 40
1
 40
1
 10
103.350058
 20
179.007135
 30
0.0
 10
103.350058
 20
179.596623
 30
0.0
 10
103.664546
 20
180.141333
 30
0.0
 10
104.175058
 20
180.436077
 30
0.0
  0
SPLINE
  5
165
100
AcDbEntity
  8
mechanical
 62
7
100
AcDbSpline
 70
8
 71
3
 72
8
 73
4
 74
0
 40
0
 40
0
 40
0
 40
0
 40
1
 40
1
 40
1
 40
1
 10
104.175058
 20
180.436077
 30
0.0
 10
104.685570
 20
180.730821
 30
0.0
 10
105.314546
 20
180.730821
 30
0.0
 10
105.825058
 20
180.436077
 30
0.0
  0
SPLINE
  5
166
100
AcDbEntity
  8
mechanical
 62
7
100
AcDbSpline
 70
8
 71
3
 72
8
 73
4
 74
0
 40
0
 40
0
 40
0
 40
0
 40
1
 40
1
 40
1
 40
1
 10
105.825058
 20
180.436077
 30
0.0
 10
106.335570
 20
180.141333
 30
0.0
 10
106.650058
 20
179.596623
 30
0.0
 10
106.650058
 20
179.007135
 30
0.0
  0
LWPOLYLINE
  5
167
100
AcDbEntity
  8
mechanical
 62
7
100
AcDbPolyline
 90
1
 70
1
 10
106.650058
 20
184.007126
 30
0.0
  0
SPLINE
  5
168
100
AcDbEntity
  8
mechanical
 62
7
100
AcDbSpline
 70
8
 71
3
 72
8
 73
4
 74
0
 40
0
 40
0
 40
0
 40
0
 40
1
 40
1
 40
1
 40
1
 10
106.650058
 20
169.007282
 30
0.0
 10
106.650058
 20
168.417794
 30
0.0
 10
106.335570
 20
167.873084
 30
0.0
 10
105.825058
 20
167.578340
 30
0.0
  0
SPLINE
  5
169
100
AcDbEntity
  8
mechanical
 62
7
100
AcDbSpline
 70
8
 71
3
 72
8
 73
4
 74
0
 40
0
 40
0
 40
0
 40
0
 40
1
 40
1
 40
1
 40
1
 10
105.825058
 20
167.578340
 30
0.0
 10
105.314546
 20
167.283596
 30
0.0
 10
104.685570
 20
167.283596
 30
0.0
 10
104.175058
 20
167.578340
 30
0.0
  0
SPLINE
  5
16a
100
AcDbEntity
  8
mechanical
 62
7
100
AcDbSpline
 70
8
 71
3
 72
8
 73
4
 74
0
 40
0
 40
0
 40
0
 40
0
 40
1
 40
1
 40
1
 40
1
 10
104.175058
 20
167.578340
 30
0.0
 10
103.664546
 20
167.873084
 30
0.0
 10
103.350058
 20
168.417794
 30
0.0
 10
103.350058
 20
169.007282
 30
0.0
  0
SPLINE
  5
16b
100
AcDbEntity
  8
mechanical
 62
7
100
AcDbSpline
 70
8
 71
3
 72
8
 73
4
 74
0
 40
0
 40
0
 40
0
 40
0
 40
1
 40
1
 40
1
 40
1
 10
103.350058
 20
169.007282
 30
0.0
 10
103.350058
 20
169.596770
 30
0.0
 10
103.664546
 20
170.141480
 30
0.0
 10
104.175058
 20
170.436224
 30
0.0
  0
SPLINE
  5
16c
100
AcDbEntity
  8
mechanical
 62
7
100
AcDbSpline
 70
8
 71
3
 72
8
 73
4
 74
0
 40
0
 40
0
 40
0
 40
0
 40
1
 40
1
 40
1
 40
1
 10
104.175058
 20
170.436224
 30
0.0
 10
104.685570
 20
170.730968
 30
0.0
 10
105.314546
 20
170.730968
 30
0.0
 10
105.825058
 20
170.436224
 30
0.0
  0
SPLINE
  5
16d
100
AcDbEntity
  8
mechanical
 62
7
100
AcDbSpline
 70
8
 71
3
 72
8
 73
4
 74
0
 40
0
 40
0
 40
0
 40
0
 40
1
 40
1
 40
1
 40
1
 10
105.825058
 20
170.436224
 30
0.0
 10
106.335570
 20
170.141480
 30
0.0
 10
106.650058
 20
169.596770
 30
0.0
 10
106.650058
 20
169.007282
 30
0.0
  0
LWPOLYLINE
  5
16e
100
AcDbEntity
  8
mechanical
 62
7
100
AcDbPolyline
 90
1
 70
1
 10
106.650058
 20
179.007135
 30
0.0
  0
SPLINE
  5
16f
100
AcDbEntity
  8
mechanical
 62
7
100
AcDbSpline
 70
8
 71
3
 72
8
 73
4
 74
0
 40
0
 40
0
 40
0
 40
0
 40
1
 40
1
 40
1
 40
1
 10
106.650058
 20
174.007272
 30
0.0
 10
106.650058
 20
173.417784
 30
0.0
 10
106.335570
 20
172.873074
 30
0.0
 10
105.825058
 20
172.578330
 30
0.0
  0
SPLINE
  5
170
100
AcDbEntity
  8
mechanical
 62
7
100
AcDbSpline
 70
8
 71
3
 72
8
 73
4
 74
0
 40
0
 40
0
 40
0
 40
0
 40
1
 40
1
 40
1
 40
1
 10
105.825058
 20
172.578330
 30
0.0
 10
105.314546
 20
172.283586
 30
0.0
 10
104.685570
 20
172.283586
 30
0.0
 10
104.175058
 20
172.578330
 30
0.0
  0
SPLINE
  5
171
100
AcDbEntity
  8
mechanical
 62
7
100
AcDbSpline
 70
8
 71
3
 72
8
 73
4
 74
0
 40
0
 40
0
 40
0
 40
0
 40
1
 40
1
 40
1
 40
1
 10
104.175058
 20
172.578330
 30
0.0
 10
103.664546
 20
172.873074
 30
0.0
 10
103.350058
 20
173.417784
 30
0.0
 10
103.350058
 20
174.007272
 30
0.0
  0
SPLINE
  5
172
100
AcDbEntity
  8
mechanical
 62
7
100
AcDbSpline
 70
8
 71
3
 72
8
 73
4
 74
0
 40
0
 40
0
 40
0
 40
0
 40
1
 40
1
 40
1
 40
1
 10
103.350058
 20
174.007272
 30
0.0
 10
103.350058
 20
174.596760
 30
0.0
 10
103.664546
 20
175.141470
 30
0.0
 10
104.175058
 20
175.436214
 30
0.0
  0
SPLINE
  5
173
100
AcDbEntity
  8
mechanical
 62
7
100
AcDbSpline
 70
8
 71
3
 72
8
 73
4
 74
0
 40
0
 40
0
 40
0
 40
0
 40
1
 40
1
 40
1
 40
1
 10
104.175058
 20
175.436214
 30
0.0
 10
104.685570
 20
175.730958
 30
0.0
 10
105.314546
 20
175.730958
 30
0.0
 10
105.825058
 20
175.436214
 30
0.0
  0
SPLINE
  5
174
100
AcDbEntity
  8
mechanical
 62
7
100
AcDbSpline
 70
8
 71
3
 72
8
 73
4
 74
0
 40
0
 40
0
 40
0
 40
0
 40
1
 40
1
 40
1
 40
1
 10
105.825058
 20
175.436214
 30
0.0
 10
106.335570
 20
175.141470
 30
0.0
 10
106.650058
 20
174.596760
 30
0.0
 10
106.650058
 20
174.007272
 30
0.0
  0
LWPOLYLINE
  5
175
100
AcDbEntity
  8
mechanical
 62
7
100
AcDbPolyline
 90
1
 70
1
 10
106.650058
 20
169.007282
 30
0.0
  0
SPLINE
  5
176
100
AcDbEntity
  8
mechanical
 62
7
100
AcDbSpline
 70
8
 71
3
 72
8
 73
4
 74
0
 40
0
 40
0
 40
0
 40
0
 40
1
 40
1
 40
1
 40
1
 10
118.649896
 20
160.507299
 30
0.0
 10
118.649896
 20
159.917811
 30
0.0
 10
118.335408
 20
159.373101
 30
0.0
 10
117.824896
 20
159.078357
 30
0.0
  0
SPLINE
  5
177
100
AcDbEntity
  8
mechanical
 62
7
100
AcDbSpline
 70
8
 71
3
 72
8
 73
4
 74
0
 40
0
 40
0
 40
0
 40
0
 40
1
 40
1
 40
1
 40
1
 10
117.824896
 20
159.078357
 30
0.0
 10
117.314384
 20
158.783613
 30
0.0
 10
116.685408
 20
158.783613
 30
0.0
 10
116.174896
 20
159.078357
 30
0.0
  0
SPLINE
  5
178
100
AcDbEntity
  8
mechanical
 62
7
100
AcDbSpline
 70
8
 71
3
 72
8
 73
4
 74
0
 40
0
 40
0
 40
0
 40
0
 40
1
 40
1
 40
1
 40
1
 10
116.174896
 20
159.078357
 30
0.0
 10
115.664384
 20
159.373101
 30
0.0
 10
115.349896
 20
159.917811
 30
0.0
 10
115.349896
 20
160.507299
 30
0.0
  0
SPLINE
  5
179
100
AcDbEntity
  8
mechanical
 62
7
100
AcDbSpline
 70
8
 71
3
 72
8
 73
4
 74
0
 40
0
 40
0
 40
0
 40
0
 40
1
 40
1
 40
1
 40
1
 10
115.349896
 20
160.507299
 30
0.0
 10
115.349896
 20
161.096787
 30
0.0
 10
115.664384
 20
161.641497
 30
0.0
 10
116.174896
 20
161.936241
 30
0.0
  0
SPLINE
  5
17a
100
AcDbEntity
  8
mechanical
 62
7
100
AcDbSpline
 70
8
 71
3
 72
8
 73
4
 74
0
 40
0
 40
0
 40
0
 40
0
 40
1
 40
1
 40
1
 40
1
 10
116.174896
 20
161.936241
 30
0.0
 10
116.685408
 20
162.230985
 30
0.0
 10
117.314384
 20
162.230985
 30
0.0
 10
117.824896
 20
161.936241
 30
0.0
  0
SPLINE
  5
17b
100
AcDbEntity
  8
mechanical
 62
7
100
AcDbSpline
 70
8
 71
3
 72
8
 73
4
 74
0
 40
0
 40
0
 40
0
 40
0
 40
1
 40
1
 40
1
 40
1
 10
117.824896
 20
161.936241
 30
0.0
 10
118.335408
 20
161.641497
 30
0.0
 10
118.649896
 20
161.096787
 30
0.0
 10
118.649896
 20
160.507299
 30
0.0
  0
LWPOLYLINE
  5
17c
100
AcDbEntity
  8
mechanical
 62
7
100
AcDbPolyline
 90
1
 70
1
 10
106.650058
 20
174.007272
 30
0.0
  0
SPLINE
  5
17d
100
AcDbEntity
  8
mechanical
 62
7
100
AcDbSpline
 70
8
 71
3
 72
8
 73
4
 74
0
 40
0
 40
0
 40
0
 40
0
 40
1
 40
1
 40
1
 40
1
 10
69.650118
 20
160.507299
 30
0.0
 10
69.650118
 20
159.917811
 30
0.0
 10
69.335630
 20
159.373101
 30
0.0
 10
68.825118
 20
159.078357
 30
0.0
  0
SPLINE
  5
17e
100
AcDbEntity
  8
mechanical
 62
7
100
AcDbSpline
 70
8
 71
3
 72
8
 73
4
 74
0
 40
0
 40
0
 40
0
 40
0
 40
1
 40
1
 40
1
 40
1
 10
68.825118
 20
159.078357
 30
0.0
 10
68.314606
 20
158.783613
 30
0.0
 10
67.685630
 20
158.783613
 30
0.0
 10
67.175118
 20
159.078357
 30
0.0
  0
SPLINE
  5
17f
100
AcDbEntity
  8
mechanical
 62
7
100
AcDbSpline
 70
8
 71
3
 72
8
 73
4
 74
0
 40
0
 40
0
 40
0
 40
0
 40
1
 40
1
 40
1
 40
1
 10
67.175118
 20
159.078357
 30
0.0
 10
66.664606
 20
159.373101
 30
0.0
 10
66.350118
 20
159.917811
 30
0.0
 10
66.350118
 20
160.507299
 30
0.0
  0
SPLINE
  5
180
100
AcDbEntity
  8
mechanical
 62
7
100
AcDbSpline
 70
8
 71
3
 72
8
 73
4
 74
0
 40
0
 40
0
 40
0
 40
0
 40
1
 40
1
 40
1
 40
1
 10
66.350118
 20
160.507299
 30
0.0
 10
66.350118
 20
161.096787
 30
0.0
 10
66.664606
 20
161.641497
 30
0.0
 10
67.175118
 20
161.936241
 30
0.0
  0
SPLINE
  5
181
100
AcDbEntity
  8
mechanical
 62
7
100
AcDbSpline
 70
8
 71
3
 72
8
 73
4
 74
0
 40
0
 40
0
 40
0
 40
0
 40
1
 40
1
 40
1
 40
1
 10
67.175118
 20
161.936241
 30
0.0
 10
67.685630
 20
162.230985
 30
0.0
 10
68.314606
 20
162.230985
 30
0.0
 10
68.825118
 20
161.936241
 30
0.0
  0
SPLINE
  5
182
100
AcDbEntity
  8
mechanical
 62
7
100
AcDbSpline
 70
8
 71
3
 72
8
 73
4
 74
0
 40
0
 40
0
 40
0
 40
0
 40
1
 40
1
 40
1
 40
1
 10
68.825118
 20
161.936241
 30
0.0
 10
69.335630
 20
161.641497
 30
0.0
 10
69.650118
 20
161.096787
 30
0.0
 10
69.650118
 20
160.507299
 30
0.0
  0
LWPOLYLINE
  5
183
100
AcDbEntity
  8
mechanical
 62
7
100
AcDbPolyline
 90
1
 70
1
 10
118.649896
 20
160.507299
 30
0.0
  0
SPLINE
  5
184
100
AcDbEntity
  8
mechanical
 62
7
100
AcDbSpline
 70
8
 71
3
 72
8
 73
4
 74
0
 40
0
 40
0
 40
0
 40
0
 40
1
 40
1
 40
1
 40
1
 10
121.749896
 20
152.007316
 30
0.0
 10
121.749896
 20
150.310304
 30
0.0
 10
120.844551
 20
148.742201
 30
0.0
 10
119.374896
 20
147.893695
 30
0.0
  0
SPLINE
  5
185
100
AcDbEntity
  8
mechanical
 62
7
100
AcDbSpline
 70
8
 71
3
 72
8
 73
4
 74
0
 40
0
 40
0
 40
0
 40
0
 40
1
 40
1
 40
1
 40
1
 10
119.374896
 20
147.893695
 30
0.0
 10
117.905241
 20
147.045189
 30
0.0
 10
116.094551
 20
147.045189
 30
0.0
 10
114.624896
 20
147.893695
 30
0.0
  0
SPLINE
  5
186
100
AcDbEntity
  8
mechanical
 62
7
100
AcDbSpline
 70
8
 71
3
 72
8
 73
4
 74
0
 40
0
 40
0
 40
0
 40
0
 40
1
 40
1
 40
1
 40
1
 10
114.624896
 20
147.893695
 30
0.0
 10
113.155241
 20
148.742201
 30
0.0
 10
112.249896
 20
150.310304
 30
0.0
 10
112.249896
 20
152.007316
 30
0.0
  0
SPLINE
  5
187
100
AcDbEntity
  8
mechanical
 62
7
100
AcDbSpline
 70
8
 71
3
 72
8
 73
4
 74
0
 40
0
 40
0
 40
0
 40
0
 40
1
 40
1
 40
1
 40
1
 10
112.249896
 20
152.007316
 30
0.0
 10
112.249896
 20
153.704328
 30
0.0
 10
113.155241
 20
155.272431
 30
0.0
 10
114.624896
 20
156.120937
 30
0.0
  0
SPLINE
  5
188
100
AcDbEntity
  8
mechanical
 62
7
100
AcDbSpline
 70
8
 71
3
 72
8
 73
4
 74
0
 40
0
 40
0
 40
0
 40
0
 40
1
 40
1
 40
1
 40
1
 10
114.624896
 20
156.120937
 30
0.0
 10
116.094551
 20
156.969443
 30
0.0
 10
117.905241
 20
156.969443
 30
0.0
 10
119.374896
 20
156.120937
 30
0.0
  0
SPLINE
  5
189
100
AcDbEntity
  8
mechanical
 62
7
100
AcDbSpline
 70
8
 71
3
 72
8
 73
4
 74
0
 40
0
 40
0
 40
0
 40
0
 40
1
 40
1
 40
1
 40
1
 10
119.374896
 20
156.120937
 30
0.0
 10
120.844551
 20
155.272431
 30
0.0
 10
121.749896
 20
153.704328
 30
0.0
 10
121.749896
 20
152.007316
 30
0.0
  0
LWPOLYLINE
  5
18a
100
AcDbEntity
  8
mechanical
 62
7
100
AcDbPolyline
 90
1
 70
1
 10
69.650118
 20
160.507299
 30
0.0
  0
SPLINE
  5
18b
100
AcDbEntity
  8
mechanical
 62
7
100
AcDbSpline
 70
8
 71
3
 72
8
 73
4
 74
0
 40
0
 40
0
 40
0
 40
0
 40
1
 40
1
 40
1
 40
1
 10
72.750118
 20
152.007316
 30
0.0
 10
72.750118
 20
150.310304
 30
0.0
 10
71.844773
 20
148.742201
 30
0.0
 10
70.375118
 20
147.893695
 30
0.0
  0
SPLINE
  5
18c
100
AcDbEntity
  8
mechanical
 62
7
100
AcDbSpline
 70
8
 71
3
 72
8
 73
4
 74
0
 40
0
 40
0
 40
0
 40
0
 40
1
 40
1
 40
1
 40
1
 10
70.375118
 20
147.893695
 30
0.0
 10
68.905463
 20
147.045189
 30
0.0
 10
67.094773
 20
147.045189
 30
0.0
 10
65.625118
 20
147.893695
 30
0.0
  0
SPLINE
  5
18d
100
AcDbEntity
  8
mechanical
 62
7
100
AcDbSpline
 70
8
 71
3
 72
8
 73
4
 74
0
 40
0
 40
0
 40
0
 40
0
 40
1
 40
1
 40
1
 40
1
 10
65.625118
 20
147.893695
 30
0.0
 10
64.155463
 20
148.742201
 30
0.0
 10
63.250118
 20
150.310304
 30
0.0
 10
63.250118
 20
152.007316
 30
0.0
  0
SPLINE
  5
18e
100
AcDbEntity
  8
mechanical
 62
7
100
AcDbSpline
 70
8
 71
3
 72
8
 73
4
 74
0
 40
0
 40
0
 40
0
 40
0
 40
1
 40
1
 40
1
 40
1
 10
63.250118
 20
152.007316
 30
0.0
 10
63.250118
 20
153.704328
 30
0.0
 10
64.155463
 20
155.272431
 30
0.0
 10
65.625118
 20
156.120937
 30
0.0
  0
SPLINE
  5
18f
100
AcDbEntity
  8
mechanical
 62
7
100
AcDbSpline
 70
8
 71
3
 72
8
 73
4
 74
0
 40
0
 40
0
 40
0
 40
0
 40
1
 40
1
 40
1
 40
1
 10
65.625118
 20
156.120937
 30
0.0
 10
67.094773
 20
156.969443
 30
0.0
 10
68.905463
 20
156.969443
 30
0.0
 10
70.375118
 20
156.120937
 30
0.0
  0
SPLINE
  5
190
100
AcDbEntity
  8
mechanical
 62
7
100
AcDbSpline
 70
8
 71
3
 72
8
 73
4
 74
0
 40
0
 40
0
 40
0
 40
0
 40
1
 40
1
 40
1
 40
1
 10
70.375118
 20
156.120937
 30
0.0
 10
71.844773
 20
155.272431
 30
0.0
 10
72.750118
 20
153.704328
 30
0.0
 10
72.750118
 20
152.007316
 30
0.0
  0
LWPOLYLINE
  5
191
100
AcDbEntity
  8
mechanical
 62
7
100
AcDbPolyline
 90
1
 70
1
 10
121.749896
 20
152.007316
 30
0.0
  0
SPLINE
  5
192
100
AcDbEntity
  8
mechanical
 62
7
100
AcDbSpline
 70
8
 71
3
 72
8
 73
4
 74
0
 40
0
 40
0
 40
0
 40
0
 40
1
 40
1
 40
1
 40
1
 10
106.050042
 20
152.007316
 30
0.0
 10
106.050042
 20
150.917656
 30
0.0
 10
105.468716
 20
149.910768
 30
0.0
 10
104.525042
 20
149.365938
 30
0.0
  0
SPLINE
  5
193
100
AcDbEntity
  8
mechanical
 62
7
100
AcDbSpline
 70
8
 71
3
 72
8
 73
4
 74
0
 40
0
 40
0
 40
0
 40
0
 40
1
 40
1
 40
1
 40
1
 10
104.525042
 20
149.365938
 30
0.0
 10
103.581369
 20
148.821108
 30
0.0
 10
102.418716
 20
148.821108
 30
0.0
 10
101.475042
 20
149.365938
 30
0.0
  0
SPLINE
  5
194
100
AcDbEntity
  8
mechanical
 62
7
100
AcDbSpline
 70
8
 71
3
 72
8
 73
4
 74
0
 40
0
 40
0
 40
0
 40
0
 40
1
 40
1
 40
1
 40
1
 10
101.475042
 20
149.365938
 30
0.0
 10
100.531369
 20
149.910768
 30
0.0
 10
99.950042
 20
150.917656
 30
0.0
 10
99.950042
 20
152.007316
 30
0.0
  0
SPLINE
  5
195
100
AcDbEntity
  8
mechanical
 62
7
100
AcDbSpline
 70
8
 71
3
 72
8
 73
4
 74
0
 40
0
 40
0
 40
0
 40
0
 40
1
 40
1
 40
1
 40
1
 10
99.950042
 20
152.007316
 30
0.0
 10
99.950042
 20
153.096976
 30
0.0
 10
100.531369
 20
154.103864
 30
0.0
 10
101.475042
 20
154.648694
 30
0.0
  0
SPLINE
  5
196
100
AcDbEntity
  8
mechanical
 62
7
100
AcDbSpline
 70
8
 71
3
 72
8
 73
4
 74
0
 40
0
 40
0
 40
0
 40
0
 40
1
 40
1
 40
1
 40
1
 10
101.475042
 20
154.648694
 30
0.0
 10
102.418716
 20
155.193524
 30
0.0
 10
103.581369
 20
155.193524
 30
0.0
 10
104.525042
 20
154.648694
 30
0.0
  0
SPLINE
  5
197
100
AcDbEntity
  8
mechanical
 62
7
100
AcDbSpline
 70
8
 71
3
 72
8
 73
4
 74
0
 40
0
 40
0
 40
0
 40
0
 40
1
 40
1
 40
1
 40
1
 10
104.525042
 20
154.648694
 30
0.0
 10
105.468716
 20
154.103864
 30
0.0
 10
106.050042
 20
153.096976
 30
0.0
 10
106.050042
 20
152.007316
 30
0.0
  0
LWPOLYLINE
  5
198
100
AcDbEntity
  8
mechanical
 62
7
100
AcDbPolyline
 90
1
 70
1
 10
72.750118
 20
152.007316
 30
0.0
  0
SPLINE
  5
199
100
AcDbEntity
  8
mechanical
 62
7
100
AcDbSpline
 70
8
 71
3
 72
8
 73
4
 74
0
 40
0
 40
0
 40
0
 40
0
 40
1
 40
1
 40
1
 40
1
 10
85.050084
 20
152.007316
 30
0.0
 10
85.050084
 20
150.322848
 30
0.0
 10
83.684553
 20
148.957316
 30
0.0
 10
82.000084
 20
148.957316
 30
0.0
  0
SPLINE
  5
19a
100
AcDbEntity
  8
mechanical
 62
7
100
AcDbSpline
 70
8
 71
3
 72
8
 73
4
 74
0
 40
0
 40
0
 40
0
 40
0
 40
1
 40
1
 40
1
 40
1
 10
82.000084
 20
148.957316
 30
0.0
 10
80.315616
 20
148.957316
 30
0.0
 10
78.950084
 20
150.322848
 30
0.0
 10
78.950084
 20
152.007316
 30
0.0
  0
SPLINE
  5
19b
100
AcDbEntity
  8
mechanical
 62
7
100
AcDbSpline
 70
8
 71
3
 72
8
 73
4
 74
0
 40
0
 40
0
 40
0
 40
0
 40
1
 40
1
 40
1
 40
1
 10
78.950084
 20
152.007316
 30
0.0
 10
78.950084
 20
153.691784
 30
0.0
 10
80.315616
 20
155.057316
 30
0.0
 10
82.000084
 20
155.057316
 30
0.0
  0
SPLINE
  5
19c
100
AcDbEntity
  8
mechanical
 62
7
100
AcDbSpline
 70
8
 71
3
 72
8
 73
4
 74
0
 40
0
 40
0
 40
0
 40
0
 40
1
 40
1
 40
1
 40
1
 10
82.000084
 20
155.057316
 30
0.0
 10
83.684553
 20
155.057316
 30
0.0
 10
85.050084
 20
153.691784
 30
0.0
 10
85.050084
 20
152.007316
 30
0.0
  0
LWPOLYLINE
  5
19d
100
AcDbEntity
  8
mechanical
 62
7
100
AcDbPolyline
 90
1
 70
1
 10
106.050042
 20
152.007316
 30
0.0
  0
SPLINE
  5
19e
100
AcDbEntity
  8
mechanical
 62
7
100
AcDbSpline
 70
8
 71
3
 72
8
 73
4
 74
0
 40
0
 40
0
 40
0
 40
0
 40
1
 40
1
 40
1
 40
1
 10
71.050118
 20
132.007102
 30
0.0
 10
71.050118
 20
130.917442
 30
0.0
 10
70.468791
 20
129.910554
 30
0.0
 10
69.525118
 20
129.365724
 30
0.0
  0
SPLINE
  5
19f
100
AcDbEntity
  8
mechanical
 62
7
100
AcDbSpline
 70
8
 71
3
 72
8
 73
4
 74
0
 40
0
 40
0
 40
0
 40
0
 40
1
 40
1
 40
1
 40
1
 10
69.525118
 20
129.365724
 30
0.0
 10
68.581445
 20
128.820894
 30
0.0
 10
67.418791
 20
128.820894
 30
0.0
 10
66.475118
 20
129.365724
 30
0.0
  0
SPLINE
  5
1a0
100
AcDbEntity
  8
mechanical
 62
7
100
AcDbSpline
 70
8
 71
3
 72
8
 73
4
 74
0
 40
0
 40
0
 40
0
 40
0
 40
1
 40
1
 40
1
 40
1
 10
66.475118
 20
129.365724
 30
0.0
 10
65.531445
 20
129.910554
 30
0.0
 10
64.950118
 20
130.917442
 30
0.0
 10
64.950118
 20
132.007102
 30
0.0
  0
SPLINE
  5
1a1
100
AcDbEntity
  8
mechanical
 62
7
100
AcDbSpline
 70
8
 71
3
 72
8
 73
4
 74
0
 40
0
 40
0
 40
0
 40
0
 40
1
 40
1
 40
1
 40
1
 10
64.950118
 20
132.007102
 30
0.0
 10
64.950118
 20
133.096762
 30
0.0
 10
65.531445
 20
134.103650
 30
0.0
 10
66.475118
 20
134.648480
 30
0.0
  0
SPLINE
  5
1a2
100
AcDbEntity
  8
mechanical
 62
7
100
AcDbSpline
 70
8
 71
3
 72
8
 73
4
 74
0
 40
0
 40
0
 40
0
 40
0
 40
1
 40
1
 40
1
 40
1
 10
66.475118
 20
134.648480
 30
0.0
 10
67.418791
 20
135.193310
 30
0.0
 10
68.581445
 20
135.193310
 30
0.0
 10
69.525118
 20
134.648480
 30
0.0
  0
SPLINE
  5
1a3
100
AcDbEntity
  8
mechanical
 62
7
100
AcDbSpline
 70
8
 71
3
 72
8
 73
4
 74
0
 40
0
 40
0
 40
0
 40
0
 40
1
 40
1
 40
1
 40
1
 10
69.525118
 20
134.648480
 30
0.0
 10
70.468791
 20
134.103650
 30
0.0
 10
71.050118
 20
133.096762
 30
0.0
 10
71.050118
 20
132.007102
 30
0.0
  0
LWPOLYLINE
  5
1a4
100
AcDbEntity
  8
mechanical
 62
7
100
AcDbPolyline
 90
1
 70
1
 10
85.050084
 20
152.007316
 30
0.0
  0
SPLINE
  5
1a5
100
AcDbEntity
  8
mechanical
 62
7
100
AcDbSpline
 70
8
 71
3
 72
8
 73
4
 74
0
 40
0
 40
0
 40
0
 40
0
 40
1
 40
1
 40
1
 40
1
 10
85.050084
 20
132.007102
 30
0.0
 10
85.050084
 20
130.322634
 30
0.0
 10
83.684553
 20
128.957102
 30
0.0
 10
82.000084
 20
128.957102
 30
0.0
  0
SPLINE
  5
1a6
100
AcDbEntity
  8
mechanical
 62
7
100
AcDbSpline
 70
8
 71
3
 72
8
 73
4
 74
0
 40
0
 40
0
 40
0
 40
0
 40
1
 40
1
 40
1
 40
1
 10
82.000084
 20
128.957102
 30
0.0
 10
80.315616
 20
128.957102
 30
0.0
 10
78.950084
 20
130.322634
 30
0.0
 10
78.950084
 20
132.007102
 30
0.0
  0
SPLINE
  5
1a7
100
AcDbEntity
  8
mechanical
 62
7
100
AcDbSpline
 70
8
 71
3
 72
8
 73
4
 74
0
 40
0
 40
0
 40
0
 40
0
 40
1
 40
1
 40
1
 40
1
 10
78.950084
 20
132.007102
 30
0.0
 10
78.950084
 20
133.691570
 30
0.0
 10
80.315616
 20
135.057102
 30
0.0
 10
82.000084
 20
135.057102
 30
0.0
  0
SPLINE
  5
1a8
100
AcDbEntity
  8
mechanical
 62
7
100
AcDbSpline
 70
8
 71
3
 72
8
 73
4
 74
0
 40
0
 40
0
 40
0
 40
0
 40
1
 40
1
 40
1
 40
1
 10
82.000084
 20
135.057102
 30
0.0
 10
83.684553
 20
135.057102
 30
0.0
 10
85.050084
 20
133.691570
 30
0.0
 10
85.050084
 20
132.007102
 30
0.0
  0
LWPOLYLINE
  5
1a9
100
AcDbEntity
  8
mechanical
 62
7
100
AcDbPolyline
 90
1
 70
1
 10
71.050118
 20
132.007102
 30
0.0
  0
SPLINE
  5
1aa
100
AcDbEntity
  8
mechanical
 62
7
100
AcDbSpline
 70
8
 71
3
 72
8
 73
4
 74
0
 40
0
 40
0
 40
0
 40
0
 40
1
 40
1
 40
1
 40
1
 10
106.050042
 20
132.007102
 30
0.0
 10
106.050042
 20
130.917442
 30
0.0
 10
105.468716
 20
129.910554
 30
0.0
 10
104.525042
 20
129.365724
 30
0.0
  0
SPLINE
  5
1ab
100
AcDbEntity
  8
mechanical
 62
7
100
AcDbSpline
 70
8
 71
3
 72
8
 73
4
 74
0
 40
0
 40
0
 40
0
 40
0
 40
1
 40
1
 40
1
 40
1
 10
104.525042
 20
129.365724
 30
0.0
 10
103.581369
 20
128.820894
 30
0.0
 10
102.418716
 20
128.820894
 30
0.0
 10
101.475042
 20
129.365724
 30
0.0
  0
SPLINE
  5
1ac
100
AcDbEntity
  8
mechanical
 62
7
100
AcDbSpline
 70
8
 71
3
 72
8
 73
4
 74
0
 40
0
 40
0
 40
0
 40
0
 40
1
 40
1
 40
1
 40
1
 10
101.475042
 20
129.365724
 30
0.0
 10
100.531369
 20
129.910554
 30
0.0
 10
99.950042
 20
130.917442
 30
0.0
 10
99.950042
 20
132.007102
 30
0.0
  0
SPLINE
  5
1ad
100
AcDbEntity
  8
mechanical
 62
7
100
AcDbSpline
 70
8
 71
3
 72
8
 73
4
 74
0
 40
0
 40
0
 40
0
 40
0
 40
1
 40
1
 40
1
 40
1
 10
99.950042
 20
132.007102
 30
0.0
 10
99.950042
 20
133.096762
 30
0.0
 10
100.531369
 20
134.103650
 30
0.0
 10
101.475042
 20
134.648480
 30
0.0
  0
SPLINE
  5
1ae
100
AcDbEntity
  8
mechanical
 62
7
100
AcDbSpline
 70
8
 71
3
 72
8
 73
4
 74
0
 40
0
 40
0
 40
0
 40
0
 40
1
 40
1
 40
1
 40
1
 10
101.475042
 20
134.648480
 30
0.0
 10
102.418716
 20
135.193310
 30
0.0
 10
103.581369
 20
135.193310
 30
0.0
 10
104.525042
 20
134.648480
 30
0.0
  0
SPLINE
  5
1af
100
AcDbEntity
  8
mechanical
 62
7
100
AcDbSpline
 70
8
 71
3
 72
8
 73
4
 74
0
 40
0
 40
0
 40
0
 40
0
 40
1
 40
1
 40
1
 40
1
 10
104.525042
 20
134.648480
 30
0.0
 10
105.468716
 20
134.103650
 30
0.0
 10
106.050042
 20
133.096762
 30
0.0
 10
106.050042
 20
132.007102
 30
0.0
  0
LWPOLYLINE
  5
1b0
100
AcDbEntity
  8
mechanical
 62
7
100
AcDbPolyline
 90
1
 70
1
 10
85.050084
 20
132.007102
 30
0.0
  0
SPLINE
  5
1b1
100
AcDbEntity
  8
mechanical
 62
7
100
AcDbSpline
 70
8
 71
3
 72
8
 73
4
 74
0
 40
0
 40
0
 40
0
 40
0
 40
1
 40
1
 40
1
 40
1
 10
120.049896
 20
132.007102
 30
0.0
 10
120.049896
 20
130.917442
 30
0.0
 10
119.468569
 20
129.910554
 30
0.0
 10
118.524896
 20
129.365724
 30
0.0
  0
SPLINE
  5
1b2
100
AcDbEntity
  8
mechanical
 62
7
100
AcDbSpline
 70
8
 71
3
 72
8
 73
4
 74
0
 40
0
 40
0
 40
0
 40
0
 40
1
 40
1
 40
1
 40
1
 10
118.524896
 20
129.365724
 30
0.0
 10
117.581223
 20
128.820894
 30
0.0
 10
116.418569
 20
128.820894
 30
0.0
 10
115.474896
 20
129.365724
 30
0.0
  0
SPLINE
  5
1b3
100
AcDbEntity
  8
mechanical
 62
7
100
AcDbSpline
 70
8
 71
3
 72
8
 73
4
 74
0
 40
0
 40
0
 40
0
 40
0
 40
1
 40
1
 40
1
 40
1
 10
115.474896
 20
129.365724
 30
0.0
 10
114.531222
 20
129.910554
 30
0.0
 10
113.949896
 20
130.917442
 30
0.0
 10
113.949896
 20
132.007102
 30
0.0
  0
SPLINE
  5
1b4
100
AcDbEntity
  8
mechanical
 62
7
100
AcDbSpline
 70
8
 71
3
 72
8
 73
4
 74
0
 40
0
 40
0
 40
0
 40
0
 40
1
 40
1
 40
1
 40
1
 10
113.949896
 20
132.007102
 30
0.0
 10
113.949896
 20
133.096762
 30
0.0
 10
114.531222
 20
134.103650
 30
0.0
 10
115.474896
 20
134.648480
 30
0.0
  0
SPLINE
  5
1b5
100
AcDbEntity
  8
mechanical
 62
7
100
AcDbSpline
 70
8
 71
3
 72
8
 73
4
 74
0
 40
0
 40
0
 40
0
 40
0
 40
1
 40
1
 40
1
 40
1
 10
115.474896
 20
134.648480
 30
0.0
 10
116.418569
 20
135.193310
 30
0.0
 10
117.581223
 20
135.193310
 30
0.0
 10
118.524896
 20
134.648480
 30
0.0
  0
SPLINE
  5
1b6
100
AcDbEntity
  8
mechanical
 62
7
100
AcDbSpline
 70
8
 71
3
 72
8
 73
4
 74
0
 40
0
 40
0
 40
0
 40
0
 40
1
 40
1
 40
1
 40
1
 10
118.524896
 20
134.648480
 30
0.0
 10
119.468569
 20
134.103650
 30
0.0
 10
120.049896
 20
133.096762
 30
0.0
 10
120.049896
 20
132.007102
 30
0.0
  0
LWPOLYLINE
  5
1b7
100
AcDbEntity
  8
mechanical
 62
7
100
AcDbPolyline
 90
1
 70
1
 10
106.050042
 20
132.007102
 30
0.0
  0
SPLINE
  5
1b8
100
AcDbEntity
  8
mechanical
 62
7
100
AcDbSpline
 70
8
 71
3
 72
8
 73
4
 74
0
 40
0
 40
0
 40
0
 40
0
 40
1
 40
1
 40
1
 40
1
 10
85.050084
 20
112.007142
 30
0.0
 10
85.050084
 20
110.322674
 30
0.0
 10
83.684553
 20
108.957142
 30
0.0
 10
82.000084
 20
108.957142
 30
0.0
  0
SPLINE
  5
1b9
100
AcDbEntity
  8
mechanical
 62
7
100
AcDbSpline
 70
8
 71
3
 72
8
 73
4
 74
0
 40
0
 40
0
 40
0
 40
0
 40
1
 40
1
 40
1
 40
1
 10
82.000084
 20
108.957142
 30
0.0
 10
80.315616
 20
108.957142
 30
0.0
 10
78.950084
 20
110.322674
 30
0.0
 10
78.950084
 20
112.007142
 30
0.0
  0
SPLINE
  5
1ba
100
AcDbEntity
  8
mechanical
 62
7
100
AcDbSpline
 70
8
 71
3
 72
8
 73
4
 74
0
 40
0
 40
0
 40
0
 40
0
 40
1
 40
1
 40
1
 40
1
 10
78.950084
 20
112.007142
 30
0.0
 10
78.950084
 20
113.691610
 30
0.0
 10
80.315616
 20
115.057142
 30
0.0
 10
82.000084
 20
115.057142
 30
0.0
  0
SPLINE
  5
1bb
100
AcDbEntity
  8
mechanical
 62
7
100
AcDbSpline
 70
8
 71
3
 72
8
 73
4
 74
0
 40
0
 40
0
 40
0
 40
0
 40
1
 40
1
 40
1
 40
1
 10
82.000084
 20
115.057142
 30
0.0
 10
83.684553
 20
115.057142
 30
0.0
 10
85.050084
 20
113.691610
 30
0.0
 10
85.050084
 20
112.007142
 30
0.0
  0
LWPOLYLINE
  5
1bc
100
AcDbEntity
  8
mechanical
 62
7
100
AcDbPolyline
 90
1
 70
1
 10
120.049896
 20
132.007102
 30
0.0
  0
SPLINE
  5
1bd
100
AcDbEntity
  8
mechanical
 62
7
100
AcDbSpline
 70
8
 71
3
 72
8
 73
4
 74
0
 40
0
 40
0
 40
0
 40
0
 40
1
 40
1
 40
1
 40
1
 10
71.050118
 20
112.007142
 30
0.0
 10
71.050118
 20
110.917482
 30
0.0
 10
70.468791
 20
109.910594
 30
0.0
 10
69.525118
 20
109.365764
 30
0.0
  0
SPLINE
  5
1be
100
AcDbEntity
  8
mechanical
 62
7
100
AcDbSpline
 70
8
 71
3
 72
8
 73
4
 74
0
 40
0
 40
0
 40
0
 40
0
 40
1
 40
1
 40
1
 40
1
 10
69.525118
 20
109.365764
 30
0.0
 10
68.581445
 20
108.820934
 30
0.0
 10
67.418791
 20
108.820934
 30
0.0
 10
66.475118
 20
109.365764
 30
0.0
  0
SPLINE
  5
1bf
100
AcDbEntity
  8
mechanical
 62
7
100
AcDbSpline
 70
8
 71
3
 72
8
 73
4
 74
0
 40
0
 40
0
 40
0
 40
0
 40
1
 40
1
 40
1
 40
1
 10
66.475118
 20
109.365764
 30
0.0
 10
65.531445
 20
109.910594
 30
0.0
 10
64.950118
 20
110.917482
 30
0.0
 10
64.950118
 20
112.007142
 30
0.0
  0
SPLINE
  5
1c0
100
AcDbEntity
  8
mechanical
 62
7
100
AcDbSpline
 70
8
 71
3
 72
8
 73
4
 74
0
 40
0
 40
0
 40
0
 40
0
 40
1
 40
1
 40
1
 40
1
 10
64.950118
 20
112.007142
 30
0.0
 10
64.950118
 20
113.096802
 30
0.0
 10
65.531445
 20
114.103690
 30
0.0
 10
66.475118
 20
114.648520
 30
0.0
  0
SPLINE
  5
1c1
100
AcDbEntity
  8
mechanical
 62
7
100
AcDbSpline
 70
8
 71
3
 72
8
 73
4
 74
0
 40
0
 40
0
 40
0
 40
0
 40
1
 40
1
 40
1
 40
1
 10
66.475118
 20
114.648520
 30
0.0
 10
67.418791
 20
115.193350
 30
0.0
 10
68.581445
 20
115.193350
 30
0.0
 10
69.525118
 20
114.648520
 30
0.0
  0
SPLINE
  5
1c2
100
AcDbEntity
  8
mechanical
 62
7
100
AcDbSpline
 70
8
 71
3
 72
8
 73
4
 74
0
 40
0
 40
0
 40
0
 40
0
 40
1
 40
1
 40
1
 40
1
 10
69.525118
 20
114.648520
 30
0.0
 10
70.468791
 20
114.103690
 30
0.0
 10
71.050118
 20
113.096802
 30
0.0
 10
71.050118
 20
112.007142
 30
0.0
  0
LWPOLYLINE
  5
1c3
100
AcDbEntity
  8
mechanical
 62
7
100
AcDbPolyline
 90
1
 70
1
 10
85.050084
 20
112.007142
 30
0.0
  0
SPLINE
  5
1c4
100
AcDbEntity
  8
mechanical
 62
7
100
AcDbSpline
 70
8
 71
3
 72
8
 73
4
 74
0
 40
0
 40
0
 40
0
 40
0
 40
1
 40
1
 40
1
 40
1
 10
88.549967
 20
86.507244
 30
0.0
 10
88.549967
 20
85.417584
 30
0.0
 10
87.968641
 20
84.410696
 30
0.0
 10
87.024967
 20
83.865866
 30
0.0
  0
SPLINE
  5
1c5
100
AcDbEntity
  8
mechanical
 62
7
100
AcDbSpline
 70
8
 71
3
 72
8
 73
4
 74
0
 40
0
 40
0
 40
0
 40
0
 40
1
 40
1
 40
1
 40
1
 10
87.024967
 20
83.865866
 30
0.0
 10
86.081294
 20
83.321036
 30
0.0
 10
84.918641
 20
83.321036
 30
0.0
 10
83.974967
 20
83.865866
 30
0.0
  0
SPLINE
  5
1c6
100
AcDbEntity
  8
mechanical
 62
7
100
AcDbSpline
 70
8
 71
3
 72
8
 73
4
 74
0
 40
0
 40
0
 40
0
 40
0
 40
1
 40
1
 40
1
 40
1
 10
83.974967
 20
83.865866
 30
0.0
 10
83.031294
 20
84.410696
 30
0.0
 10
82.449967
 20
85.417584
 30
0.0
 10
82.449967
 20
86.507244
 30
0.0
  0
SPLINE
  5
1c7
100
AcDbEntity
  8
mechanical
 62
7
100
AcDbSpline
 70
8
 71
3
 72
8
 73
4
 74
0
 40
0
 40
0
 40
0
 40
0
 40
1
 40
1
 40
1
 40
1
 10
82.449967
 20
86.507244
 30
0.0
 10
82.449967
 20
87.596904
 30
0.0
 10
83.031294
 20
88.603791
 30
0.0
 10
83.974967
 20
89.148621
 30
0.0
  0
SPLINE
  5
1c8
100
AcDbEntity
  8
mechanical
 62
7
100
AcDbSpline
 70
8
 71
3
 72
8
 73
4
 74
0
 40
0
 40
0
 40
0
 40
0
 40
1
 40
1
 40
1
 40
1
 10
83.974967
 20
89.148621
 30
0.0
 10
84.918641
 20
89.693451
 30
0.0
 10
86.081294
 20
89.693451
 30
0.0
 10
87.024967
 20
89.148621
 30
0.0
  0
SPLINE
  5
1c9
100
AcDbEntity
  8
mechanical
 62
7
100
AcDbSpline
 70
8
 71
3
 72
8
 73
4
 74
0
 40
0
 40
0
 40
0
 40
0
 40
1
 40
1
 40
1
 40
1
 10
87.024967
 20
89.148621
 30
0.0
 10
87.968641
 20
88.603791
 30
0.0
 10
88.549967
 20
87.596904
 30
0.0
 10
88.549967
 20
86.507244
 30
0.0
  0
LWPOLYLINE
  5
1ca
100
AcDbEntity
  8
mechanical
 62
7
100
AcDbPolyline
 90
1
 70
1
 10
71.050118
 20
112.007142
 30
0.0
  0
SPLINE
  5
1cb
100
AcDbEntity
  8
mechanical
 62
7
100
AcDbSpline
 70
8
 71
3
 72
8
 73
4
 74
0
 40
0
 40
0
 40
0
 40
0
 40
1
 40
1
 40
1
 40
1
 10
102.549939
 20
86.507244
 30
0.0
 10
102.549939
 20
84.822775
 30
0.0
 10
101.184408
 20
83.457244
 30
0.0
 10
99.499939
 20
83.457244
 30
0.0
  0
SPLINE
  5
1cc
100
AcDbEntity
  8
mechanical
 62
7
100
AcDbSpline
 70
8
 71
3
 72
8
 73
4
 74
0
 40
0
 40
0
 40
0
 40
0
 40
1
 40
1
 40
1
 40
1
 10
99.499939
 20
83.457244
 30
0.0
 10
97.815471
 20
83.457244
 30
0.0
 10
96.449939
 20
84.822775
 30
0.0
 10
96.449939
 20
86.507244
 30
0.0
  0
SPLINE
  5
1cd
100
AcDbEntity
  8
mechanical
 62
7
100
AcDbSpline
 70
8
 71
3
 72
8
 73
4
 74
0
 40
0
 40
0
 40
0
 40
0
 40
1
 40
1
 40
1
 40
1
 10
96.449939
 20
86.507244
 30
0.0
 10
96.449939
 20
88.191712
 30
0.0
 10
97.815471
 20
89.557244
 30
0.0
 10
99.499939
 20
89.557244
 30
0.0
  0
SPLINE
  5
1ce
100
AcDbEntity
  8
mechanical
 62
7
100
AcDbSpline
 70
8
 71
3
 72
8
 73
4
 74
0
 40
0
 40
0
 40
0
 40
0
 40
1
 40
1
 40
1
 40
1
 10
99.499939
 20
89.557244
 30
0.0
 10
101.184408
 20
89.557244
 30
0.0
 10
102.549939
 20
88.191712
 30
0.0
 10
102.549939
 20
86.507244
 30
0.0
  0
LWPOLYLINE
  5
1cf
100
AcDbEntity
  8
mechanical
 62
7
100
AcDbPolyline
 90
1
 70
1
 10
88.549967
 20
86.507244
 30
0.0
  0
SPLINE
  5
1d0
100
AcDbEntity
  8
mechanical
 62
7
100
AcDbSpline
 70
8
 71
3
 72
8
 73
4
 74
0
 40
0
 40
0
 40
0
 40
0
 40
1
 40
1
 40
1
 40
1
 10
120.049896
 20
86.507244
 30
0.0
 10
120.049896
 20
85.417584
 30
0.0
 10
119.468569
 20
84.410696
 30
0.0
 10
118.524896
 20
83.865866
 30
0.0
  0
SPLINE
  5
1d1
100
AcDbEntity
  8
mechanical
 62
7
100
AcDbSpline
 70
8
 71
3
 72
8
 73
4
 74
0
 40
0
 40
0
 40
0
 40
0
 40
1
 40
1
 40
1
 40
1
 10
118.524896
 20
83.865866
 30
0.0
 10
117.581223
 20
83.321036
 30
0.0
 10
116.418569
 20
83.321036
 30
0.0
 10
115.474896
 20
83.865866
 30
0.0
  0
SPLINE
  5
1d2
100
AcDbEntity
  8
mechanical
 62
7
100
AcDbSpline
 70
8
 71
3
 72
8
 73
4
 74
0
 40
0
 40
0
 40
0
 40
0
 40
1
 40
1
 40
1
 40
1
 10
115.474896
 20
83.865866
 30
0.0
 10
114.531222
 20
84.410696
 30
0.0
 10
113.949896
 20
85.417584
 30
0.0
 10
113.949896
 20
86.507244
 30
0.0
  0
SPLINE
  5
1d3
100
AcDbEntity
  8
mechanical
 62
7
100
AcDbSpline
 70
8
 71
3
 72
8
 73
4
 74
0
 40
0
 40
0
 40
0
 40
0
 40
1
 40
1
 40
1
 40
1
 10
113.949896
 20
86.507244
 30
0.0
 10
113.949896
 20
87.596904
 30
0.0
 10
114.531222
 20
88.603791
 30
0.0
 10
115.474896
 20
89.148621
 30
0.0
  0
SPLINE
  5
1d4
100
AcDbEntity
  8
mechanical
 62
7
100
AcDbSpline
 70
8
 71
3
 72
8
 73
4
 74
0
 40
0
 40
0
 40
0
 40
0
 40
1
 40
1
 40
1
 40
1
 10
115.474896
 20
89.148621
 30
0.0
 10
116.418569
 20
89.693451
 30
0.0
 10
117.581223
 20
89.693451
 30
0.0
 10
118.524896
 20
89.148621
 30
0.0
  0
SPLINE
  5
1d5
100
AcDbEntity
  8
mechanical
 62
7
100
AcDbSpline
 70
8
 71
3
 72
8
 73
4
 74
0
 40
0
 40
0
 40
0
 40
0
 40
1
 40
1
 40
1
 40
1
 10
118.524896
 20
89.148621
 30
0.0
 10
119.468569
 20
88.603791
 30
0.0
 10
120.049896
 20
87.596904
 30
0.0
 10
120.049896
 20
86.507244
 30
0.0
  0
LWPOLYLINE
  5
1d6
100
AcDbEntity
  8
mechanical
 62
7
100
AcDbPolyline
 90
1
 70
1
 10
102.549939
 20
86.507244
 30
0.0
  0
LWPOLYLINE
  5
1d7
100
AcDbEntity
  8
mechanical
 62
7
100
AcDbPolyline
 90
1
 70
1
 10
120.049896
 20
86.507244
 30
0.0
  0
LWPOLYLINE
  5
1d8
100
AcDbEntity
  8
mechanical
 62
7
100
AcDbPolyline
 90
4
 70
1
 10
106.750022
 20
143.757275
 30
0.0
 10
113.250022
 20
143.757275
 30
0.0
 10
113.250022
 20
140.257275
 30
0.0
 10
106.750022
 20
140.257275
 30
0.0
  0
ENDSEC
  0
SECTION
  2
OBJECTS
  0
DICTIONARY
  5
C
330
0
100
AcDbDictionary
  3
ACAD_GROUP
350
D
  3
ACAD_MLINESTYLE
350
17
  0
DICTIONARY
  5
D
330
C
100
AcDbDictionary
  0
DICTIONARY
  5
1A
330
C
100
AcDbDictionary
  0
DICTIONARY
  5
17
330
C
100
AcDbDictionary
  3
STANDARD
350
18
  0
DICTIONARY
  5
19
330
C
100
AcDbDictionary
  0
ENDSEC
  0
EOF
