  0
SECTION
  2
HEADER
  9
$ACADVER
  1
AC1009
  9
$DWGCODEPAGE
  3
ansi_1252
  9
$INSBASE
 10
0.0
 20
0.0
 30
0.0
  9
$EXTMIN
 10
67.00011699999999
 20
85.50724439620971
 30
0.0
  9
$EXTMAX
 10
117.999892
 20
185.0071303367615
 30
0.0
  9
$LIMMIN
 10
0.0
 20
0.0
  9
$LIMMAX
 10
420.0
 20
297.0
  9
$ORTHOMODE
 70
     0
  9
$REGENMODE
 70
     1
  9
$FILLMODE
 70
     1
  9
$QTEXTMODE
 70
     0
  9
$MIRRTEXT
 70
     1
  9
$DRAGMODE
 70
     2
  9
$LTSCALE
 40
1.0
  9
$OSMODE
 70
    37
  9
$ATTMODE
 70
     1
  9
$TEXTSIZE
 40
2.5
  9
$TRACEWID
 40
1.0
  9
$TEXTSTYLE
  7
STANDARD
  9
$CLAYER
  8
0
  9
$CELTYPE
  6
BYLAYER
  9
$CECOLOR
 62
   256
  9
$DIMSCALE
 40
1.0
  9
$DIMASZ
 40
2.5
  9
$DIMEXO
 40
0.625
  9
$DIMDLI
 40
3.75
  9
$DIMRND
 40
0.0
  9
$DIMDLE
 40
0.0
  9
$DIMEXE
 40
1.25
  9
$DIMTP
 40
0.0
  9
$DIMTM
 40
0.0
  9
$DIMTXT
 40
2.5
  9
$DIMCEN
 40
2.5
  9
$DIMTSZ
 40
0.0
  9
$DIMTOL
 70
     0
  9
$DIMLIM
 70
     0
  9
$DIMTIH
 70
     0
  9
$DIMTOH
 70
     0
  9
$DIMSE1
 70
     0
  9
$DIMSE2
 70
     0
  9
$DIMTAD
 70
     1
  9
$DIMZIN
 70
     8
  9
$DIMBLK
  1

  9
$DIMASO
 70
     1
  9
$DIMSHO
 70
     1
  9
$DIMPOST
  1

  9
$DIMAPOST
  1

  9
$DIMALT
 70
     0
  9
$DIMALTD
 70
     3
  9
$DIMALTF
 40
0.03937007874016
  9
$DIMLFAC
 40
1.0
  9
$DIMTOFL
 70
     1
  9
$DIMTVP
 40
0.0
  9
$DIMTIX
 70
     0
  9
$DIMSOXD
 70
     0
  9
$DIMSAH
 70
     0
  9
$DIMBLK1
  1

  9
$DIMBLK2
  1

  9
$DIMSTYLE
  2
ISO-25
  9
$DIMCLRD
 70
     0
  9
$DIMCLRE
 70
     0
  9
$DIMCLRT
 70
     0
  9
$DIMTFAC
 40
1.0
  9
$DIMGAP
 40
0.625
  9
$LUNITS
 70
     2
  9
$LUPREC
 70
     4
  9
$SKETCHINC
 40
1.0
  9
$FILLETRAD
 40
10.0
  9
$AUNITS
 70
     0
  9
$AUPREC
 70
     0
  9
$MENU
  1
.
  9
$ELEVATION
 40
0.0
  9
$PELEVATION
 40
0.0
  9
$THICKNESS
 40
0.0
  9
$LIMCHECK
 70
     0
  9
$CHAMFERA
 40
0.0
  9
$CHAMFERB
 40
0.0
  9
$SKPOLY
 70
     0
  9
$TDCREATE
 40
2305814.402314815
  9
$TDUPDATE
 40
2457734.610659525
  9
$TDINDWG
 40
0.0000000116
  9
$TDUSRTIMER
 40
0.0000000116
  9
$USRTIMER
 70
     1
  9
$ANGBASE
 50
0.0
  9
$ANGDIR
 70
     0
  9
$PDMODE
 70
     0
  9
$PDSIZE
 40
0.0
  9
$PLINEWID
 40
0.0
  9
$COORDS
 70
     1
  9
$SPLFRAME
 70
     0
  9
$SPLINETYPE
 70
     6
  9
$SPLINESEGS
 70
     8
  9
$ATTDIA
 70
     0
  9
$ATTREQ
 70
     1
  9
$HANDLING
 70
     1
  9
$HANDSEED
  5
147
  9
$SURFTAB1
 70
     6
  9
$SURFTAB2
 70
     6
  9
$SURFTYPE
 70
     6
  9
$SURFU
 70
     6
  9
$SURFV
 70
     6
  9
$UCSNAME
  2

  9
$UCSORG
 10
0.0
 20
0.0
 30
0.0
  9
$UCSXDIR
 10
1.0
 20
0.0
 30
0.0
  9
$UCSYDIR
 10
0.0
 20
1.0
 30
0.0
  9
$PUCSNAME
  2

  9
$PUCSORG
 10
0.0
 20
0.0
 30
0.0
  9
$PUCSXDIR
 10
1.0
 20
0.0
 30
0.0
  9
$PUCSYDIR
 10
0.0
 20
1.0
 30
0.0
  9
$USERI1
 70
     0
  9
$USERI2
 70
     0
  9
$USERI3
 70
     0
  9
$USERI4
 70
     0
  9
$USERI5
 70
     0
  9
$USERR1
 40
0.0
  9
$USERR2
 40
0.0
  9
$USERR3
 40
0.0
  9
$USERR4
 40
0.0
  9
$USERR5
 40
0.0
  9
$WORLDVIEW
 70
     1
  9
$SHADEDGE
 70
     3
  9
$SHADEDIF
 70
    70
  9
$TILEMODE
 70
     1
  9
$MAXACTVP
 70
    64
  9
$PLIMCHECK
 70
     0
  9
$PEXTMIN
 10
1.000000000000000E+20
 20
1.000000000000000E+20
 30
1.000000000000000E+20
  9
$PEXTMAX
 10
-1.000000000000000E+20
 20
-1.000000000000000E+20
 30
-1.000000000000000E+20
  9
$PLIMMIN
 10
0.0
 20
0.0
  9
$PLIMMAX
 10
420.0
 20
297.0
  9
$UNITMODE
 70
     0
  9
$VISRETAIN
 70
     1
  9
$PLINEGEN
 70
     0
  9
$PSLTSCALE
 70
     1
  0
ENDSEC
  0
SECTION
  2
TABLES
  0
TABLE
  2
VPORT
 70
     1
  0
VPORT
  2
*ACTIVE
 70
     0
 10
0.0
 20
0.0
 11
1.0
 21
1.0
 12
92.50000449999999
 22
135.2571845
 13
0.0
 23
0.0
 14
10.0
 24
10.0
 15
10.0
 25
10.0
 16
0.0
 26
0.0
 36
1.0
 17
0.0
 27
0.0
 37
0.0
 40
101.48987862
 41
0.5125611657766708
 42
50.0
 43
0.0
 44
0.0
 50
0.0
 51
0.0
 71
     0
 72
   100
 73
     1
 74
     3
 75
     0
 76
     0
 77
     0
 78
     0
  0
ENDTAB
  0
TABLE
  2
LTYPE
 70
    11
  0
LTYPE
  2
CONTINUOUS
 70
     0
  3
Solid line
 72
    65
 73
     0
 40
0.0
  0
LTYPE
  2
BORDER
 70
     0
  3
__ __ . __ __ . __ 
 72
    65
 73
     6
 40
0.875
 49
0.25
 49
-0.125
 49
0.25
 49
-0.125
 49
0.0
 49
-0.125
  0
LTYPE
  2
CENTER
 70
     0
  3
___ _ ___ _ ___ _ _
 72
    65
 73
     4
 40
1.125
 49
0.75
 49
-0.125
 49
0.125
 49
-0.125
  0
LTYPE
  2
DASHDOT
 70
     0
  3
_._._._._._._._._._
 72
    65
 73
     4
 40
0.5
 49
0.25
 49
-0.125
 49
0.0
 49
-0.125
  0
LTYPE
  2
DASHED
 70
     0
  3
_ _ _ _ _ _ _ _ _ _
 72
    65
 73
     2
 40
0.375
 49
0.25
 49
-0.125
  0
LTYPE
  2
DIVIDE
 70
     0
  3
__..__..__..__..__.
 72
    65
 73
     6
 40
0.625
 49
0.25
 49
-0.125
 49
0.0
 49
-0.125
 49
0.0
 49
-0.125
  0
LTYPE
  2
DOT
 70
     0
  3
...................
 72
    65
 73
     2
 40
0.125
 49
0.0
 49
-0.125
  0
LTYPE
  2
HIDDEN
 70
     0
  3
__ __ __ __ __ __ _
 72
    65
 73
     2
 40
0.1875
 49
0.125
 49
-0.0625
  0
LTYPE
  2
PHANTOM
 70
     0
  3
___ _ _ ___ _ _ ___
 72
    65
 73
     6
 40
1.25
 49
0.625
 49
-0.125
 49
0.125
 49
-0.125
 49
0.125
 49
-0.125
  0
LTYPE
  2
CUTTING
 70
     0
  3
________ _ _ ______
 72
    65
 73
     6
 40
1.4675
 49
1.0
 49
-0.0725
 49
0.125
 49
-0.0725
 49
0.125
 49
-0.0725
  0
LTYPE
  2
STITCH
 70
     0
  3
_ _ _ _ _ _ _ _ _ _
 72
    65
 73
     2
 40
0.145
 49
0.0725
 49
-0.0725
  0
ENDTAB
  0
TABLE
  2
LAYER
 70
     4
  0
LAYER
  2
0
 70
     0
 62
     7
  6
CONTINUOUS
  0
LAYER
  2
DXF_HOLE_CENTRES
 70
     0
 62
     7
  6
CONTINUOUS
  0
LAYER
  2
DXF_HOLE_CENTRES_MODEL
 70
     0
 62
     7
  6
CONTINUOUS
  0
LAYER
  2
DXF_HOLE_CENTRES_MODEL_HOL
 70
     0
 62
     7
  6
CONTINUOUS
  0
ENDTAB
  0
TABLE
  2
STYLE
 70
     1
  0
STYLE
  2
STANDARD
 70
     0
 40
0.0
 41
1.0
 50
0.0
 71
     0
 42
2.5
  3
txt
  4

  0
ENDTAB
  0
TABLE
  2
VIEW
 70
     0
  0
ENDTAB
  0
TABLE
  2
UCS
 70
     0
  0
ENDTAB
  0
TABLE
  2
APPID
 70
     2
  0
APPID
  2
ACAD
 70
     0
  0
APPID
  2
ENCORE_SOFTWARE_VIACAD
 70
     0
  0
ENDTAB
  0
TABLE
  2
DIMSTYLE
 70
     1
  0
DIMSTYLE
  2
ISO-25
 70
     0
  3

  4

  5

  6

  7

 40
1.0
 41
2.5
 42
0.625
 43
3.75
 44
1.25
 45
0.0
 46
0.0
 47
0.0
 48
0.0
140
2.5
141
2.5
142
0.0
143
0.03937007874016
144
1.0
145
0.0
146
1.0
147
0.625
 71
     0
 72
     0
 73
     0
 74
     0
 75
     0
 76
     0
 77
     1
 78
     8
170
     0
171
     3
172
     1
173
     0
174
     0
175
     0
176
     0
177
     0
178
     0
  0
ENDTAB
  0
ENDSEC
  0
SECTION
  2
BLOCKS
  0
BLOCK
  8
0
  2
$MODEL_SPACE
 70
     0
 10
0.0
 20
0.0
 30
0.0
  3
$MODEL_SPACE
  1

  0
ENDBLK
  5
21
  8
0
  0
BLOCK
 67
     1
  8
0
  2
$PAPER_SPACE
 70
     0
 10
0.0
 20
0.0
 30
0.0
  3
$PAPER_SPACE
  1

  0
ENDBLK
  5
1D
 67
     1
  8
0
  0
ENDSEC
  0
SECTION
  2
ENTITIES
  0
POLYLINE
  5
78
  8
0
 62
     7
 10
0.0
 20
0.0
 30
0.0
 66
     1
 70
     8
  0
VERTEX
  5
79
  8
0
 62
     7
 10
68.000117
 20
177.50714
 30
0.0
 70
    32
  0
VERTEX
  5
7A
  8
0
 62
     7
 10
68.000117
 20
175.50714
 30
0.0
 70
    32
  0
VERTEX
  5
7B
  8
0
 62
     7
 10
68.000117
 20
175.50714
 30
0.0
 70
    32
  0
VERTEX
  5
7C
  8
0
 62
     7
 10
68.000117
 20
175.50714
 30
0.0
 70
    32
  0
SEQEND
  5
7D
  8
0
 62
     7
  0
POLYLINE
  5
7E
  8
0
 62
     7
 10
0.0
 20
0.0
 30
0.0
 66
     1
 70
     8
  0
VERTEX
  5
7F
  8
0
 62
     7
 10
116.999892
 20
177.507267
 30
0.0
 70
    32
  0
VERTEX
  5
80
  8
0
 62
     7
 10
116.999892
 20
175.507267
 30
0.0
 70
    32
  0
VERTEX
  5
81
  8
0
 62
     7
 10
116.999892
 20
175.507267
 30
0.0
 70
    32
  0
VERTEX
  5
82
  8
0
 62
     7
 10
116.999892
 20
175.507267
 30
0.0
 70
    32
  0
SEQEND
  5
83
  8
0
 62
     7
  0
LINE
  5
84
  8
DXF_HOLE_CENTRES_MODEL_HOL
 62
    18
 10
67.00011699999999
 20
176.50714
 30
0.0
 11
69.000117
 21
176.50714
 31
0.0
  0
POLYLINE
  5
85
  8
0
 62
     7
 10
0.0
 20
0.0
 30
0.0
 66
     1
 70
     8
  0
VERTEX
  5
86
  8
0
 62
     7
 10
116.999892
 20
153.007317
 30
0.0
 70
    32
  0
VERTEX
  5
87
  8
0
 62
     7
 10
116.999892
 20
151.007317
 30
0.0
 70
    32
  0
VERTEX
  5
88
  8
0
 62
     7
 10
116.999892
 20
151.007317
 30
0.0
 70
    32
  0
VERTEX
  5
89
  8
0
 62
     7
 10
116.999892
 20
151.007317
 30
0.0
 70
    32
  0
SEQEND
  5
8A
  8
0
 62
     7
  0
LINE
  5
8B
  8
DXF_HOLE_CENTRES_MODEL_HOL
 62
    18
 10
115.999892
 20
176.507267
 30
0.0
 11
117.999892
 21
176.507267
 31
0.0
  0
POLYLINE
  5
8C
  8
0
 62
     7
 10
0.0
 20
0.0
 30
0.0
 66
     1
 70
     8
  0
VERTEX
  5
8D
  8
0
 62
     7
 10
103.000047
 20
153.007317
 30
0.0
 70
    32
  0
VERTEX
  5
8E
  8
0
 62
     7
 10
103.000047
 20
151.007317
 30
0.0
 70
    32
  0
VERTEX
  5
8F
  8
0
 62
     7
 10
103.000047
 20
151.007317
 30
0.0
 70
    32
  0
VERTEX
  5
90
  8
0
 62
     7
 10
103.000047
 20
151.007317
 30
0.0
 70
    32
  0
SEQEND
  5
91
  8
0
 62
     7
  0
LINE
  5
92
  8
DXF_HOLE_CENTRES_MODEL_HOL
 62
    18
 10
115.999892
 20
152.007317
 30
0.0
 11
117.999892
 21
152.007317
 31
0.0
  0
POLYLINE
  5
93
  8
0
 62
     7
 10
0.0
 20
0.0
 30
0.0
 66
     1
 70
     8
  0
VERTEX
  5
94
  8
0
 62
     7
 10
82.000089
 20
153.007317
 30
0.0
 70
    32
  0
VERTEX
  5
95
  8
0
 62
     7
 10
82.000089
 20
151.007317
 30
0.0
 70
    32
  0
VERTEX
  5
96
  8
0
 62
     7
 10
82.000089
 20
151.007317
 30
0.0
 70
    32
  0
VERTEX
  5
97
  8
0
 62
     7
 10
82.000089
 20
151.007317
 30
0.0
 70
    32
  0
SEQEND
  5
98
  8
0
 62
     7
  0
LINE
  5
99
  8
DXF_HOLE_CENTRES_MODEL_HOL
 62
    18
 10
102.000047
 20
152.007317
 30
0.0
 11
104.000047
 21
152.007317
 31
0.0
  0
POLYLINE
  5
9A
  8
0
 62
     7
 10
0.0
 20
0.0
 30
0.0
 66
     1
 70
     8
  0
VERTEX
  5
9B
  8
0
 62
     7
 10
68.000117
 20
153.007317
 30
0.0
 70
    32
  0
VERTEX
  5
9C
  8
0
 62
     7
 10
68.000117
 20
151.007317
 30
0.0
 70
    32
  0
VERTEX
  5
9D
  8
0
 62
     7
 10
68.000117
 20
151.007317
 30
0.0
 70
    32
  0
VERTEX
  5
9E
  8
0
 62
     7
 10
68.000117
 20
151.007317
 30
0.0
 70
    32
  0
SEQEND
  5
9F
  8
0
 62
     7
  0
LINE
  5
A0
  8
DXF_HOLE_CENTRES_MODEL_HOL
 62
    18
 10
81.00008899999999
 20
152.007317
 30
0.0
 11
83.000089
 21
152.007317
 31
0.0
  0
POLYLINE
  5
A1
  8
0
 62
     7
 10
0.0
 20
0.0
 30
0.0
 66
     1
 70
     8
  0
VERTEX
  5
A2
  8
0
 62
     7
 10
116.999892
 20
133.007103
 30
0.0
 70
    32
  0
VERTEX
  5
A3
  8
0
 62
     7
 10
116.999892
 20
131.007103
 30
0.0
 70
    32
  0
VERTEX
  5
A4
  8
0
 62
     7
 10
116.999892
 20
131.007103
 30
0.0
 70
    32
  0
VERTEX
  5
A5
  8
0
 62
     7
 10
116.999892
 20
131.007103
 30
0.0
 70
    32
  0
SEQEND
  5
A6
  8
0
 62
     7
  0
LINE
  5
A7
  8
DXF_HOLE_CENTRES_MODEL_HOL
 62
    18
 10
67.00011699999999
 20
152.007317
 30
0.0
 11
69.000117
 21
152.007317
 31
0.0
  0
POLYLINE
  5
A8
  8
0
 62
     7
 10
0.0
 20
0.0
 30
0.0
 66
     1
 70
     8
  0
VERTEX
  5
A9
  8
0
 62
     7
 10
103.000047
 20
133.007103
 30
0.0
 70
    32
  0
VERTEX
  5
AA
  8
0
 62
     7
 10
103.000047
 20
131.007103
 30
0.0
 70
    32
  0
VERTEX
  5
AB
  8
0
 62
     7
 10
103.000047
 20
131.007103
 30
0.0
 70
    32
  0
VERTEX
  5
AC
  8
0
 62
     7
 10
103.000047
 20
131.007103
 30
0.0
 70
    32
  0
SEQEND
  5
AD
  8
0
 62
     7
  0
LINE
  5
AE
  8
DXF_HOLE_CENTRES_MODEL_HOL
 62
    18
 10
115.999892
 20
132.007103
 30
0.0
 11
117.999892
 21
132.007103
 31
0.0
  0
POLYLINE
  5
AF
  8
0
 62
     7
 10
0.0
 20
0.0
 30
0.0
 66
     1
 70
     8
  0
VERTEX
  5
B0
  8
0
 62
     7
 10
82.000089
 20
133.007103
 30
0.0
 70
    32
  0
VERTEX
  5
B1
  8
0
 62
     7
 10
82.000089
 20
131.007103
 30
0.0
 70
    32
  0
VERTEX
  5
B2
  8
0
 62
     7
 10
82.000089
 20
131.007103
 30
0.0
 70
    32
  0
VERTEX
  5
B3
  8
0
 62
     7
 10
82.000089
 20
131.007103
 30
0.0
 70
    32
  0
SEQEND
  5
B4
  8
0
 62
     7
  0
LINE
  5
B5
  8
DXF_HOLE_CENTRES_MODEL_HOL
 62
    18
 10
102.000047
 20
132.007103
 30
0.0
 11
104.000047
 21
132.007103
 31
0.0
  0
POLYLINE
  5
B6
  8
0
 62
     7
 10
0.0
 20
0.0
 30
0.0
 66
     1
 70
     8
  0
VERTEX
  5
B7
  8
0
 62
     7
 10
68.000117
 20
133.007103
 30
0.0
 70
    32
  0
VERTEX
  5
B8
  8
0
 62
     7
 10
68.000117
 20
131.007103
 30
0.0
 70
    32
  0
VERTEX
  5
B9
  8
0
 62
     7
 10
68.000117
 20
131.007103
 30
0.0
 70
    32
  0
VERTEX
  5
BA
  8
0
 62
     7
 10
68.000117
 20
131.007103
 30
0.0
 70
    32
  0
SEQEND
  5
BB
  8
0
 62
     7
  0
LINE
  5
BC
  8
DXF_HOLE_CENTRES_MODEL_HOL
 62
    18
 10
81.00008899999999
 20
132.007103
 30
0.0
 11
83.000089
 21
132.007103
 31
0.0
  0
POLYLINE
  5
BD
  8
0
 62
     7
 10
0.0
 20
0.0
 30
0.0
 66
     1
 70
     8
  0
VERTEX
  5
BE
  8
0
 62
     7
 10
82.000089
 20
113.007143
 30
0.0
 70
    32
  0
VERTEX
  5
BF
  8
0
 62
     7
 10
82.000089
 20
111.007143
 30
0.0
 70
    32
  0
VERTEX
  5
C0
  8
0
 62
     7
 10
82.000089
 20
111.007143
 30
0.0
 70
    32
  0
VERTEX
  5
C1
  8
0
 62
     7
 10
82.000089
 20
111.007143
 30
0.0
 70
    32
  0
SEQEND
  5
C2
  8
0
 62
     7
  0
LINE
  5
C3
  8
DXF_HOLE_CENTRES_MODEL_HOL
 62
    18
 10
67.00011699999999
 20
132.007103
 30
0.0
 11
69.000117
 21
132.007103
 31
0.0
  0
POLYLINE
  5
C4
  8
0
 62
     7
 10
0.0
 20
0.0
 30
0.0
 66
     1
 70
     8
  0
VERTEX
  5
C5
  8
0
 62
     7
 10
68.000117
 20
113.007143
 30
0.0
 70
    32
  0
VERTEX
  5
C6
  8
0
 62
     7
 10
68.000117
 20
111.007143
 30
0.0
 70
    32
  0
VERTEX
  5
C7
  8
0
 62
     7
 10
68.000117
 20
111.007143
 30
0.0
 70
    32
  0
VERTEX
  5
C8
  8
0
 62
     7
 10
68.000117
 20
111.007143
 30
0.0
 70
    32
  0
SEQEND
  5
C9
  8
0
 62
     7
  0
LINE
  5
CA
  8
DXF_HOLE_CENTRES_MODEL_HOL
 62
    18
 10
81.00008899999999
 20
112.007143
 30
0.0
 11
83.000089
 21
112.007143
 31
0.0
  0
POLYLINE
  5
CB
  8
0
 62
     7
 10
0.0
 20
0.0
 30
0.0
 66
     1
 70
     8
  0
VERTEX
  5
CC
  8
0
 62
     7
 10
110.000024
 20
113.007143
 30
0.0
 70
    32
  0
VERTEX
  5
CD
  8
0
 62
     7
 10
110.000024
 20
111.007143
 30
0.0
 70
    32
  0
VERTEX
  5
CE
  8
0
 62
     7
 10
110.000024
 20
111.007143
 30
0.0
 70
    32
  0
VERTEX
  5
CF
  8
0
 62
     7
 10
110.000024
 20
111.007143
 30
0.0
 70
    32
  0
SEQEND
  5
D0
  8
0
 62
     7
  0
LINE
  5
D1
  8
DXF_HOLE_CENTRES_MODEL_HOL
 62
    18
 10
67.00011699999999
 20
112.007143
 30
0.0
 11
69.000117
 21
112.007143
 31
0.0
  0
POLYLINE
  5
D2
  8
0
 62
     7
 10
0.0
 20
0.0
 30
0.0
 66
     1
 70
     8
  0
VERTEX
  5
D3
  8
0
 62
     7
 10
104.999916
 20
185.007125
 30
0.0
 70
    32
  0
VERTEX
  5
D4
  8
0
 62
     7
 10
104.999916
 20
183.007125
 30
0.0
 70
    32
  0
VERTEX
  5
D5
  8
0
 62
     7
 10
104.999916
 20
183.007125
 30
0.0
 70
    32
  0
VERTEX
  5
D6
  8
0
 62
     7
 10
104.999916
 20
183.007125
 30
0.0
 70
    32
  0
SEQEND
  5
D7
  8
0
 62
     7
  0
LINE
  5
D8
  8
DXF_HOLE_CENTRES_MODEL_HOL
 62
    18
 10
109.000024
 20
112.007143
 30
0.0
 11
111.000024
 21
112.007143
 31
0.0
  0
POLYLINE
  5
D9
  8
0
 62
     7
 10
0.0
 20
0.0
 30
0.0
 66
     1
 70
     8
  0
VERTEX
  5
DA
  8
0
 62
     7
 10
104.999916
 20
180.007135
 30
0.0
 70
    32
  0
VERTEX
  5
DB
  8
0
 62
     7
 10
104.999916
 20
178.007135
 30
0.0
 70
    32
  0
VERTEX
  5
DC
  8
0
 62
     7
 10
104.999916
 20
178.007135
 30
0.0
 70
    32
  0
VERTEX
  5
DD
  8
0
 62
     7
 10
104.999916
 20
178.007135
 30
0.0
 70
    32
  0
SEQEND
  5
DE
  8
0
 62
     7
  0
LINE
  5
DF
  8
DXF_HOLE_CENTRES_MODEL_HOL
 62
    18
 10
103.999916
 20
184.007125
 30
0.0
 11
105.999916
 21
184.007125
 31
0.0
  0
POLYLINE
  5
E0
  8
0
 62
     7
 10
0.0
 20
0.0
 30
0.0
 66
     1
 70
     8
  0
VERTEX
  5
E1
  8
0
 62
     7
 10
104.999916
 20
175.007272
 30
0.0
 70
    32
  0
VERTEX
  5
E2
  8
0
 62
     7
 10
104.999916
 20
173.007272
 30
0.0
 70
    32
  0
VERTEX
  5
E3
  8
0
 62
     7
 10
104.999916
 20
173.007272
 30
0.0
 70
    32
  0
VERTEX
  5
E4
  8
0
 62
     7
 10
104.999916
 20
173.007272
 30
0.0
 70
    32
  0
SEQEND
  5
E5
  8
0
 62
     7
  0
LINE
  5
E6
  8
DXF_HOLE_CENTRES_MODEL_HOL
 62
    18
 10
103.999916
 20
179.007135
 30
0.0
 11
105.999916
 21
179.007135
 31
0.0
  0
POLYLINE
  5
E7
  8
0
 62
     7
 10
0.0
 20
0.0
 30
0.0
 66
     1
 70
     8
  0
VERTEX
  5
E8
  8
0
 62
     7
 10
104.999916
 20
170.007282
 30
0.0
 70
    32
  0
VERTEX
  5
E9
  8
0
 62
     7
 10
104.999916
 20
168.007282
 30
0.0
 70
    32
  0
VERTEX
  5
EA
  8
0
 62
     7
 10
104.999916
 20
168.007282
 30
0.0
 70
    32
  0
VERTEX
  5
EB
  8
0
 62
     7
 10
104.999916
 20
168.007282
 30
0.0
 70
    32
  0
SEQEND
  5
EC
  8
0
 62
     7
  0
LINE
  5
ED
  8
DXF_HOLE_CENTRES_MODEL_HOL
 62
    18
 10
103.999916
 20
174.007272
 30
0.0
 11
105.999916
 21
174.007272
 31
0.0
  0
POLYLINE
  5
EE
  8
0
 62
     7
 10
0.0
 20
0.0
 30
0.0
 66
     1
 70
     8
  0
VERTEX
  5
EF
  8
0
 62
     7
 10
79.95005499999999
 20
185.007125
 30
0.0
 70
    32
  0
VERTEX
  5
F0
  8
0
 62
     7
 10
79.95005499999999
 20
183.007125
 30
0.0
 70
    32
  0
VERTEX
  5
F1
  8
0
 62
     7
 10
79.95005499999999
 20
183.007125
 30
0.0
 70
    32
  0
VERTEX
  5
F2
  8
0
 62
     7
 10
79.95005499999999
 20
183.007125
 30
0.0
 70
    32
  0
SEQEND
  5
F3
  8
0
 62
     7
  0
LINE
  5
F4
  8
DXF_HOLE_CENTRES_MODEL_HOL
 62
    18
 10
103.999916
 20
169.007282
 30
0.0
 11
105.999916
 21
169.007282
 31
0.0
  0
POLYLINE
  5
F5
  8
0
 62
     7
 10
0.0
 20
0.0
 30
0.0
 66
     1
 70
     8
  0
VERTEX
  5
F6
  8
0
 62
     7
 10
79.95005499999999
 20
180.007135
 30
0.0
 70
    32
  0
VERTEX
  5
F7
  8
0
 62
     7
 10
79.95005499999999
 20
178.007135
 30
0.0
 70
    32
  0
VERTEX
  5
F8
  8
0
 62
     7
 10
79.95005499999999
 20
178.007135
 30
0.0
 70
    32
  0
VERTEX
  5
F9
  8
0
 62
     7
 10
79.95005499999999
 20
178.007135
 30
0.0
 70
    32
  0
SEQEND
  5
FA
  8
0
 62
     7
  0
LINE
  5
FB
  8
DXF_HOLE_CENTRES_MODEL_HOL
 62
    18
 10
78.95005499999999
 20
184.007125
 30
0.0
 11
80.950055
 21
184.007125
 31
0.0
  0
POLYLINE
  5
FC
  8
0
 62
     7
 10
0.0
 20
0.0
 30
0.0
 66
     1
 70
     8
  0
VERTEX
  5
FD
  8
0
 62
     7
 10
79.95005499999999
 20
175.007272
 30
0.0
 70
    32
  0
VERTEX
  5
FE
  8
0
 62
     7
 10
79.95005499999999
 20
173.007272
 30
0.0
 70
    32
  0
VERTEX
  5
FF
  8
0
 62
     7
 10
79.95005499999999
 20
173.007272
 30
0.0
 70
    32
  0
VERTEX
  5
100
  8
0
 62
     7
 10
79.95005499999999
 20
173.007272
 30
0.0
 70
    32
  0
SEQEND
  5
101
  8
0
 62
     7
  0
LINE
  5
102
  8
DXF_HOLE_CENTRES_MODEL_HOL
 62
    18
 10
78.95005499999999
 20
179.007135
 30
0.0
 11
80.950055
 21
179.007135
 31
0.0
  0
POLYLINE
  5
103
  8
0
 62
     7
 10
0.0
 20
0.0
 30
0.0
 66
     1
 70
     8
  0
VERTEX
  5
104
  8
0
 62
     7
 10
79.95005499999999
 20
170.007282
 30
0.0
 70
    32
  0
VERTEX
  5
105
  8
0
 62
     7
 10
79.95005499999999
 20
168.007282
 30
0.0
 70
    32
  0
VERTEX
  5
106
  8
0
 62
     7
 10
79.95005499999999
 20
168.007282
 30
0.0
 70
    32
  0
VERTEX
  5
107
  8
0
 62
     7
 10
79.95005499999999
 20
168.007282
 30
0.0
 70
    32
  0
SEQEND
  5
108
  8
0
 62
     7
  0
LINE
  5
109
  8
DXF_HOLE_CENTRES_MODEL_HOL
 62
    18
 10
78.95005499999999
 20
174.007272
 30
0.0
 11
80.950055
 21
174.007272
 31
0.0
  0
POLYLINE
  5
10A
  8
0
 62
     7
 10
0.0
 20
0.0
 30
0.0
 66
     1
 70
     8
  0
VERTEX
  5
10B
  8
0
 62
     7
 10
68.000117
 20
161.5073
 30
0.0
 70
    32
  0
VERTEX
  5
10C
  8
0
 62
     7
 10
68.000117
 20
159.5073
 30
0.0
 70
    32
  0
VERTEX
  5
10D
  8
0
 62
     7
 10
68.000117
 20
159.5073
 30
0.0
 70
    32
  0
VERTEX
  5
10E
  8
0
 62
     7
 10
68.000117
 20
159.5073
 30
0.0
 70
    32
  0
SEQEND
  5
10F
  8
0
 62
     7
  0
LINE
  5
110
  8
DXF_HOLE_CENTRES_MODEL_HOL
 62
    18
 10
78.95005499999999
 20
169.007282
 30
0.0
 11
80.950055
 21
169.007282
 31
0.0
  0
POLYLINE
  5
111
  8
0
 62
     7
 10
0.0
 20
0.0
 30
0.0
 66
     1
 70
     8
  0
VERTEX
  5
112
  8
0
 62
     7
 10
116.999892
 20
161.5073
 30
0.0
 70
    32
  0
VERTEX
  5
113
  8
0
 62
     7
 10
116.999892
 20
159.5073
 30
0.0
 70
    32
  0
VERTEX
  5
114
  8
0
 62
     7
 10
116.999892
 20
159.5073
 30
0.0
 70
    32
  0
VERTEX
  5
115
  8
0
 62
     7
 10
116.999892
 20
159.5073
 30
0.0
 70
    32
  0
SEQEND
  5
116
  8
0
 62
     7
  0
LINE
  5
117
  8
DXF_HOLE_CENTRES_MODEL_HOL
 62
    18
 10
67.00011699999999
 20
160.5073
 30
0.0
 11
69.000117
 21
160.5073
 31
0.0
  0
POLYLINE
  5
118
  8
0
 62
     7
 10
0.0
 20
0.0
 30
0.0
 66
     1
 70
     8
  0
VERTEX
  5
119
  8
0
 62
     7
 10
99.499941
 20
87.507244
 30
0.0
 70
    32
  0
VERTEX
  5
11A
  8
0
 62
     7
 10
99.499941
 20
85.507244
 30
0.0
 70
    32
  0
VERTEX
  5
11B
  8
0
 62
     7
 10
99.499941
 20
85.507244
 30
0.0
 70
    32
  0
VERTEX
  5
11C
  8
0
 62
     7
 10
99.499941
 20
85.507244
 30
0.0
 70
    32
  0
SEQEND
  5
11D
  8
0
 62
     7
  0
LINE
  5
11E
  8
DXF_HOLE_CENTRES_MODEL_HOL
 62
    18
 10
115.999892
 20
160.5073
 30
0.0
 11
117.999892
 21
160.5073
 31
0.0
  0
POLYLINE
  5
11F
  8
0
 62
     7
 10
0.0
 20
0.0
 30
0.0
 66
     1
 70
     8
  0
VERTEX
  5
120
  8
0
 62
     7
 10
85.499969
 20
87.507244
 30
0.0
 70
    32
  0
VERTEX
  5
121
  8
0
 62
     7
 10
85.499969
 20
85.507244
 30
0.0
 70
    32
  0
VERTEX
  5
122
  8
0
 62
     7
 10
85.499969
 20
85.507244
 30
0.0
 70
    32
  0
VERTEX
  5
123
  8
0
 62
     7
 10
85.499969
 20
85.507244
 30
0.0
 70
    32
  0
SEQEND
  5
124
  8
0
 62
     7
  0
LINE
  5
125
  8
DXF_HOLE_CENTRES_MODEL_HOL
 62
    18
 10
98.499941
 20
86.507244
 30
0.0
 11
100.499941
 21
86.507244
 31
0.0
  0
POLYLINE
  5
126
  8
0
 62
     7
 10
0.0
 20
0.0
 30
0.0
 66
     1
 70
     8
  0
VERTEX
  5
127
  8
0
 62
     7
 10
68.000117
 20
87.507321
 30
0.0
 70
    32
  0
VERTEX
  5
128
  8
0
 62
     7
 10
68.000117
 20
85.507321
 30
0.0
 70
    32
  0
VERTEX
  5
129
  8
0
 62
     7
 10
68.000117
 20
85.507321
 30
0.0
 70
    32
  0
VERTEX
  5
12A
  8
0
 62
     7
 10
68.000117
 20
85.507321
 30
0.0
 70
    32
  0
SEQEND
  5
12B
  8
0
 62
     7
  0
LINE
  5
12C
  8
DXF_HOLE_CENTRES_MODEL_HOL
 62
    18
 10
84.49996899999998
 20
86.507244
 30
0.0
 11
86.499969
 21
86.507244
 31
0.0
  0
POLYLINE
  5
12D
  8
0
 62
     7
 10
0.0
 20
0.0
 30
0.0
 66
     1
 70
     8
  0
VERTEX
  5
12E
  8
0
 62
     7
 10
116.999892
 20
87.507244
 30
0.0
 70
    32
  0
VERTEX
  5
12F
  8
0
 62
     7
 10
116.999892
 20
85.507244
 30
0.0
 70
    32
  0
VERTEX
  5
130
  8
0
 62
     7
 10
116.999892
 20
85.507244
 30
0.0
 70
    32
  0
VERTEX
  5
131
  8
0
 62
     7
 10
116.999892
 20
85.507244
 30
0.0
 70
    32
  0
SEQEND
  5
132
  8
0
 62
     7
  0
LINE
  5
133
  8
DXF_HOLE_CENTRES_MODEL_HOL
 62
    18
 10
67.00011699999999
 20
86.507321
 30
0.0
 11
69.000117
 21
86.507321
 31
0.0
  0
POLYLINE
  5
134
  8
0
 62
     7
 10
0.0
 20
0.0
 30
0.0
 66
     1
 70
     8
  0
VERTEX
  5
135
  8
0
 62
     7
 10
110.000024
 20
143.007274
 30
0.0
 70
    32
  0
VERTEX
  5
136
  8
0
 62
     7
 10
110.000024
 20
141.007274
 30
0.0
 70
    32
  0
VERTEX
  5
137
  8
0
 62
     7
 10
110.000024
 20
141.007274
 30
0.0
 70
    32
  0
VERTEX
  5
138
  8
0
 62
     7
 10
110.000024
 20
141.007274
 30
0.0
 70
    32
  0
SEQEND
  5
139
  8
0
 62
     7
  0
LINE
  5
13A
  8
DXF_HOLE_CENTRES_MODEL_HOL
 62
    18
 10
115.999892
 20
86.507244
 30
0.0
 11
117.999892
 21
86.507244
 31
0.0
  0
LINE
  5
13B
  8
DXF_HOLE_CENTRES_MODEL_HOL
 62
    18
 10
109.000024
 20
142.007274
 30
0.0
 11
111.000024
 21
142.007274
 31
0.0
  0
ENDSEC
  0
EOF
