M48
INCH,TZ
T1C0.020
T2C0.020
T3C0.025
T4C0.026
T5C0.028
T6C0.030
T7C0.030
T8C0.035
T9C0.039
T10C0.040
T11C0.043
T12C0.047
T13C0.071
T14C0.079
T15C0.096
%
G90
G05
T2
X20079Y-24705
X22520Y-25315
X25276Y-25315
X26280Y-32382
X27205Y-40866
X27441Y-24724
X27756Y-40453
X29016Y-25315
X29016Y-25315
X29134Y-32500
X30197Y-32480
X30315Y-23661
X30882Y-51814
X31614Y-43780
X31614Y-41339
X31890Y-39862
X31988Y-24311
X32992Y-23406
X33031Y-53110
X33071Y-25315
X33858Y-41266
X34646Y-40872
X36614Y-32776
X38583Y-23720
X38878Y-22244
X39409Y-40197
X39449Y-34213
X40157Y-45960
X40787Y-51063
X42913Y-25886
X43268Y-50748
X43346Y-45079
X43346Y-46575
X43701Y-39764
X43736Y-37047
X44076Y-32907
X44587Y-49619
X44803Y-33346
X45236Y-40630
X45709Y-53307
X46063Y-27264
X46181Y-41654
X46220Y-32087
X46220Y-34213
X46811Y-53304
X47244Y-34213
X47634Y-26295
X47835Y-50394
X47933Y-25591
X48110Y-47520
X48189Y-44233
X48701Y-46102
X48720Y-23327
X48720Y-25394
X48876Y-26944
X49961Y-47520
X52126Y-48307
X52559Y-25197
X53543Y-51181
X53740Y-44685
X54370Y-52480
X54724Y-40630
X54882Y-48425
X54885Y-48977
X54921Y-54134
X55197Y-40197
X55315Y-47343
X55451Y-51052
X55591Y-40197
X55591Y-41181
X55984Y-40197
X56051Y-50648
X56496Y-49114
X56693Y-47205
X57165Y-49685
X57283Y-51535
X57357Y-53623
X58465Y-26850
X59350Y-50984
X59370Y-51575
X59409Y-40630
X63031Y-40630
X63228Y-54055
X63780Y-41220
X65157Y-46865
X70157Y-35591
X70591Y-46732
X70866Y-40630
X72992Y-30551
X73031Y-40630
T3
X26870Y-33547
X26870Y-34547
X26870Y-35547
X30709Y-33547
X30709Y-34547
X30709Y-35547
X36614Y-33547
X36614Y-34547
X36614Y-35547
X40453Y-33547
X40453Y-34547
X40453Y-35547
T4
X45760Y-48228
X46760Y-48228
X68201Y-48228
X69201Y-48228
T5
X23622Y-37815
X23622Y-39311
X24016Y-37067
X24016Y-38563
X24409Y-37815
X24409Y-39311
X24803Y-37067
X24803Y-38563
X25197Y-37815
X25197Y-39311
X25591Y-37067
X25591Y-38563
X25984Y-37815
X25984Y-39311
X26378Y-37067
X26378Y-38563
X26772Y-37815
X26772Y-39311
X27165Y-37067
X27165Y-38563
X27559Y-37815
X27559Y-39311
X27953Y-37067
X27953Y-38563
X28346Y-37815
X28346Y-39311
X28740Y-37067
X28740Y-38563
X29134Y-37815
X29134Y-39311
X29528Y-37067
X29528Y-38563
X29921Y-37815
X29921Y-39311
X30315Y-37067
X30315Y-38563
X30709Y-37815
X30709Y-39311
X31102Y-37067
X31102Y-38563
X31496Y-37815
X31496Y-39311
X31890Y-37067
X31890Y-38563
X32283Y-37815
X32283Y-39311
X32677Y-37067
X32677Y-38563
X33071Y-37815
X33071Y-39311
X33465Y-37067
X33465Y-38563
X33858Y-37815
X33858Y-39311
X34252Y-37067
X34252Y-38563
X34646Y-37815
X34646Y-39311
X35039Y-37067
X35039Y-38563
X35433Y-37815
X35433Y-39311
X35827Y-37067
X35827Y-38563
X36220Y-37815
X36220Y-39311
X36614Y-37067
X36614Y-38563
X37008Y-37815
X37008Y-39311
X37402Y-37067
X37402Y-38563
X37795Y-37815
X37795Y-39311
X38189Y-37067
X38189Y-38563
X38583Y-37815
X38583Y-39311
X38976Y-37067
X38976Y-38563
X39370Y-37815
X39370Y-39311
X39764Y-37067
X39764Y-38563
X40157Y-37815
X40157Y-39311
X40551Y-37067
X40551Y-38563
X40945Y-37815
X40945Y-39311
X41339Y-37067
X41339Y-38563
X41732Y-37815
X41732Y-39311
X42126Y-35433
X42126Y-37067
X42126Y-38563
X42913Y-35433
X44094Y-37815
X44094Y-39311
X44488Y-37067
X44488Y-38563
X44882Y-37815
X44882Y-39311
X45276Y-37067
X45276Y-38563
X45669Y-37815
X45669Y-39311
X46063Y-37067
X46063Y-38563
X46457Y-37815
X46457Y-39311
X46850Y-37067
X46850Y-38563
X47244Y-37815
X47244Y-39311
X47638Y-37067
X47638Y-38563
X48031Y-37815
X48031Y-39311
X48425Y-37067
X48425Y-38563
X48819Y-37815
X48819Y-39311
X49213Y-37067
X49213Y-38563
X49606Y-37815
X49606Y-39311
X50000Y-37067
X50000Y-38563
X50394Y-37815
X50394Y-39311
X50787Y-37067
X50787Y-38563
X51181Y-37815
X51181Y-39311
X51575Y-37067
X51575Y-38563
X51969Y-37815
X51969Y-39311
X52362Y-37067
X52362Y-38563
X52756Y-37815
X52756Y-39311
X53150Y-37067
X53150Y-38563
X53543Y-37815
X53543Y-39311
X53937Y-37067
X53937Y-38563
X54331Y-37815
X54331Y-39311
X54724Y-37067
X54724Y-38563
X55118Y-37815
X55118Y-39311
X55512Y-37067
X55512Y-38563
X55906Y-37815
X55906Y-39311
X56299Y-37067
X56299Y-38563
X56693Y-37815
X56693Y-39311
X57087Y-37067
X57087Y-38563
X57480Y-37815
X57480Y-39311
X57874Y-37067
X57874Y-38563
X58268Y-37815
X58268Y-39311
X58661Y-37067
X58661Y-38563
X59055Y-37815
X59055Y-39311
X59449Y-37067
X59449Y-38563
X59843Y-37815
X59843Y-39311
X60236Y-37067
X60236Y-38563
X60630Y-37815
X60630Y-39311
X60728Y-53839
X61024Y-37067
X61024Y-38563
X61417Y-37815
X61417Y-39311
X61516Y-53839
X61811Y-37067
X61811Y-38563
X62205Y-37815
X62205Y-39311
X62598Y-37067
X62598Y-38563
X62992Y-37815
X62992Y-39311
X63386Y-37067
X63386Y-38563
X63780Y-37815
X63780Y-39311
X64075Y-24803
X64075Y-25591
X64173Y-37067
X64173Y-38563
X64173Y-51673
X64567Y-37815
X64567Y-39311
X64961Y-37067
X64961Y-38563
X64961Y-51673
X65354Y-37815
X65354Y-39311
X65748Y-37067
X65748Y-38563
X66142Y-37815
X66142Y-39311
X66535Y-37067
X66535Y-38563
X66929Y-37815
X66929Y-39311
X67323Y-37067
X67323Y-38563
X67717Y-37815
X67717Y-39311
X68110Y-37067
X68110Y-38563
X68504Y-37815
X68504Y-39311
X68898Y-37067
X68898Y-38563
X69291Y-37815
X69291Y-39311
X69685Y-37067
X69685Y-38563
X70079Y-37815
X70079Y-39311
X70472Y-37067
X70472Y-38563
X70866Y-37815
X70866Y-39311
X71260Y-37067
X71260Y-38563
X71654Y-37815
X71654Y-39311
X72047Y-37067
X72047Y-38563
X75098Y-24902
X75098Y-25689
T6
X25295Y-17047
X25295Y-18031
X25295Y-19016
X25295Y-20984
X25295Y-27047
X25295Y-29016
X25295Y-30000
X25295Y-30984
X26280Y-17047
X26280Y-18031
X26280Y-19016
X26280Y-20984
X26280Y-27047
X26280Y-29016
X26280Y-30000
X26280Y-30984
X35531Y-17047
X35531Y-18031
X35531Y-19016
X35531Y-20984
X35531Y-27047
X35531Y-29016
X35531Y-30000
X35531Y-30984
X36516Y-17047
X36516Y-18031
X36516Y-19016
X36516Y-20984
X36516Y-27047
X36516Y-29016
X36516Y-30000
X36516Y-30984
X40650Y-17992
X40650Y-19961
X40650Y-20945
X40650Y-21929
X41634Y-17992
X41634Y-19961
X41634Y-20945
X41634Y-21929
X50886Y-27047
X50886Y-29016
X50886Y-30000
X50886Y-30984
X50886Y-49882
X50886Y-51850
X50886Y-52835
X50886Y-53819
X51870Y-27047
X51870Y-29016
X51870Y-30000
X51870Y-30984
X51870Y-49882
X51870Y-51850
X51870Y-52835
X51870Y-53819
X55512Y-17047
X55512Y-18031
X55512Y-19016
X55512Y-20984
X56496Y-17047
X56496Y-18031
X56496Y-19016
X56496Y-20984
X58465Y-17047
X58465Y-18031
X58465Y-19016
X58465Y-20984
X59449Y-17047
X59449Y-18031
X59449Y-19016
X59449Y-20984
T7
X41929Y-51969
X41929Y-53937
T8
X19669Y-35039
X20669Y-36039
X21669Y-35039
X33154Y-35039
X34154Y-36039
X35154Y-35039
X47130Y-35039
X48130Y-36039
X49130Y-35039
X51067Y-35039
X52067Y-36039
X53067Y-35039
X56874Y-35039
X57874Y-34039
X58874Y-35039
X59827Y-35039
X60827Y-36039
X61827Y-35039
T9
X19685Y-22244
X19685Y-31299
X19685Y-45079
X20669Y-22244
X20669Y-31299
X20669Y-45079
X21654Y-22244
X21654Y-31299
X21654Y-45079
X25787Y-41142
X25787Y-42323
X25787Y-43504
X25787Y-50197
X25787Y-51378
X25787Y-52559
X28740Y-50197
X28740Y-51378
X28740Y-52559
X29921Y-22244
X29921Y-31299
X29921Y-45079
X30906Y-22244
X30906Y-31299
X30906Y-45079
X31890Y-22244
X31890Y-31299
X31890Y-45079
X35039Y-54134
X36024Y-41142
X36024Y-42323
X36024Y-43504
X36024Y-54134
X37008Y-54134
X40157Y-31299
X40157Y-45079
X41142Y-31299
X41142Y-45079
X42126Y-31299
X42126Y-45079
X45276Y-22244
X45276Y-31299
X45276Y-45079
X45276Y-54134
X46260Y-22244
X46260Y-31299
X46260Y-45079
X46260Y-54134
X47244Y-22244
X47244Y-31299
X47244Y-45079
X47244Y-54134
X50394Y-22244
X50394Y-45079
X51378Y-22244
X51378Y-45079
X52362Y-22244
X52362Y-45079
X57480Y-31299
X57480Y-45079
X58465Y-31299
X58465Y-45079
X58465Y-50197
X58465Y-51378
X58465Y-52559
X59449Y-31299
X59449Y-45079
X62598Y-22244
X62598Y-31299
X62598Y-45079
X63583Y-22244
X63583Y-31299
X63583Y-45079
X64567Y-22244
X64567Y-31299
X64567Y-45079
X67717Y-31299
X67717Y-45079
X68701Y-31299
X68701Y-45079
X69685Y-31299
X69685Y-45079
X72835Y-22244
X72835Y-31299
X72835Y-45079
X73819Y-22244
X73819Y-31299
X73819Y-33169
X73819Y-34350
X73819Y-35531
X73819Y-45079
X74803Y-22244
X74803Y-31299
X74803Y-45079
T10
X45244Y-47047
X46244Y-47047
X47244Y-47047
X49213Y-47933
X49213Y-48933
X49213Y-49933
X67669Y-24787
X67669Y-25787
X68669Y-24787
X68669Y-25787
X69669Y-24787
X69669Y-25787
X70669Y-24787
X70669Y-25787
X71669Y-24787
X71669Y-25787
T11
X61083Y-50378
X61083Y-52378
X66083Y-50378
X66083Y-52378
T12
X28051Y-26280
X30512Y-49409
X34173Y-29094
X40157Y-47283
X42126Y-30217
X42126Y-47283
X44390Y-34547
X45079Y-32579
X47933Y-24705
X49508Y-45177
X49764Y-53346
X52165Y-32874
X53228Y-54016
X55512Y-31811
X62165Y-25197
T15
X20669Y-38189
X75000Y-38189
T1
X21063Y-50079G85X20276Y-50079
G05
X21063Y-53307G85X20276Y-53307
G05
X69094Y-50079G85X68307Y-50079
G05
X69094Y-53307G85X68307Y-53307
G05
X74213Y-50079G85X73425Y-50079
G05
X74213Y-53307G85X73425Y-53307
G05
T5
X26063Y-40020G85X25512Y-40020
G05
X26063Y-44626G85X25512Y-44626
G05
X26063Y-49075G85X25512Y-49075
G05
X26063Y-53681G85X25512Y-53681
G05
X29016Y-49075G85X28465Y-49075
G05
X29016Y-53681G85X28465Y-53681
G05
X36299Y-40020G85X35748Y-40020
G05
X36299Y-44626G85X35748Y-44626
G05
X58740Y-49075G85X58189Y-49075
G05
X58740Y-53681G85X58189Y-53681
G05
X74094Y-32047G85X73543Y-32047
G05
X74094Y-36654G85X73543Y-36654
G05
T9
X18819Y-51476G85X18819Y-51280
G05
X22520Y-51673G85X22520Y-51083
G05
X66850Y-51476G85X66850Y-51280
G05
X70551Y-51673G85X70551Y-51083
G05
X71969Y-51476G85X71969Y-51280
G05
X75669Y-51673G85X75669Y-51083
G05
T13
X43110Y-38061G85X43110Y-38317
G05
T14
X18819Y-19449G85X18819Y-19528
G05
X18819Y-28504G85X18819Y-28583
G05
X18819Y-42283G85X18819Y-42362
G05
X22520Y-19449G85X22520Y-19528
G05
X22520Y-28504G85X22520Y-28583
G05
X22520Y-42283G85X22520Y-42362
G05
X29055Y-19449G85X29055Y-19528
G05
X29055Y-28504G85X29055Y-28583
G05
X29055Y-42283G85X29055Y-42362
G05
X32756Y-19449G85X32756Y-19528
G05
X32756Y-28504G85X32756Y-28583
G05
X32756Y-42283G85X32756Y-42362
G05
X34173Y-51339G85X34173Y-51417
G05
X37874Y-51339G85X37874Y-51417
G05
X39291Y-28504G85X39291Y-28583
G05
X39291Y-42283G85X39291Y-42362
G05
X42992Y-28504G85X42992Y-28583
G05
X42992Y-42283G85X42992Y-42362
G05
X44409Y-19449G85X44409Y-19528
G05
X44409Y-28504G85X44409Y-28583
G05
X44409Y-42283G85X44409Y-42362
G05
X44409Y-51339G85X44409Y-51417
G05
X48110Y-19449G85X48110Y-19528
G05
X48110Y-28504G85X48110Y-28583
G05
X48110Y-42283G85X48110Y-42362
G05
X48110Y-51339G85X48110Y-51417
G05
X49528Y-19449G85X49528Y-19528
G05
X49528Y-42283G85X49528Y-42362
G05
X53228Y-19449G85X53228Y-19528
G05
X53228Y-42283G85X53228Y-42362
G05
X56614Y-28504G85X56614Y-28583
G05
X56614Y-42283G85X56614Y-42362
G05
X60315Y-28504G85X60315Y-28583
G05
X60315Y-42283G85X60315Y-42362
G05
X61732Y-19449G85X61732Y-19528
G05
X61732Y-28504G85X61732Y-28583
G05
X61732Y-42283G85X61732Y-42362
G05
X65433Y-19449G85X65433Y-19528
G05
X65433Y-28504G85X65433Y-28583
G05
X65433Y-42283G85X65433Y-42362
G05
X66850Y-28504G85X66850Y-28583
G05
X66850Y-42283G85X66850Y-42362
G05
X70551Y-28504G85X70551Y-28583
G05
X70551Y-42283G85X70551Y-42362
G05
X71969Y-19449G85X71969Y-19528
G05
X71969Y-28504G85X71969Y-28583
G05
X71969Y-42283G85X71969Y-42362
G05
X75669Y-19449G85X75669Y-19528
G05
X75669Y-28504G85X75669Y-28583
G05
X75669Y-42283G85X75669Y-42362
G05
T0
M30
