G04 #@! TF.FileFunction,Soldermask,Bot*
%FSLAX46Y46*%
G04 Gerber Fmt 4.6, Leading zero omitted, Abs format (unit mm)*
G04 Created by KiCad (PCBNEW (2015-11-11 BZR 6310, Git 8f79b4f)-product) date 2016-01-24 6:12:09 PM*
%MOMM*%
G01*
G04 APERTURE LIST*
%ADD10C,0.100000*%
%ADD11C,0.150000*%
%ADD12O,1.800000X1.800000*%
%ADD13O,3.000000X1.800000*%
%ADD14R,1.143000X0.812800*%
%ADD15R,0.812800X1.143000*%
%ADD16R,1.143000X1.397000*%
%ADD17R,1.397000X1.143000*%
%ADD18R,1.200000X1.200000*%
%ADD19C,1.200000*%
%ADD20R,2.032000X1.727200*%
%ADD21O,2.032000X1.727200*%
%ADD22R,1.727200X2.032000*%
%ADD23O,1.727200X2.032000*%
%ADD24R,1.727200X1.727200*%
%ADD25O,1.727200X1.727200*%
%ADD26O,2.350000X3.000000*%
%ADD27C,1.100000*%
%ADD28C,3.000000*%
%ADD29R,1.450000X0.450000*%
%ADD30R,1.550000X0.600000*%
%ADD31C,1.524000*%
%ADD32R,1.300480X0.299720*%
%ADD33C,1.778000*%
%ADD34C,1.270000*%
%ADD35R,1.500000X1.500000*%
%ADD36C,1.500000*%
%ADD37R,3.000000X3.200000*%
%ADD38C,1.750000*%
%ADD39R,2.500000X1.200000*%
%ADD40O,2.500000X4.000000*%
%ADD41O,2.000000X2.500000*%
%ADD42O,3.500000X1.500000*%
%ADD43R,0.762000X0.609600*%
%ADD44R,0.797560X0.398780*%
%ADD45R,1.400000X1.400000*%
%ADD46C,1.400000*%
%ADD47R,2.800000X1.600000*%
%ADD48R,1.600000X2.800000*%
%ADD49R,2.397760X2.397760*%
%ADD50R,0.701040X1.000760*%
%ADD51R,1.000760X0.701040*%
%ADD52R,0.609600X0.762000*%
G04 APERTURE END LIST*
D10*
D11*
X45000000Y-140000000D02*
X45000000Y-40000000D01*
X195000000Y-140000000D02*
X45000000Y-140000000D01*
X195000000Y-40000000D02*
X195000000Y-140000000D01*
X45000000Y-40000000D02*
X195000000Y-40000000D01*
D12*
X167850000Y-127960000D03*
X167850000Y-133040000D03*
D13*
X155150000Y-127960000D03*
X155150000Y-133040000D03*
D14*
X72000000Y-91850900D03*
X72000000Y-90149100D03*
X96750000Y-91850900D03*
X96750000Y-90149100D03*
D15*
X74100900Y-57000000D03*
X72399100Y-57000000D03*
X79850900Y-42750000D03*
X78149100Y-42750000D03*
D16*
X94079500Y-135000000D03*
X91920500Y-135000000D03*
D14*
X152750000Y-110899100D03*
X152750000Y-112600900D03*
X149250000Y-76149100D03*
X149250000Y-77850900D03*
X162750000Y-110899100D03*
X162750000Y-112600900D03*
X162250000Y-76149100D03*
X162250000Y-77850900D03*
X175250000Y-110899100D03*
X175250000Y-112600900D03*
X178500000Y-76149100D03*
X178500000Y-77850900D03*
X188250000Y-110899100D03*
X188250000Y-112600900D03*
X188250000Y-75899100D03*
X188250000Y-77600900D03*
X136000000Y-129100900D03*
X136000000Y-127399100D03*
D15*
X166100900Y-136000000D03*
X164399100Y-136000000D03*
D14*
X151250000Y-134100900D03*
X151250000Y-132399100D03*
D15*
X144100900Y-127000000D03*
X142399100Y-127000000D03*
D14*
X134500000Y-135350900D03*
X134500000Y-133649100D03*
D15*
X126399100Y-92000000D03*
X128100900Y-92000000D03*
D14*
X72000000Y-101899100D03*
X72000000Y-103600900D03*
X116000000Y-112350900D03*
X116000000Y-110649100D03*
X134750000Y-110649100D03*
X134750000Y-112350900D03*
X128250000Y-110649100D03*
X128250000Y-112350900D03*
X188250000Y-52899100D03*
X188250000Y-54600900D03*
X162250000Y-52899100D03*
X162250000Y-54600900D03*
X117500000Y-91350900D03*
X117500000Y-89649100D03*
D15*
X142350900Y-88000000D03*
X140649100Y-88000000D03*
D14*
X113500000Y-91350900D03*
X113500000Y-89649100D03*
D17*
X159500000Y-122579500D03*
X159500000Y-120420500D03*
D18*
X116230000Y-122500000D03*
D19*
X118770000Y-122500000D03*
D18*
X173230000Y-122500000D03*
D19*
X175770000Y-122500000D03*
D20*
X125000000Y-121750000D03*
D21*
X125000000Y-124290000D03*
X125000000Y-126830000D03*
D22*
X120000000Y-119500000D03*
D23*
X117460000Y-119500000D03*
X114920000Y-119500000D03*
D24*
X171880000Y-62960000D03*
D25*
X171880000Y-65500000D03*
X174420000Y-62960000D03*
X174420000Y-65500000D03*
X176960000Y-62960000D03*
X176960000Y-65500000D03*
X179500000Y-62960000D03*
X179500000Y-65500000D03*
X182040000Y-62960000D03*
X182040000Y-65500000D03*
D26*
X109500000Y-97000000D03*
D27*
X112000000Y-96050000D03*
X112000000Y-99850000D03*
X114000000Y-99850000D03*
X116000000Y-99850000D03*
X118000000Y-99850000D03*
X120000000Y-99850000D03*
X122000000Y-99850000D03*
X114000000Y-96050000D03*
X116000000Y-96050000D03*
X118000000Y-96050000D03*
X120000000Y-96050000D03*
X122000000Y-96050000D03*
X124000000Y-99850000D03*
X124000000Y-96050000D03*
X126000000Y-99850000D03*
X126000000Y-96050000D03*
X128000000Y-99850000D03*
X128000000Y-96050000D03*
X130000000Y-99850000D03*
X130000000Y-96050000D03*
X132000000Y-99850000D03*
X132000000Y-96050000D03*
X152000000Y-99850000D03*
X150000000Y-96050000D03*
X148000000Y-99850000D03*
X148000000Y-96050000D03*
X150000000Y-99850000D03*
X152000000Y-96050000D03*
X134000000Y-99850000D03*
X138000000Y-99850000D03*
X134000000Y-96050000D03*
X136000000Y-96050000D03*
X136000000Y-99850000D03*
X138000000Y-96050000D03*
X140000000Y-96050000D03*
X142000000Y-96050000D03*
X144000000Y-99850000D03*
X146000000Y-99850000D03*
X142000000Y-99850000D03*
X140000000Y-99850000D03*
X144000000Y-96050000D03*
X146000000Y-96050000D03*
X172000000Y-99850000D03*
X170000000Y-99850000D03*
X170000000Y-96050000D03*
X166000000Y-96050000D03*
X168000000Y-99850000D03*
X168000000Y-96050000D03*
X166000000Y-99850000D03*
X172000000Y-96050000D03*
X178000000Y-96050000D03*
X176000000Y-96050000D03*
X176000000Y-99850000D03*
X174000000Y-96050000D03*
X178000000Y-99850000D03*
X174000000Y-99850000D03*
X180000000Y-99850000D03*
X180000000Y-96050000D03*
X156000000Y-99850000D03*
X158000000Y-99850000D03*
X154000000Y-96050000D03*
X154000000Y-99850000D03*
X158000000Y-96050000D03*
X156000000Y-96050000D03*
X162000000Y-99850000D03*
X164000000Y-96050000D03*
X164000000Y-99850000D03*
X162000000Y-96050000D03*
X160000000Y-96050000D03*
X160000000Y-99850000D03*
X182000000Y-96050000D03*
X165000000Y-94150000D03*
X167000000Y-94150000D03*
X169000000Y-94150000D03*
X163000000Y-94150000D03*
X175000000Y-94150000D03*
X171000000Y-94150000D03*
X173000000Y-94150000D03*
X181000000Y-94150000D03*
X179000000Y-94150000D03*
X177000000Y-94150000D03*
X183000000Y-94150000D03*
X159000000Y-94150000D03*
X155000000Y-94150000D03*
X157000000Y-94150000D03*
X161000000Y-94150000D03*
X129000000Y-94150000D03*
X127000000Y-94150000D03*
X131000000Y-94150000D03*
X133000000Y-94150000D03*
X135000000Y-94150000D03*
X149000000Y-94150000D03*
X151000000Y-94150000D03*
X153000000Y-94150000D03*
X145000000Y-94150000D03*
X143000000Y-94150000D03*
X147000000Y-94150000D03*
X141000000Y-94150000D03*
X137000000Y-94150000D03*
X139000000Y-94150000D03*
X113000000Y-94150000D03*
X121000000Y-94150000D03*
X123000000Y-94150000D03*
X119000000Y-94150000D03*
X125000000Y-94150000D03*
X115000000Y-94150000D03*
X117000000Y-94150000D03*
X182000000Y-99850000D03*
X121000000Y-97950000D03*
X113000000Y-97950000D03*
X115000000Y-97950000D03*
X117000000Y-97950000D03*
X119000000Y-97950000D03*
X123000000Y-97950000D03*
X125000000Y-97950000D03*
X127000000Y-97950000D03*
X129000000Y-97950000D03*
X131000000Y-97950000D03*
X133000000Y-97950000D03*
X137000000Y-97950000D03*
X135000000Y-97950000D03*
X147000000Y-97950000D03*
X149000000Y-97950000D03*
X139000000Y-97950000D03*
X143000000Y-97950000D03*
X145000000Y-97950000D03*
X141000000Y-97950000D03*
X151000000Y-97950000D03*
X157000000Y-97950000D03*
X159000000Y-97950000D03*
X153000000Y-97950000D03*
X155000000Y-97950000D03*
X173000000Y-97950000D03*
X171000000Y-97950000D03*
X169000000Y-97950000D03*
X175000000Y-97950000D03*
X177000000Y-97950000D03*
X179000000Y-97950000D03*
X181000000Y-97950000D03*
X183000000Y-97950000D03*
X165000000Y-97950000D03*
X167000000Y-97950000D03*
X163000000Y-97950000D03*
X161000000Y-97950000D03*
X73000000Y-97950000D03*
X72000000Y-99850000D03*
X70000000Y-99850000D03*
X71000000Y-97950000D03*
X69000000Y-97950000D03*
X75000000Y-97950000D03*
X74000000Y-99850000D03*
X76000000Y-99850000D03*
X78000000Y-99850000D03*
X77000000Y-97950000D03*
X74000000Y-96050000D03*
X76000000Y-96050000D03*
X75000000Y-94150000D03*
X77000000Y-94150000D03*
X68000000Y-96050000D03*
X82000000Y-96050000D03*
X80000000Y-96050000D03*
X79000000Y-94150000D03*
X81000000Y-94150000D03*
X78000000Y-96050000D03*
X68000000Y-99850000D03*
X72000000Y-96050000D03*
X70000000Y-96050000D03*
X69000000Y-94150000D03*
X73000000Y-94150000D03*
X71000000Y-94150000D03*
X81000000Y-97950000D03*
X80000000Y-99850000D03*
X82000000Y-99850000D03*
X79000000Y-97950000D03*
X96000000Y-99850000D03*
X100000000Y-99850000D03*
X98000000Y-99850000D03*
X97000000Y-97950000D03*
X99000000Y-97950000D03*
X101000000Y-97950000D03*
X102000000Y-99850000D03*
X104000000Y-99850000D03*
X103000000Y-97950000D03*
X105000000Y-97950000D03*
X106000000Y-99850000D03*
X107000000Y-97950000D03*
X107000000Y-94150000D03*
X104000000Y-96050000D03*
X106000000Y-96050000D03*
X105000000Y-94150000D03*
X103000000Y-94150000D03*
X101000000Y-94150000D03*
X102000000Y-96050000D03*
X96000000Y-96050000D03*
X100000000Y-96050000D03*
X98000000Y-96050000D03*
X99000000Y-94150000D03*
X97000000Y-94150000D03*
X95000000Y-97950000D03*
X95000000Y-94150000D03*
X94000000Y-99850000D03*
X92000000Y-99850000D03*
X94000000Y-96050000D03*
X93000000Y-97950000D03*
X90000000Y-99850000D03*
X91000000Y-97950000D03*
X83000000Y-97950000D03*
X86000000Y-99850000D03*
X87000000Y-97950000D03*
X89000000Y-97950000D03*
X88000000Y-99850000D03*
X84000000Y-99850000D03*
X85000000Y-97950000D03*
X92000000Y-96050000D03*
X90000000Y-96050000D03*
X89000000Y-94150000D03*
X91000000Y-94150000D03*
X93000000Y-94150000D03*
X84000000Y-96050000D03*
X88000000Y-96050000D03*
X83000000Y-94150000D03*
X86000000Y-96050000D03*
X87000000Y-94150000D03*
X85000000Y-94150000D03*
X60000000Y-99850000D03*
X61000000Y-97950000D03*
X62000000Y-99850000D03*
X64000000Y-99850000D03*
X63000000Y-97950000D03*
X65000000Y-97950000D03*
X66000000Y-99850000D03*
X67000000Y-97950000D03*
X67000000Y-94150000D03*
X64000000Y-96050000D03*
X66000000Y-96050000D03*
X65000000Y-94150000D03*
X63000000Y-94150000D03*
X61000000Y-94150000D03*
X62000000Y-96050000D03*
X60000000Y-96050000D03*
D28*
X52500000Y-97000000D03*
X190500000Y-97000000D03*
D14*
X79000000Y-101899100D03*
X79000000Y-103600900D03*
X77250000Y-101899100D03*
X77250000Y-103600900D03*
X72000000Y-88600900D03*
X72000000Y-86899100D03*
X75500000Y-101899100D03*
X75500000Y-103600900D03*
X72000000Y-85100900D03*
X72000000Y-83399100D03*
X73750000Y-101899100D03*
X73750000Y-103600900D03*
X74000000Y-85100900D03*
X74000000Y-83399100D03*
X74000000Y-91850900D03*
X74000000Y-90149100D03*
D15*
X58350900Y-91500000D03*
X56649100Y-91500000D03*
D14*
X102250000Y-102000000D03*
X102250000Y-103701800D03*
X104000000Y-102000000D03*
X104000000Y-103701800D03*
X99000000Y-88600900D03*
X99000000Y-86899100D03*
X96750000Y-88600900D03*
X96750000Y-86899100D03*
X105750000Y-102000000D03*
X105750000Y-103701800D03*
X96750000Y-85350900D03*
X96750000Y-83649100D03*
X99000000Y-85350900D03*
X99000000Y-83649100D03*
X98500000Y-91850900D03*
X98500000Y-90149100D03*
X82000000Y-91850900D03*
X82000000Y-90149100D03*
D15*
X72399100Y-55250000D03*
X74100900Y-55250000D03*
X74149100Y-53250000D03*
X75850900Y-53250000D03*
X78149100Y-44750000D03*
X79850900Y-44750000D03*
X81649100Y-42750000D03*
X83350900Y-42750000D03*
X69399100Y-55250000D03*
X71100900Y-55250000D03*
D14*
X85250000Y-44350900D03*
X85250000Y-42649100D03*
X87000000Y-42649100D03*
X87000000Y-44350900D03*
X87000000Y-45649100D03*
X87000000Y-47350900D03*
D15*
X71100900Y-57000000D03*
X69399100Y-57000000D03*
X80399100Y-135750000D03*
X82100900Y-135750000D03*
X89600900Y-135000000D03*
X87899100Y-135000000D03*
D14*
X81000000Y-130850900D03*
X81000000Y-129149100D03*
X77250000Y-129149100D03*
X77250000Y-130850900D03*
X154500000Y-112600900D03*
X154500000Y-110899100D03*
X151000000Y-110899100D03*
X151000000Y-112600900D03*
X152750000Y-77850900D03*
X152750000Y-76149100D03*
X151000000Y-76149100D03*
X151000000Y-77850900D03*
X166250000Y-112600900D03*
X166250000Y-110899100D03*
X164500000Y-110899100D03*
X164500000Y-112600900D03*
X165750000Y-77850900D03*
X165750000Y-76149100D03*
X164000000Y-76149100D03*
X164000000Y-77850900D03*
X178750000Y-112600900D03*
X178750000Y-110899100D03*
X177000000Y-110899100D03*
X177000000Y-112600900D03*
X175500000Y-77850900D03*
X175500000Y-76149100D03*
X177000000Y-76149100D03*
X177000000Y-77850900D03*
X191750000Y-112600900D03*
X191750000Y-110899100D03*
X190000000Y-110899100D03*
X190000000Y-112600900D03*
X186500000Y-77600900D03*
X186500000Y-75899100D03*
X190000000Y-75899100D03*
X190000000Y-77600900D03*
D15*
X116399100Y-131750000D03*
X118100900Y-131750000D03*
D14*
X123000000Y-133649100D03*
X123000000Y-135350900D03*
D15*
X110399100Y-136250000D03*
X112100900Y-136250000D03*
X110399100Y-134500000D03*
X112100900Y-134500000D03*
X127399100Y-124500000D03*
X129100900Y-124500000D03*
X130899100Y-124500000D03*
X132600900Y-124500000D03*
X118100900Y-129500000D03*
X116399100Y-129500000D03*
D14*
X110000000Y-125149100D03*
X110000000Y-126850900D03*
X137750000Y-121649100D03*
X137750000Y-123350900D03*
D15*
X132650900Y-119000000D03*
X130949100Y-119000000D03*
D14*
X136000000Y-126350900D03*
X136000000Y-124649100D03*
X137750000Y-124649100D03*
X137750000Y-126350900D03*
D15*
X114399100Y-124500000D03*
X116100900Y-124500000D03*
X118649100Y-124500000D03*
X120350900Y-124500000D03*
D14*
X112000000Y-125149100D03*
X112000000Y-126850900D03*
D15*
X163350900Y-136000000D03*
X161649100Y-136000000D03*
X113149100Y-122500000D03*
X114850900Y-122500000D03*
X158899100Y-136000000D03*
X160600900Y-136000000D03*
X159350900Y-131000000D03*
X157649100Y-131000000D03*
D14*
X151250000Y-135399100D03*
X151250000Y-137100900D03*
X146000000Y-132399100D03*
X146000000Y-134100900D03*
D15*
X142399100Y-132750000D03*
X144100900Y-132750000D03*
X139399100Y-132750000D03*
X141100900Y-132750000D03*
D14*
X145250000Y-122350900D03*
X145250000Y-120649100D03*
X145250000Y-125350900D03*
X145250000Y-123649100D03*
D15*
X141350900Y-127000000D03*
X139649100Y-127000000D03*
X142100900Y-137500000D03*
X140399100Y-137500000D03*
X144850900Y-137500000D03*
X143149100Y-137500000D03*
D14*
X136500000Y-133649100D03*
X136500000Y-135350900D03*
D15*
X128100900Y-90250000D03*
X126399100Y-90250000D03*
X126399100Y-87500000D03*
X128100900Y-87500000D03*
D14*
X107250000Y-63149100D03*
X107250000Y-64850900D03*
X109000000Y-63149100D03*
X109000000Y-64850900D03*
X117000000Y-66399100D03*
X117000000Y-68100900D03*
X124500000Y-75149100D03*
X124500000Y-76850900D03*
D15*
X127649100Y-66500000D03*
X129350900Y-66500000D03*
D14*
X117250000Y-106899100D03*
X117250000Y-108600900D03*
X123750000Y-114149100D03*
X123750000Y-115850900D03*
X119000000Y-106899100D03*
X119000000Y-108600900D03*
X136500000Y-112350900D03*
X136500000Y-110649100D03*
X133000000Y-110649100D03*
X133000000Y-112350900D03*
X122000000Y-115850900D03*
X122000000Y-114149100D03*
X130500000Y-109350900D03*
X130500000Y-107649100D03*
X130500000Y-110649100D03*
X130500000Y-112350900D03*
X126500000Y-112350900D03*
X126500000Y-110649100D03*
X191750000Y-54600900D03*
X191750000Y-52899100D03*
X190000000Y-52899100D03*
X190000000Y-54600900D03*
X128250000Y-84350900D03*
X128250000Y-82649100D03*
X126500000Y-84350900D03*
X126500000Y-82649100D03*
X121250000Y-84350900D03*
X121250000Y-82649100D03*
X123000000Y-84350900D03*
X123000000Y-82649100D03*
X119500000Y-84350900D03*
X119500000Y-82649100D03*
X115750000Y-89649100D03*
X115750000Y-91350900D03*
X165750000Y-54600900D03*
X165750000Y-52899100D03*
X164000000Y-52899100D03*
X164000000Y-54600900D03*
D15*
X138350900Y-87500000D03*
X136649100Y-87500000D03*
X142350900Y-86000000D03*
X140649100Y-86000000D03*
X140649100Y-91500000D03*
X142350900Y-91500000D03*
X140649100Y-89500000D03*
X142350900Y-89500000D03*
D14*
X106250000Y-83649100D03*
X106250000Y-85350900D03*
X108000000Y-83649100D03*
X108000000Y-85350900D03*
X109750000Y-83649100D03*
X109750000Y-85350900D03*
X109900000Y-80349100D03*
X109900000Y-82050900D03*
X111750000Y-89649100D03*
X111750000Y-91350900D03*
X152000000Y-129350900D03*
X152000000Y-127649100D03*
D15*
X161649100Y-127500000D03*
X163350900Y-127500000D03*
D14*
X156500000Y-124149100D03*
X156500000Y-125850900D03*
X165500000Y-124149100D03*
X165500000Y-125850900D03*
X159500000Y-125850900D03*
X159500000Y-124149100D03*
X165500000Y-120649100D03*
X165500000Y-122350900D03*
X171000000Y-125850900D03*
X171000000Y-124149100D03*
D15*
X178850900Y-125500000D03*
X177149100Y-125500000D03*
X182850900Y-125500000D03*
X181149100Y-125500000D03*
X185600900Y-125500000D03*
X183899100Y-125500000D03*
D29*
X143950000Y-129025000D03*
X143950000Y-129675000D03*
X143950000Y-130325000D03*
X143950000Y-130975000D03*
X139550000Y-130975000D03*
X139550000Y-130325000D03*
X139550000Y-129675000D03*
X139550000Y-129025000D03*
X119550000Y-68450000D03*
X119550000Y-67800000D03*
X119550000Y-67150000D03*
X119550000Y-66500000D03*
X119550000Y-65850000D03*
X119550000Y-65200000D03*
X119550000Y-64550000D03*
X125450000Y-64550000D03*
X125450000Y-65200000D03*
X125450000Y-65850000D03*
X125450000Y-66500000D03*
X125450000Y-67150000D03*
X125450000Y-67800000D03*
X125450000Y-68450000D03*
D30*
X179300000Y-123655000D03*
X179300000Y-122385000D03*
X179300000Y-121115000D03*
X179300000Y-119845000D03*
X184700000Y-119845000D03*
X184700000Y-121115000D03*
X184700000Y-122385000D03*
X184700000Y-123655000D03*
D15*
X181149100Y-127250000D03*
X182850900Y-127250000D03*
D31*
X106500000Y-137000000D03*
X106500000Y-132000000D03*
D17*
X106500000Y-135579500D03*
X106500000Y-133420500D03*
D15*
X140149100Y-82750000D03*
X141850900Y-82750000D03*
D32*
X111806000Y-86205400D03*
X111806000Y-85570400D03*
X111806000Y-84910000D03*
X111806000Y-84275000D03*
X117394000Y-84275000D03*
X117394000Y-84922700D03*
X117394000Y-85570400D03*
X117394000Y-86218100D03*
X118306000Y-112205400D03*
X118306000Y-111570400D03*
X118306000Y-110910000D03*
X118306000Y-110275000D03*
X123894000Y-110275000D03*
X123894000Y-110922700D03*
X123894000Y-111570400D03*
X123894000Y-112218100D03*
X144194000Y-134044600D03*
X144194000Y-134679600D03*
X144194000Y-135340000D03*
X144194000Y-135975000D03*
X138606000Y-135975000D03*
X138606000Y-135327300D03*
X138606000Y-134679600D03*
X138606000Y-134031900D03*
X133694000Y-120794600D03*
X133694000Y-121429600D03*
X133694000Y-122090000D03*
X133694000Y-122725000D03*
X128106000Y-122725000D03*
X128106000Y-122077300D03*
X128106000Y-121429600D03*
X128106000Y-120781900D03*
X120194000Y-126044600D03*
X120194000Y-126679600D03*
X120194000Y-127340000D03*
X120194000Y-127975000D03*
X114606000Y-127975000D03*
X114606000Y-127327300D03*
X114606000Y-126679600D03*
X114606000Y-126031900D03*
X120194000Y-133544600D03*
X120194000Y-134179600D03*
X120194000Y-134840000D03*
X120194000Y-135475000D03*
X114606000Y-135475000D03*
X114606000Y-134827300D03*
X114606000Y-134179600D03*
X114606000Y-133531900D03*
X78306000Y-134205400D03*
X78306000Y-133570400D03*
X78306000Y-132910000D03*
X78306000Y-132275000D03*
X83894000Y-132275000D03*
X83894000Y-132922700D03*
X83894000Y-133570400D03*
X83894000Y-134218100D03*
X81194000Y-58794600D03*
X81194000Y-59429600D03*
X81194000Y-60090000D03*
X81194000Y-60725000D03*
X75606000Y-60725000D03*
X75606000Y-60077300D03*
X75606000Y-59429600D03*
X75606000Y-58781900D03*
D33*
X119710000Y-89000000D03*
X122250000Y-91540000D03*
X124790000Y-89000000D03*
X84210000Y-89000000D03*
X86750000Y-91540000D03*
X89290000Y-89000000D03*
X49960000Y-89000000D03*
X52500000Y-91540000D03*
X55040000Y-89000000D03*
X151960000Y-89000000D03*
X154500000Y-91540000D03*
X157040000Y-89000000D03*
X149540000Y-89000000D03*
X147000000Y-86460000D03*
X144460000Y-89000000D03*
X129710000Y-89000000D03*
X132250000Y-91540000D03*
X134790000Y-89000000D03*
D34*
X68250000Y-87750000D03*
X68250000Y-90290000D03*
X68250000Y-85210000D03*
X78000000Y-87750000D03*
X78000000Y-90290000D03*
X78000000Y-85210000D03*
X93000000Y-87750000D03*
X93000000Y-90290000D03*
X93000000Y-85210000D03*
X102750000Y-87750000D03*
X102750000Y-90290000D03*
X102750000Y-85210000D03*
D35*
X64250000Y-73700000D03*
X66750000Y-73700000D03*
D36*
X64250000Y-76200000D03*
X66750000Y-76200000D03*
X64250000Y-78700000D03*
X66750000Y-78700000D03*
X66750000Y-68700000D03*
X64250000Y-68700000D03*
D35*
X90250000Y-73700000D03*
X92750000Y-73700000D03*
D36*
X90250000Y-76200000D03*
X92750000Y-76200000D03*
X90250000Y-78700000D03*
X92750000Y-78700000D03*
X92750000Y-68700000D03*
X90250000Y-68700000D03*
D35*
X151000000Y-48300000D03*
X148500000Y-48300000D03*
D36*
X151000000Y-45800000D03*
X148500000Y-45800000D03*
X151000000Y-43300000D03*
X148500000Y-43300000D03*
X148500000Y-53300000D03*
X151000000Y-53300000D03*
D35*
X129250000Y-73700000D03*
X131750000Y-73700000D03*
D36*
X129250000Y-76200000D03*
X131750000Y-76200000D03*
X129250000Y-78700000D03*
X131750000Y-78700000D03*
X131750000Y-68700000D03*
X129250000Y-68700000D03*
D35*
X129250000Y-131700000D03*
X131750000Y-131700000D03*
D36*
X129250000Y-134200000D03*
X131750000Y-134200000D03*
X129250000Y-136700000D03*
X131750000Y-136700000D03*
X131750000Y-126700000D03*
X129250000Y-126700000D03*
D35*
X92750000Y-48300000D03*
X90250000Y-48300000D03*
D36*
X92750000Y-45800000D03*
X90250000Y-45800000D03*
X92750000Y-43300000D03*
X90250000Y-43300000D03*
X90250000Y-53300000D03*
X92750000Y-53300000D03*
D35*
X66750000Y-48300000D03*
X64250000Y-48300000D03*
D36*
X66750000Y-45800000D03*
X64250000Y-45800000D03*
X66750000Y-43300000D03*
X64250000Y-43300000D03*
X64250000Y-53300000D03*
X66750000Y-53300000D03*
D35*
X103250000Y-50700000D03*
X105750000Y-50700000D03*
D36*
X103250000Y-53200000D03*
X105750000Y-53200000D03*
X103250000Y-55700000D03*
X105750000Y-55700000D03*
X105750000Y-45700000D03*
X103250000Y-45700000D03*
D37*
X47800000Y-49500000D03*
D38*
X55000000Y-56500000D03*
X52500000Y-56500000D03*
X50000000Y-56500000D03*
D37*
X57200000Y-49500000D03*
X73800000Y-49500000D03*
D38*
X81000000Y-56500000D03*
X78500000Y-56500000D03*
X76000000Y-56500000D03*
D37*
X83200000Y-49500000D03*
X73800000Y-107500000D03*
D38*
X81000000Y-114500000D03*
X78500000Y-114500000D03*
X76000000Y-114500000D03*
D37*
X83200000Y-107500000D03*
X47800000Y-107500000D03*
D38*
X55000000Y-114500000D03*
X52500000Y-114500000D03*
X50000000Y-114500000D03*
D37*
X57200000Y-107500000D03*
X99800000Y-107500000D03*
D38*
X107000000Y-114500000D03*
X104500000Y-114500000D03*
X102000000Y-114500000D03*
D37*
X109200000Y-107500000D03*
X86800000Y-130500000D03*
D38*
X94000000Y-137500000D03*
X91500000Y-137500000D03*
X89000000Y-137500000D03*
D37*
X96200000Y-130500000D03*
X143800000Y-107500000D03*
D38*
X151000000Y-114500000D03*
X148500000Y-114500000D03*
X146000000Y-114500000D03*
D37*
X153200000Y-107500000D03*
X143800000Y-72500000D03*
D38*
X151000000Y-79500000D03*
X148500000Y-79500000D03*
X146000000Y-79500000D03*
D37*
X153200000Y-72500000D03*
X156800000Y-107500000D03*
D38*
X164000000Y-114500000D03*
X161500000Y-114500000D03*
X159000000Y-114500000D03*
D37*
X166200000Y-107500000D03*
X156800000Y-72500000D03*
D38*
X164000000Y-79500000D03*
X161500000Y-79500000D03*
X159000000Y-79500000D03*
D37*
X166200000Y-72500000D03*
X169800000Y-107500000D03*
D38*
X177000000Y-114500000D03*
X174500000Y-114500000D03*
X172000000Y-114500000D03*
D37*
X179200000Y-107500000D03*
X169800000Y-72500000D03*
D38*
X177000000Y-79500000D03*
X174500000Y-79500000D03*
X172000000Y-79500000D03*
D37*
X179200000Y-72500000D03*
X182800000Y-107500000D03*
D38*
X190000000Y-114500000D03*
X187500000Y-114500000D03*
X185000000Y-114500000D03*
D37*
X192200000Y-107500000D03*
X182800000Y-72500000D03*
D38*
X190000000Y-79500000D03*
X187500000Y-79500000D03*
X185000000Y-79500000D03*
D37*
X192200000Y-72500000D03*
X112800000Y-130500000D03*
D38*
X120000000Y-137500000D03*
X117500000Y-137500000D03*
X115000000Y-137500000D03*
D37*
X122200000Y-130500000D03*
X182800000Y-49500000D03*
D38*
X190000000Y-56500000D03*
X187500000Y-56500000D03*
X185000000Y-56500000D03*
D37*
X192200000Y-49500000D03*
X125800000Y-49500000D03*
D38*
X133000000Y-56500000D03*
X130500000Y-56500000D03*
X128000000Y-56500000D03*
D37*
X135200000Y-49500000D03*
X112800000Y-49500000D03*
D38*
X120000000Y-56500000D03*
X117500000Y-56500000D03*
X115000000Y-56500000D03*
D37*
X122200000Y-49500000D03*
X156800000Y-49500000D03*
D38*
X164000000Y-56500000D03*
X161500000Y-56500000D03*
X159000000Y-56500000D03*
D37*
X166200000Y-49500000D03*
X125800000Y-107500000D03*
D38*
X133000000Y-114500000D03*
X130500000Y-114500000D03*
X128000000Y-114500000D03*
D37*
X135200000Y-107500000D03*
X112800000Y-107500000D03*
D38*
X120000000Y-114500000D03*
X117500000Y-114500000D03*
X115000000Y-114500000D03*
D37*
X122200000Y-107500000D03*
X73800000Y-72500000D03*
D38*
X81000000Y-79500000D03*
X78500000Y-79500000D03*
X76000000Y-79500000D03*
D37*
X83200000Y-72500000D03*
X99800000Y-72500000D03*
D38*
X107000000Y-79500000D03*
X104500000Y-79500000D03*
X102000000Y-79500000D03*
D37*
X109200000Y-72500000D03*
X112800000Y-72500000D03*
D38*
X120000000Y-79500000D03*
X117500000Y-79500000D03*
X115000000Y-79500000D03*
D37*
X122200000Y-72500000D03*
X47800000Y-72500000D03*
D38*
X55000000Y-79500000D03*
X52500000Y-79500000D03*
X50000000Y-79500000D03*
D37*
X57200000Y-72500000D03*
D31*
X65500000Y-104500000D03*
X65500000Y-107500000D03*
X65500000Y-110500000D03*
D39*
X65500000Y-101650000D03*
X65500000Y-113350000D03*
D31*
X91500000Y-104500000D03*
X91500000Y-107500000D03*
X91500000Y-110500000D03*
D39*
X91500000Y-101650000D03*
X91500000Y-113350000D03*
D31*
X73000000Y-127500000D03*
X73000000Y-130500000D03*
X73000000Y-133500000D03*
D39*
X73000000Y-124650000D03*
X73000000Y-136350000D03*
D31*
X65500000Y-127500000D03*
X65500000Y-130500000D03*
X65500000Y-133500000D03*
D39*
X65500000Y-124650000D03*
X65500000Y-136350000D03*
D31*
X187500000Y-84250000D03*
X187500000Y-87250000D03*
X187500000Y-90250000D03*
D39*
X187500000Y-81400000D03*
X187500000Y-93100000D03*
D31*
X148500000Y-127500000D03*
X148500000Y-130500000D03*
X148500000Y-133500000D03*
D39*
X148500000Y-124650000D03*
X148500000Y-136350000D03*
D40*
X192200000Y-130500000D03*
D41*
X182800000Y-130500000D03*
D42*
X187500000Y-135400000D03*
X187500000Y-127200000D03*
D40*
X179200000Y-130500000D03*
D41*
X169800000Y-130500000D03*
D42*
X174500000Y-135400000D03*
X174500000Y-127200000D03*
D40*
X57200000Y-130500000D03*
D41*
X47800000Y-130500000D03*
D42*
X52500000Y-135400000D03*
X52500000Y-127200000D03*
D43*
X158000000Y-120255400D03*
X158000000Y-122744600D03*
X134500000Y-76755400D03*
X134500000Y-79244600D03*
X126500000Y-76755400D03*
X126500000Y-79244600D03*
X143500000Y-121505400D03*
X143500000Y-123994600D03*
X134250000Y-126994600D03*
X134250000Y-124505400D03*
D44*
X159202440Y-134147700D03*
X159202440Y-133500000D03*
X159202440Y-132852300D03*
X160797560Y-132852300D03*
X160797560Y-133500000D03*
X160797560Y-134147700D03*
X142047560Y-120852300D03*
X142047560Y-121500000D03*
X142047560Y-122147700D03*
X140452440Y-122147700D03*
X140452440Y-121500000D03*
X140452440Y-120852300D03*
X142047560Y-123602300D03*
X142047560Y-124250000D03*
X142047560Y-124897700D03*
X140452440Y-124897700D03*
X140452440Y-124250000D03*
X140452440Y-123602300D03*
D45*
X163000000Y-131250000D03*
D46*
X165000000Y-131250000D03*
D45*
X156250000Y-136750000D03*
D46*
X154250000Y-136750000D03*
D45*
X190750000Y-65250000D03*
D46*
X190750000Y-63250000D03*
D45*
X162750000Y-65000000D03*
D46*
X162750000Y-63000000D03*
D45*
X109000000Y-90000000D03*
D46*
X107000000Y-90000000D03*
D47*
X77500000Y-125500000D03*
D48*
X107000000Y-76750000D03*
X125750000Y-114750000D03*
D47*
X114500000Y-82750000D03*
X112750000Y-87750000D03*
D49*
X167750000Y-62050360D03*
X167750000Y-66449640D03*
X186000000Y-62050360D03*
X186000000Y-66449640D03*
D48*
X107000000Y-120100000D03*
X86800000Y-73900000D03*
D47*
X121750000Y-62750000D03*
D48*
X71250000Y-66750000D03*
D47*
X141000000Y-80800000D03*
X132500000Y-83500000D03*
D48*
X126400000Y-135500000D03*
D47*
X135200000Y-137200000D03*
D48*
X102000000Y-120100000D03*
X157900000Y-64000000D03*
D50*
X110750000Y-121230000D03*
X109797500Y-123770000D03*
X111702500Y-123770000D03*
X137500000Y-92020000D03*
X138452500Y-89480000D03*
X136547500Y-89480000D03*
D51*
X154770000Y-124250000D03*
X152230000Y-123297500D03*
X152230000Y-125202500D03*
D50*
X162500000Y-123230000D03*
X161547500Y-125770000D03*
X163452500Y-125770000D03*
X168250000Y-125770000D03*
X169202500Y-123230000D03*
X167297500Y-123230000D03*
X137500000Y-85020000D03*
X138452500Y-82480000D03*
X136547500Y-82480000D03*
D51*
X72270000Y-52500000D03*
X69730000Y-51547500D03*
X69730000Y-53452500D03*
X81230000Y-45500000D03*
X83770000Y-46452500D03*
X83770000Y-44547500D03*
D14*
X124750000Y-84350900D03*
X124750000Y-82649100D03*
D35*
X143500000Y-48300000D03*
X141000000Y-48300000D03*
D36*
X143500000Y-45800000D03*
X141000000Y-45800000D03*
X143500000Y-43300000D03*
X141000000Y-43300000D03*
X141000000Y-53300000D03*
X143500000Y-53300000D03*
D52*
X114505400Y-64500000D03*
X116994600Y-64500000D03*
D15*
X117399100Y-59250000D03*
X119100900Y-59250000D03*
X122600900Y-59250000D03*
X120899100Y-59250000D03*
X116350900Y-59250000D03*
X114649100Y-59250000D03*
X120899100Y-61000000D03*
X122600900Y-61000000D03*
D32*
X112806000Y-62955400D03*
X112806000Y-62320400D03*
X112806000Y-61660000D03*
X112806000Y-61025000D03*
X118394000Y-61025000D03*
X118394000Y-61672700D03*
X118394000Y-62320400D03*
X118394000Y-62968100D03*
D14*
X110750000Y-63149100D03*
X110750000Y-64850900D03*
M02*
